<?xml version="1.0" encoding="utf-8"?>
<!-- Generator: Adobe Illustrator 21.0.0, SVG Export Plug-In . SVG Version: 6.00 Build 0)  -->
<svg class="logo-svg" version="1.1" id="Layer_1" xmlns="http://www.w3.org/2000/svg" xmlns:xlink="http://www.w3.org/1999/xlink" x="0px" y="0px" viewBox="0 0 450 234" style="enable-background:new 0 0 450 234;" xml:space="preserve">
<style type="text/css">
.st0{fill:none;stroke:#fff;stroke-miterlimit:10;}
.st1{stroke:#fff;stroke-miterlimit:10;}
.moji{fill:#fff;stroke:none;}
.st0, .st1{fill:none;stroke-width:1;stroke-dasharray:3000;stroke-dashoffset:3000;animation: DASH 6s ease-in alternate forwards;
-webkit-animation:DASH 6s ease-in 0s forwards;
-o-animation:DASH 6s ease-in 0s forwards;
animation:DASH 6s ease-in 0s forwards;}
@keyframes DASH{
    0%{stroke-dashoffset:3000;}
    100%{stroke-dashoffset:0;}
}
@-moz-keyframes DASH{
    0%{stroke-dashoffset:3000;}
    100%{stroke-dashoffset:0;}
}
@-webkit-keyframes DASH{
    0%{stroke-dashoffset:3000;}
    100%{stroke-dashoffset:0;}
}
@-o-keyframes DASH{
    0%{stroke-dashoffset:3000;}
    100%{stroke-dashoffset:0;}
}

@-ms-keyframes DASHf{
    0%{stroke-dashoffset:3000;}
    100%{stroke-dashoffset:0;}
}

</style>
<g>
    <g>
        <line class="st0" x1="14.9" y1="13.3" x2="227" y2="225.4"/>
        <line class="st0" x1="227.7" y1="225.4" x2="439.8" y2="13.3"/>
        <line class="st0" x1="27.4" y1="78.5" x2="427.4" y2="78.5"/>
    </g>
</g>
<g>
    <path class="st1" d="M113.6,55.1v10.5h-1.9V55.1l-9.4-15h1.6c0.2,0,0.3,0,0.4,0.1c0.1,0.1,0.2,0.2,0.3,0.3l7.3,11.7
        c0.2,0.3,0.3,0.5,0.4,0.8c0.1,0.3,0.2,0.5,0.3,0.8c0.1-0.3,0.2-0.5,0.3-0.8c0.1-0.3,0.3-0.5,0.4-0.8l7.3-11.7
        c0.1-0.1,0.2-0.2,0.3-0.3c0.1-0.1,0.2-0.1,0.4-0.1h1.6L113.6,55.1z"/>
    <path class="st1" d="M148.5,52.8c0,2-0.3,3.8-0.9,5.4s-1.4,3-2.5,4.1c-1.1,1.1-2.3,2-3.8,2.6c-1.5,0.6-3.1,0.9-4.9,0.9
        c-1.8,0-3.4-0.3-4.9-0.9c-1.5-0.6-2.8-1.5-3.8-2.6c-1.1-1.1-1.9-2.5-2.5-4.1s-0.9-3.4-0.9-5.4c0-2,0.3-3.7,0.9-5.3s1.4-3,2.5-4.1
        c1.1-1.1,2.3-2,3.8-2.6c1.5-0.6,3.1-0.9,4.9-0.9c1.8,0,3.5,0.3,4.9,0.9c1.5,0.6,2.8,1.5,3.8,2.6c1.1,1.1,1.9,2.5,2.5,4.1
        S148.5,50.9,148.5,52.8z M146.6,52.8c0-1.8-0.2-3.4-0.7-4.8c-0.5-1.4-1.2-2.6-2.1-3.6c-0.9-1-2-1.7-3.2-2.3s-2.7-0.8-4.2-0.8
        c-1.5,0-2.9,0.3-4.1,0.8s-2.3,1.3-3.2,2.3s-1.6,2.2-2.1,3.6c-0.5,1.4-0.7,3-0.7,4.8c0,1.8,0.2,3.4,0.7,4.8c0.5,1.4,1.2,2.6,2.1,3.6
        s2,1.7,3.2,2.3c1.3,0.5,2.6,0.8,4.1,0.8c1.5,0,2.9-0.3,4.2-0.8c1.3-0.5,2.3-1.3,3.2-2.3c0.9-1,1.6-2.2,2.1-3.6
        C146.4,56.2,146.6,54.6,146.6,52.8z"/>
    <path class="st1" d="M156.9,51.9h1.5c0.2,0,0.4,0,0.6,0s0.3-0.1,0.5-0.1c0.1-0.1,0.3-0.1,0.4-0.2c0.1-0.1,0.2-0.2,0.4-0.3
        l10.3-10.6c0.2-0.2,0.4-0.3,0.5-0.4c0.2-0.1,0.4-0.1,0.6-0.1h1.5L162,51.6c-0.2,0.2-0.4,0.4-0.6,0.6c-0.2,0.1-0.4,0.2-0.6,0.3
        c0.3,0.1,0.5,0.2,0.7,0.3c0.2,0.2,0.4,0.3,0.6,0.6l11.7,12.2h-1.5c-0.3,0-0.5,0-0.7-0.1c-0.1-0.1-0.3-0.2-0.4-0.4l-10.8-11
        c-0.1-0.1-0.3-0.2-0.4-0.3c-0.1-0.1-0.2-0.2-0.4-0.2s-0.3-0.1-0.5-0.1c-0.2,0-0.4,0-0.7,0h-1.6v12.3h-1.8V40.1h1.8V51.9z"/>
    <path class="st1" d="M200.5,52.8c0,2-0.3,3.8-0.9,5.4s-1.4,3-2.5,4.1c-1.1,1.1-2.3,2-3.8,2.6c-1.5,0.6-3.1,0.9-5,0.9
        c-1.8,0-3.4-0.3-4.9-0.9c-1.5-0.6-2.8-1.5-3.8-2.6c-1.1-1.1-1.9-2.5-2.5-4.1c-0.6-1.6-0.9-3.4-0.9-5.4c0-2,0.3-3.7,0.9-5.3
        c0.6-1.6,1.4-3,2.5-4.1c1.1-1.1,2.3-2,3.8-2.6s3.1-0.9,4.9-0.9c1.8,0,3.5,0.3,5,0.9c1.5,0.6,2.8,1.5,3.8,2.6s1.9,2.5,2.5,4.1
        S200.5,50.9,200.5,52.8z M198.6,52.8c0-1.8-0.2-3.4-0.7-4.8c-0.5-1.4-1.2-2.6-2.1-3.6c-0.9-1-2-1.7-3.2-2.3
        c-1.3-0.5-2.7-0.8-4.2-0.8c-1.5,0-2.9,0.3-4.1,0.8s-2.3,1.3-3.2,2.3c-0.9,1-1.6,2.2-2.1,3.6c-0.5,1.4-0.7,3-0.7,4.8
        c0,1.8,0.2,3.4,0.7,4.8s1.2,2.6,2.1,3.6c0.9,1,2,1.7,3.2,2.3c1.3,0.5,2.6,0.8,4.1,0.8c1.5,0,2.9-0.3,4.2-0.8
        c1.3-0.5,2.3-1.3,3.2-2.3c0.9-1,1.6-2.2,2.1-3.6S198.6,54.6,198.6,52.8z"/>
    <path class="st1" d="M232.6,65.6h-1.4c-0.2,0-0.3,0-0.4-0.1c-0.1-0.1-0.2-0.2-0.3-0.4l-3-7.4H215l-3,7.4c0,0.1-0.1,0.2-0.3,0.3
        c-0.1,0.1-0.3,0.1-0.4,0.1h-1.4l10.4-25.5h1.8L232.6,65.6z M215.5,56.3h11.4l-5.2-12.9c-0.1-0.2-0.2-0.4-0.3-0.7
        c-0.1-0.3-0.2-0.5-0.3-0.8c-0.1,0.3-0.2,0.6-0.3,0.8c-0.1,0.3-0.2,0.5-0.3,0.7L215.5,56.3z"/>
    <path class="st1" d="M237.9,40.2c0.1,0,0.2,0.1,0.3,0.3l16.5,22.1c0-0.4-0.1-0.7-0.1-1V40.1h1.6v25.5h-0.9c-0.3,0-0.5-0.1-0.7-0.4
        l-16.6-22.1c0,0.4,0.1,0.7,0.1,1v21.4h-1.6V40.1h0.9C237.7,40.1,237.8,40.1,237.9,40.2z"/>
    <path class="st1" d="M285.3,52.8c0,2-0.3,3.7-0.9,5.3c-0.6,1.6-1.4,2.9-2.5,4c-1.1,1.1-2.3,2-3.8,2.5c-1.5,0.6-3.1,0.9-4.9,0.9
        h-9.3V40.1h9.3c1.8,0,3.5,0.3,4.9,0.9c1.5,0.6,2.8,1.4,3.8,2.5c1.1,1.1,1.9,2.4,2.5,4C285,49.1,285.3,50.9,285.3,52.8z M283.3,52.8
        c0-1.8-0.2-3.4-0.7-4.8c-0.5-1.4-1.2-2.6-2.1-3.5c-0.9-1-2-1.7-3.2-2.2c-1.3-0.5-2.7-0.8-4.2-0.8h-7.4v22.5h7.4
        c1.5,0,2.9-0.3,4.2-0.8c1.3-0.5,2.3-1.2,3.2-2.2c0.9-1,1.6-2.1,2.1-3.5C283.1,56.2,283.3,54.6,283.3,52.8z"/>
    <path class="st1" d="M293.6,54.1v11.5h-1.8V40.1h6.5c2.9,0,5.1,0.6,6.6,1.7c1.5,1.1,2.2,2.8,2.2,5c0,1-0.2,1.9-0.5,2.7
        c-0.3,0.8-0.8,1.5-1.4,2.1c-0.6,0.6-1.4,1.1-2.3,1.5c-0.9,0.4-1.9,0.6-3,0.8c0.3,0.2,0.5,0.4,0.8,0.7l8.8,11h-1.6
        c-0.2,0-0.4,0-0.5-0.1c-0.1-0.1-0.3-0.2-0.4-0.4l-8.2-10.3c-0.2-0.3-0.4-0.5-0.7-0.6c-0.2-0.1-0.6-0.2-1.1-0.2H293.6z M293.6,52.7
        h4.4c1.1,0,2.1-0.1,3-0.4c0.9-0.3,1.6-0.7,2.3-1.2s1.1-1.1,1.4-1.8s0.5-1.5,0.5-2.4c0-1.8-0.6-3.2-1.8-4c-1.2-0.9-2.9-1.3-5.2-1.3
        h-4.7V52.7z"/>
    <path class="st1" d="M333.1,65.6h-1.4c-0.2,0-0.3,0-0.4-0.1c-0.1-0.1-0.2-0.2-0.3-0.4l-3-7.4h-12.5l-3,7.4c0,0.1-0.1,0.2-0.3,0.3
        c-0.1,0.1-0.3,0.1-0.4,0.1h-1.4l10.4-25.5h1.8L333.1,65.6z M316,56.3h11.4l-5.2-12.9c-0.1-0.2-0.2-0.4-0.3-0.7
        c-0.1-0.3-0.2-0.5-0.3-0.8c-0.1,0.3-0.2,0.6-0.3,0.8c-0.1,0.3-0.2,0.5-0.3,0.7L316,56.3z"/>
    <path class="st1" d="M352.4,40.1v1.5H339v10.3h11.2v1.5H339v10.6h13.4v1.5h-15.3V40.1H352.4z"/>
</g>
<g>
    <path class="moji" d="M155.2,139.3v6.8h-1.2v-17h4.4c2,0,3.5,0.4,4.5,1.3c1,0.9,1.5,2.1,1.5,3.7c0,0.7-0.1,1.4-0.4,2.1c-0.3,0.6-0.7,1.2-1.2,1.6
        c-0.5,0.5-1.2,0.8-1.9,1.1s-1.6,0.4-2.5,0.4H155.2z M155.2,138.3h3.2c0.8,0,1.4-0.1,2-0.3c0.6-0.2,1.1-0.5,1.5-0.9
        c0.4-0.4,0.7-0.8,0.9-1.3c0.2-0.5,0.3-1,0.3-1.6c0-1.3-0.4-2.3-1.2-3c-0.8-0.7-2-1.1-3.6-1.1h-3.2V138.3z"/>
    <path class="moji" d="M183,137.6c0,1.3-0.2,2.5-0.6,3.6c-0.4,1.1-0.9,2-1.7,2.7s-1.6,1.3-2.6,1.8c-1,0.4-2.1,0.6-3.3,0.6c-1.2,0-2.3-0.2-3.3-0.6
        c-1-0.4-1.8-1-2.6-1.8s-1.3-1.7-1.7-2.7c-0.4-1.1-0.6-2.3-0.6-3.6c0-1.3,0.2-2.5,0.6-3.6c0.4-1.1,1-2,1.7-2.7s1.6-1.3,2.6-1.8
        c1-0.4,2.1-0.6,3.3-0.6c1.2,0,2.3,0.2,3.3,0.6c1,0.4,1.8,1,2.6,1.8c0.7,0.8,1.3,1.7,1.7,2.7C182.8,135.1,183,136.3,183,137.6z
         M181.7,137.6c0-1.2-0.2-2.2-0.5-3.2s-0.8-1.7-1.4-2.4c-0.6-0.7-1.3-1.2-2.2-1.5c-0.8-0.3-1.8-0.5-2.8-0.5c-1,0-1.9,0.2-2.8,0.5
        c-0.8,0.3-1.6,0.9-2.2,1.5c-0.6,0.7-1.1,1.5-1.4,2.4s-0.5,2-0.5,3.2c0,1.2,0.2,2.3,0.5,3.2c0.3,0.9,0.8,1.7,1.4,2.4
        c0.6,0.7,1.3,1.2,2.2,1.5s1.8,0.5,2.8,0.5c1,0,2-0.2,2.8-0.5c0.8-0.3,1.6-0.8,2.2-1.5s1.1-1.5,1.4-2.4
        C181.5,139.9,181.7,138.8,181.7,137.6z"/>
    <path class="moji" d="M188.6,138.4v7.7h-1.2v-17h4.3c2,0,3.4,0.4,4.4,1.1c1,0.8,1.5,1.9,1.5,3.3c0,0.6-0.1,1.2-0.3,1.8c-0.2,0.5-0.5,1-1,1.4
        s-0.9,0.7-1.5,1c-0.6,0.3-1.3,0.4-2,0.5c0.2,0.1,0.4,0.3,0.5,0.5l5.8,7.3H198c-0.1,0-0.2,0-0.3-0.1c-0.1,0-0.2-0.1-0.3-0.2
        l-5.4-6.9c-0.1-0.2-0.3-0.3-0.4-0.4s-0.4-0.1-0.7-0.1H188.6z M188.6,137.5h3c0.8,0,1.4-0.1,2-0.3c0.6-0.2,1.1-0.4,1.5-0.8
        s0.7-0.7,0.9-1.2c0.2-0.5,0.3-1,0.3-1.6c0-1.2-0.4-2.1-1.2-2.7s-1.9-0.9-3.5-0.9h-3.1V137.5z"/>
    <path class="moji" d="M212.7,129.1v1h-6v15.9h-1.2v-15.9h-6v-1H212.7z"/>
    <path class="moji" d="M229.3,137.6c0,1.3-0.2,2.5-0.6,3.6c-0.4,1.1-0.9,2-1.7,2.7s-1.6,1.3-2.6,1.8s-2.1,0.6-3.3,0.6c-1.2,0-2.3-0.2-3.3-0.6
        s-1.8-1-2.6-1.8s-1.3-1.7-1.7-2.7c-0.4-1.1-0.6-2.3-0.6-3.6c0-1.3,0.2-2.5,0.6-3.6c0.4-1.1,1-2,1.7-2.7s1.6-1.3,2.6-1.8
        s2.1-0.6,3.3-0.6c1.2,0,2.3,0.2,3.3,0.6s1.8,1,2.6,1.8c0.7,0.8,1.3,1.7,1.7,2.7S229.3,136.3,229.3,137.6z M228,137.6
        c0-1.2-0.2-2.2-0.5-3.2s-0.8-1.7-1.4-2.4c-0.6-0.7-1.3-1.2-2.2-1.5c-0.8-0.3-1.8-0.5-2.8-0.5c-1,0-1.9,0.2-2.8,0.5
        c-0.8,0.3-1.6,0.9-2.2,1.5c-0.6,0.7-1.1,1.5-1.4,2.4s-0.5,2-0.5,3.2c0,1.2,0.2,2.3,0.5,3.2c0.3,0.9,0.8,1.7,1.4,2.4
        c0.6,0.7,1.3,1.2,2.2,1.5s1.8,0.5,2.8,0.5c1,0,2-0.2,2.8-0.5s1.6-0.8,2.2-1.5c0.6-0.7,1.1-1.5,1.4-2.4
        C227.9,139.9,228,138.8,228,137.6z"/>
    <path class="moji" d="M243.5,129.1v1h-8.9v7.1h7.7v1h-7.7v7.8h-1.2v-17H243.5z"/>
    <path class="moji" d="M262.2,137.6c0,1.3-0.2,2.5-0.6,3.6c-0.4,1.1-0.9,2-1.7,2.7s-1.6,1.3-2.6,1.8c-1,0.4-2.1,0.6-3.3,0.6
        c-1.2,0-2.3-0.2-3.3-0.6c-1-0.4-1.8-1-2.6-1.8s-1.3-1.7-1.7-2.7c-0.4-1.1-0.6-2.3-0.6-3.6c0-1.3,0.2-2.5,0.6-3.6
        c0.4-1.1,1-2,1.7-2.7s1.6-1.3,2.6-1.8c1-0.4,2.1-0.6,3.3-0.6c1.2,0,2.3,0.2,3.3,0.6c1,0.4,1.8,1,2.6,1.8c0.7,0.8,1.3,1.7,1.7,2.7
        C262,135.1,262.2,136.3,262.2,137.6z M260.9,137.6c0-1.2-0.2-2.2-0.5-3.2s-0.8-1.7-1.4-2.4c-0.6-0.7-1.3-1.2-2.2-1.5
        c-0.8-0.3-1.8-0.5-2.8-0.5c-1,0-1.9,0.2-2.8,0.5c-0.8,0.3-1.6,0.9-2.2,1.5c-0.6,0.7-1.1,1.5-1.4,2.4s-0.5,2-0.5,3.2
        c0,1.2,0.2,2.3,0.5,3.2c0.3,0.9,0.8,1.7,1.4,2.4c0.6,0.7,1.3,1.2,2.2,1.5s1.8,0.5,2.8,0.5c1,0,2-0.2,2.8-0.5
        c0.8-0.3,1.6-0.8,2.2-1.5s1.1-1.5,1.4-2.4C260.7,139.9,260.9,138.8,260.9,137.6z"/>
    <path class="moji" d="M267.4,145.1h8.1v1h-9.3v-17h1.2V145.1z"/>
    <path class="moji" d="M280.1,146.1h-1.2v-17h1.2V146.1z"/>
    <path class="moji" d="M300.8,137.6c0,1.3-0.2,2.5-0.6,3.6c-0.4,1.1-0.9,2-1.7,2.7s-1.6,1.3-2.6,1.8s-2.1,0.6-3.3,0.6c-1.2,0-2.3-0.2-3.3-0.6
        s-1.8-1-2.6-1.8s-1.3-1.7-1.7-2.7c-0.4-1.1-0.6-2.3-0.6-3.6c0-1.3,0.2-2.5,0.6-3.6c0.4-1.1,1-2,1.7-2.7s1.6-1.3,2.6-1.8
        s2.1-0.6,3.3-0.6c1.2,0,2.3,0.2,3.3,0.6s1.8,1,2.6,1.8c0.7,0.8,1.3,1.7,1.7,2.7S300.8,136.3,300.8,137.6z M299.5,137.6
        c0-1.2-0.2-2.2-0.5-3.2s-0.8-1.7-1.4-2.4c-0.6-0.7-1.3-1.2-2.2-1.5c-0.8-0.3-1.8-0.5-2.8-0.5c-1,0-1.9,0.2-2.8,0.5
        c-0.8,0.3-1.6,0.9-2.2,1.5c-0.6,0.7-1.1,1.5-1.4,2.4s-0.5,2-0.5,3.2c0,1.2,0.2,2.3,0.5,3.2c0.3,0.9,0.8,1.7,1.4,2.4
        c0.6,0.7,1.3,1.2,2.2,1.5s1.8,0.5,2.8,0.5c1,0,2-0.2,2.8-0.5s1.6-0.8,2.2-1.5c0.6-0.7,1.1-1.5,1.4-2.4
        C299.3,139.9,299.5,138.8,299.5,137.6z"/>
</g>
<!--text for "Front end Developer"-->
<g> 
    <path class="moji" d="M172.4,91.7v0.6h-5.2v4.2h4.5V97h-4.5v4.5h-0.7v-9.9H172.4z"/>
    <path class="moji" d="M173.7,101.6v-7h0.4c0.1,0,0.1,0,0.2,0c0,0,0.1,0.1,0.1,0.2l0.1,1.5c0.2-0.6,0.5-1,0.9-1.3s0.8-0.5,1.4-0.5
        c0.2,0,0.4,0,0.6,0.1c0.2,0,0.3,0.1,0.5,0.2l-0.1,0.5c0,0.1-0.1,0.1-0.1,0.1c0,0-0.1,0-0.1,0c-0.1,0-0.1,0-0.2-0.1
        c-0.1,0-0.2,0-0.3-0.1c-0.1,0-0.2,0-0.4,0c-0.5,0-1,0.2-1.3,0.5c-0.3,0.3-0.6,0.8-0.8,1.4v4.5H173.7z"/>
    <path class="moji" d="M181.9,94.5c0.5,0,0.9,0.1,1.3,0.3c0.4,0.2,0.7,0.4,1,0.7s0.5,0.7,0.6,1.1c0.1,0.4,0.2,0.9,0.2,1.5s-0.1,1-0.2,1.5
        c-0.1,0.4-0.3,0.8-0.6,1.1s-0.6,0.6-1,0.7s-0.8,0.3-1.3,0.3c-0.5,0-0.9-0.1-1.3-0.3c-0.4-0.2-0.7-0.4-1-0.7s-0.5-0.7-0.6-1.1
        c-0.1-0.4-0.2-0.9-0.2-1.5s0.1-1,0.2-1.5c0.1-0.4,0.4-0.8,0.6-1.1s0.6-0.6,1-0.7C180.9,94.6,181.4,94.5,181.9,94.5z M181.9,101.2
        c0.4,0,0.8-0.1,1.1-0.2s0.6-0.3,0.8-0.6c0.2-0.3,0.4-0.6,0.5-1c0.1-0.4,0.2-0.8,0.2-1.3c0-0.5-0.1-0.9-0.2-1.3
        c-0.1-0.4-0.3-0.7-0.5-1c-0.2-0.3-0.5-0.5-0.8-0.6s-0.7-0.2-1.1-0.2c-0.4,0-0.8,0.1-1.1,0.2c-0.3,0.1-0.6,0.4-0.8,0.6
        c-0.2,0.3-0.4,0.6-0.5,1s-0.2,0.8-0.2,1.3c0,0.5,0.1,0.9,0.2,1.3c0.1,0.4,0.3,0.7,0.5,1c0.2,0.3,0.5,0.5,0.8,0.6
        C181.1,101.1,181.5,101.2,181.9,101.2z"/>
    <path class="moji" d="M186.8,101.6v-7h0.4c0.1,0,0.2,0.1,0.2,0.2l0.1,1c0.3-0.4,0.7-0.7,1.1-1c0.4-0.2,0.9-0.4,1.4-0.4c0.4,0,0.7,0.1,1,0.2
        c0.3,0.1,0.5,0.3,0.7,0.5s0.3,0.5,0.4,0.8s0.1,0.7,0.1,1.1v4.5h-0.7v-4.5c0-0.7-0.1-1.2-0.4-1.5c-0.3-0.4-0.8-0.6-1.4-0.6
        c-0.5,0-0.9,0.1-1.3,0.4s-0.7,0.6-1.1,1v5.2H186.8z"/>
    <path class="moji" d="M196.3,101.7c-0.5,0-0.8-0.1-1.1-0.4c-0.3-0.3-0.4-0.7-0.4-1.2v-4.8h-1c-0.1,0-0.1,0-0.1,0s0-0.1,0-0.1v-0.3l1.2-0.1
        l0.2-2.5c0,0,0-0.1,0.1-0.1c0,0,0.1,0,0.1,0h0.3v2.7h2.2v0.5h-2.2v4.7c0,0.2,0,0.4,0.1,0.5c0,0.1,0.1,0.3,0.2,0.3
        c0.1,0.1,0.2,0.2,0.3,0.2s0.2,0.1,0.4,0.1c0.2,0,0.3,0,0.4-0.1c0.1,0,0.2-0.1,0.3-0.2c0.1-0.1,0.2-0.1,0.2-0.2
        c0.1,0,0.1-0.1,0.1-0.1c0,0,0.1,0,0.1,0.1l0.2,0.3c-0.2,0.2-0.4,0.4-0.7,0.5S196.6,101.7,196.3,101.7z"/>
    <path class="moji" d="M208.3,91.7v0.6h-5.2v4h4.3v0.6h-4.3v4.1h5.2v0.6h-5.9v-9.9H208.3z"/>
    <path class="moji" d="M210.4,101.6v-7h0.4c0.1,0,0.2,0.1,0.2,0.2l0.1,1c0.3-0.4,0.7-0.7,1.1-1c0.4-0.2,0.9-0.4,1.4-0.4c0.4,0,0.7,0.1,1,0.2
        c0.3,0.1,0.5,0.3,0.7,0.5s0.3,0.5,0.4,0.8s0.1,0.7,0.1,1.1v4.5h-0.7v-4.5c0-0.7-0.1-1.2-0.4-1.5c-0.3-0.4-0.8-0.6-1.4-0.6
        c-0.5,0-0.9,0.1-1.3,0.4s-0.7,0.6-1.1,1v5.2H210.4z"/>
    <path class="moji" d="M222.9,101.6c-0.1,0-0.2-0.1-0.2-0.2l-0.1-1.1c-0.3,0.4-0.7,0.8-1.1,1c-0.4,0.2-0.9,0.4-1.4,0.4c-0.9,0-1.5-0.3-2-0.9
        c-0.5-0.6-0.7-1.5-0.7-2.7c0-0.5,0.1-1,0.2-1.4c0.1-0.4,0.3-0.8,0.6-1.1s0.6-0.6,1-0.8c0.4-0.2,0.8-0.3,1.3-0.3
        c0.5,0,0.9,0.1,1.2,0.3c0.3,0.2,0.6,0.4,0.9,0.8v-4.1h0.7v10.2H222.9z M220.3,101.1c0.5,0,0.9-0.1,1.3-0.4c0.4-0.2,0.7-0.6,1-1
        v-3.7c-0.3-0.4-0.6-0.7-0.9-0.8c-0.3-0.2-0.7-0.2-1.1-0.2s-0.8,0.1-1.1,0.2s-0.6,0.4-0.8,0.6c-0.2,0.3-0.4,0.6-0.5,1
        c-0.1,0.4-0.2,0.8-0.2,1.3c0,1,0.2,1.8,0.6,2.3C219,100.9,219.6,101.1,220.3,101.1z"/>
    <path class="moji" d="M236.9,96.6c0,0.8-0.1,1.5-0.3,2.1s-0.6,1.1-1,1.6s-0.9,0.8-1.5,1c-0.6,0.2-1.2,0.3-1.9,0.3h-3.6v-9.9h3.6
        c0.7,0,1.3,0.1,1.9,0.3c0.6,0.2,1.1,0.6,1.5,1c0.4,0.4,0.7,1,1,1.6S236.9,95.9,236.9,96.6z M236.2,96.6c0-0.7-0.1-1.3-0.3-1.8
        c-0.2-0.5-0.5-1-0.8-1.4s-0.8-0.7-1.3-0.9c-0.5-0.2-1-0.3-1.6-0.3h-2.9v8.7h2.9c0.6,0,1.1-0.1,1.6-0.3c0.5-0.2,0.9-0.5,1.3-0.9
        c0.3-0.4,0.6-0.8,0.8-1.4C236.1,97.9,236.2,97.3,236.2,96.6z"/>
    <path class="moji" d="M241.5,94.5c0.4,0,0.8,0.1,1.1,0.2s0.6,0.3,0.9,0.6s0.4,0.6,0.6,1s0.2,0.8,0.2,1.3c0,0.1,0,0.2,0,0.2c0,0-0.1,0.1-0.1,0.1
        h-5V98c0,0.5,0.1,1,0.2,1.4c0.1,0.4,0.3,0.7,0.5,1c0.2,0.3,0.5,0.5,0.8,0.6c0.3,0.1,0.7,0.2,1.1,0.2c0.3,0,0.7,0,0.9-0.1
        c0.3-0.1,0.5-0.2,0.6-0.3c0.2-0.1,0.3-0.2,0.4-0.3s0.2-0.1,0.2-0.1c0.1,0,0.1,0,0.1,0.1l0.2,0.2c-0.1,0.1-0.3,0.3-0.4,0.4
        s-0.4,0.2-0.6,0.3c-0.2,0.1-0.5,0.2-0.7,0.2c-0.3,0.1-0.5,0.1-0.8,0.1c-0.5,0-0.9-0.1-1.3-0.2c-0.4-0.2-0.7-0.4-1-0.7
        s-0.5-0.7-0.7-1.2c-0.2-0.5-0.2-1-0.2-1.6c0-0.5,0.1-1,0.2-1.4c0.1-0.4,0.3-0.8,0.6-1.1c0.3-0.3,0.6-0.5,1-0.7
        C240.6,94.6,241,94.5,241.5,94.5z M241.5,95c-0.4,0-0.7,0.1-1,0.2s-0.5,0.3-0.7,0.5c-0.2,0.2-0.4,0.5-0.5,0.8s-0.2,0.6-0.3,1h4.6
        c0-0.4-0.1-0.7-0.2-1s-0.2-0.5-0.4-0.8c-0.2-0.2-0.4-0.4-0.7-0.5C242.2,95.1,241.9,95,241.5,95z"/>
    <path class="moji" d="M248.5,101.6h-0.6l-2.9-7h0.5c0.1,0,0.1,0,0.2,0.1c0,0,0.1,0.1,0.1,0.1l2.3,5.5c0,0.1,0.1,0.2,0.1,0.3s0,0.2,0.1,0.3
        c0-0.1,0-0.2,0.1-0.3c0-0.1,0.1-0.2,0.1-0.3l2.3-5.5c0-0.1,0.1-0.1,0.1-0.1c0,0,0.1,0,0.1,0h0.5L248.5,101.6z"/>
    <path class="moji" d="M255.3,94.5c0.4,0,0.8,0.1,1.1,0.2c0.3,0.1,0.6,0.3,0.9,0.6c0.2,0.3,0.4,0.6,0.6,1s0.2,0.8,0.2,1.3c0,0.1,0,0.2,0,0.2
        c0,0-0.1,0.1-0.1,0.1h-5V98c0,0.5,0.1,1,0.2,1.4s0.3,0.7,0.5,1c0.2,0.3,0.5,0.5,0.8,0.6c0.3,0.1,0.7,0.2,1.1,0.2
        c0.4,0,0.7,0,0.9-0.1s0.5-0.2,0.6-0.3s0.3-0.2,0.4-0.3s0.2-0.1,0.2-0.1c0.1,0,0.1,0,0.1,0.1l0.2,0.2c-0.1,0.1-0.3,0.3-0.4,0.4
        c-0.2,0.1-0.4,0.2-0.6,0.3s-0.5,0.2-0.7,0.2c-0.3,0.1-0.5,0.1-0.8,0.1c-0.5,0-0.9-0.1-1.3-0.2c-0.4-0.2-0.7-0.4-1-0.7
        c-0.3-0.3-0.5-0.7-0.7-1.2c-0.2-0.5-0.2-1-0.2-1.6c0-0.5,0.1-1,0.2-1.4c0.1-0.4,0.3-0.8,0.6-1.1s0.6-0.5,1-0.7
        C254.3,94.6,254.8,94.5,255.3,94.5z M255.3,95c-0.4,0-0.7,0.1-1,0.2s-0.5,0.3-0.7,0.5c-0.2,0.2-0.4,0.5-0.5,0.8
        c-0.1,0.3-0.2,0.6-0.3,1h4.6c0-0.4-0.1-0.7-0.2-1s-0.2-0.5-0.4-0.8c-0.2-0.2-0.4-0.4-0.7-0.5C255.9,95.1,255.6,95,255.3,95z"/>
    <path class="moji" d="M260.6,91.4v10.2H260V91.4H260.6z"/>
    <path class="moji" d="M265.8,94.5c0.5,0,0.9,0.1,1.3,0.3c0.4,0.2,0.7,0.4,1,0.7s0.5,0.7,0.6,1.1c0.1,0.4,0.2,0.9,0.2,1.5s-0.1,1-0.2,1.5
        s-0.3,0.8-0.6,1.1s-0.6,0.6-1,0.7s-0.8,0.3-1.3,0.3c-0.5,0-0.9-0.1-1.3-0.3s-0.7-0.4-1-0.7c-0.3-0.3-0.5-0.7-0.6-1.1
        s-0.2-0.9-0.2-1.5s0.1-1,0.2-1.5c0.1-0.4,0.3-0.8,0.6-1.1c0.3-0.3,0.6-0.6,1-0.7C264.8,94.6,265.3,94.5,265.8,94.5z M265.8,101.2
        c0.4,0,0.8-0.1,1.1-0.2s0.6-0.3,0.8-0.6c0.2-0.3,0.4-0.6,0.5-1c0.1-0.4,0.2-0.8,0.2-1.3c0-0.5-0.1-0.9-0.2-1.3
        c-0.1-0.4-0.3-0.7-0.5-1c-0.2-0.3-0.5-0.5-0.8-0.6s-0.7-0.2-1.1-0.2c-0.4,0-0.8,0.1-1.1,0.2s-0.6,0.4-0.8,0.6
        c-0.2,0.3-0.4,0.6-0.5,1c-0.1,0.4-0.2,0.8-0.2,1.3c0,0.5,0.1,0.9,0.2,1.3c0.1,0.4,0.3,0.7,0.5,1c0.2,0.3,0.5,0.5,0.8,0.6
        S265.3,101.2,265.8,101.2z"/>
    <path class="moji" d="M270.7,104v-9.4h0.4c0.1,0,0.1,0,0.1,0c0,0,0.1,0.1,0.1,0.1l0.1,1.1c0.3-0.4,0.7-0.8,1.1-1s0.9-0.4,1.4-0.4
        c0.9,0,1.5,0.3,2,0.9c0.5,0.6,0.7,1.5,0.7,2.7c0,0.5-0.1,1-0.2,1.4s-0.3,0.8-0.6,1.1c-0.3,0.3-0.6,0.6-0.9,0.8
        c-0.4,0.2-0.8,0.3-1.3,0.3c-0.5,0-0.9-0.1-1.2-0.3s-0.6-0.4-0.9-0.8v3.4H270.7z M273.6,95c-0.5,0-0.9,0.1-1.3,0.4
        c-0.4,0.2-0.7,0.6-1,1v3.7c0.3,0.4,0.6,0.7,0.9,0.8c0.3,0.2,0.7,0.2,1.1,0.2c0.4,0,0.8-0.1,1.1-0.2c0.3-0.1,0.6-0.4,0.8-0.6
        c0.2-0.3,0.4-0.6,0.5-1c0.1-0.4,0.2-0.8,0.2-1.3c0-1-0.2-1.8-0.6-2.3C274.9,95.3,274.3,95,273.6,95z"/>
    <path class="moji" d="M280.8,94.5c0.4,0,0.8,0.1,1.1,0.2s0.6,0.3,0.9,0.6s0.4,0.6,0.6,1s0.2,0.8,0.2,1.3c0,0.1,0,0.2,0,0.2c0,0-0.1,0.1-0.1,0.1
        h-5V98c0,0.5,0.1,1,0.2,1.4c0.1,0.4,0.3,0.7,0.5,1c0.2,0.3,0.5,0.5,0.8,0.6c0.3,0.1,0.7,0.2,1.1,0.2c0.3,0,0.7,0,0.9-0.1
        c0.3-0.1,0.5-0.2,0.6-0.3c0.2-0.1,0.3-0.2,0.4-0.3s0.2-0.1,0.2-0.1c0.1,0,0.1,0,0.1,0.1l0.2,0.2c-0.1,0.1-0.3,0.3-0.4,0.4
        s-0.4,0.2-0.6,0.3c-0.2,0.1-0.5,0.2-0.7,0.2c-0.3,0.1-0.5,0.1-0.8,0.1c-0.5,0-0.9-0.1-1.3-0.2c-0.4-0.2-0.7-0.4-1-0.7
        s-0.5-0.7-0.7-1.2c-0.2-0.5-0.2-1-0.2-1.6c0-0.5,0.1-1,0.2-1.4c0.1-0.4,0.3-0.8,0.6-1.1c0.3-0.3,0.6-0.5,1-0.7
        C279.9,94.6,280.3,94.5,280.8,94.5z M280.8,95c-0.4,0-0.7,0.1-1,0.2s-0.5,0.3-0.7,0.5c-0.2,0.2-0.4,0.5-0.5,0.8s-0.2,0.6-0.3,1h4.6
        c0-0.4-0.1-0.7-0.2-1s-0.2-0.5-0.4-0.8c-0.2-0.2-0.4-0.4-0.7-0.5C281.4,95.1,281.1,95,280.8,95z"/>
    <path class="moji" d="M285.3,101.6v-7h0.3c0.1,0,0.1,0,0.2,0c0,0,0.1,0.1,0.1,0.2l0.1,1.5c0.2-0.6,0.5-1,0.9-1.3c0.4-0.3,0.8-0.5,1.4-0.5
        c0.2,0,0.4,0,0.6,0.1c0.2,0,0.3,0.1,0.5,0.2l-0.1,0.5c0,0.1-0.1,0.1-0.1,0.1c0,0-0.1,0-0.1,0c-0.1,0-0.1,0-0.2-0.1
        c-0.1,0-0.2,0-0.3-0.1s-0.2,0-0.4,0c-0.5,0-1,0.2-1.3,0.5c-0.3,0.3-0.6,0.8-0.8,1.4v4.5H285.3z"/>
</g>
</svg>
