<?xml version="1.0" encoding="utf-8"?>
<!-- Generator: Adobe Illustrator 21.0.2, SVG Export Plug-In . SVG Version: 6.00 Build 0)  -->
<svg version="1.1" id="_x31_" xmlns="http://www.w3.org/2000/svg" xmlns:xlink="http://www.w3.org/1999/xlink" x="0px" y="0px"
	 viewBox="0 0 707.9 736.4" style="enable-background:new 0 0 707.9 736.4;" xml:space="preserve">
<style type="text/css">
	.st0{fill:#231815;}
	.st1{fill:#231815;stroke:#030000;stroke-miterlimit:10;}
</style>
<path class="st0" d="M703.2,350.3c1.5-34.1-1.2-68.3-10.1-101.5c-2.4-8.9-5.3-17.6-8.7-26.1c-4.7-19.2-11.6-37.8-21-55.3
	c-13.4-32.1-33.5-61-62.4-81.2c-26.7-18.7-58.2-28.4-90.3-33c-6.8-2.2-13.7-4.2-20.6-6.1c-21.9-10.3-45-18.4-69.2-23.8
	c-21.9-5-44.1-7.5-66.4-8.1c13.9-1.5,27.8-2.4,41.7-2.8c0.4,0-0.3-4.3-1.4-4.3c-24.8,0.7-49.4,3.2-73.6,7.5
	c-30,1.6-60,6.4-89.4,13.1c-16.6,3.8-33,8.3-49.6,12.3c-2.3,0.6-0.3,4,1.5,3.5c35.4-8.6,70.3-17.3,105.9-22.2
	c-8.9,2.2-17.8,4.8-26.5,7.6c-27.7,4.6-54.6,12.6-79.9,25c-38.7,19-71,48.6-94.5,84.6C64.2,166,43.3,195.8,27.3,228
	c-8.4,17-15.4,34.8-19.9,53.2c-0.3,1.2,1.6,4,1.6,4.1c11.5-47,37.6-90.5,69-127.5c-6.4,11.7-12,23.9-16.9,36.3
	c-0.5,0.8-0.9,1.6-1.4,2.4c-23.3,41.3-37.7,87.9-41.9,135.2c-2.5,8.7-5.3,17.4-6.8,26.2c-2.9,17-1.3,35,1.8,51.8
	c3.1,16.7,9.1,32.6,13.1,49.1c2.2,8.9,4.8,17,9,24.4c1,5.8,2.2,11.5,3.5,17.2c0.5,4.3,1.1,8.4,2,12.5C21.5,475.3,8.9,433.8,0,392.5
	c0.4,1.8-2.2,7.3-1.5,10.4C8.8,450.5,23.9,498.5,48,540.6c0,0.1,0.1,0.3,0.1,0.4c4.2,22.5,10.9,44.5,21.6,64.6
	c18.2,34,48.7,57.1,83.5,72.4c1.9,0.8,3.8,1.6,5.7,2.4c4,4.9,8.1,9.7,12.3,14.4c6.6,7.5,13.4,14.9,21.1,21.4
	c10,8.4,23,13.4,35.8,15.2c8.1,1.1,16.3,0.7,24.4-0.6c39.1,13.5,81.5,12.9,122.3,7.6c17.4-2.3,34.6-5.4,51.8-8.7
	c14.8,0.5,29.7,0.2,44.4-1.3c22.5-2.3,44.8-7.8,65.5-17.1c21.1-9.5,39.9-23.3,56-39.7c5.5-5.6,10.7-11.5,15.6-17.7
	c1.9-2.1,3.8-4.3,5.6-6.5c11.2-10.5,21.5-21.9,30.8-34.2c22.1-29.4,37.1-63,45.8-98.3c4.7-14,8.5-28.4,11.4-43
	C709.6,431.6,709.8,390.4,703.2,350.3z M700.1,305.7c0.8,10.9,1,21.8,0.8,32.7c-2.1-10.5-4.7-20.8-7.7-31.1
	c0.1-9.9-0.1-19.8-0.7-29.7c-0.7-12.2-2.1-24.4-4.3-36.5C694.7,262,698.6,283.8,700.1,305.7z M693,318.2c0-0.6,0-1.2,0.1-1.8
	c2.1,7.9,4,15.9,5.5,24c0.7,4,1.4,8,1.9,12c-0.5,9.9-1.4,19.9-2.6,29.8C698.3,360.7,696.6,339.3,693,318.2z M141.9,633.1
	c0.9,0.4,1.7,0.8,2.6,1.3c22.5,15.8,44.7,32.1,66.8,48.4c-2.6-0.6-5.1-1.2-7.7-1.9c-11.5-3.9-22.8-8.2-33.7-13.3
	c-0.5-0.2-1-0.5-1.4-0.7C158.9,656.3,150.1,644.9,141.9,633.1z M161,667.6c-1.4-0.5-2.7-1.1-4.1-1.6c-1.3-1.3-2.6-2.6-3.8-3.9
	c1.5,0.8,3,1.6,4.5,2.4C158.7,665.5,159.8,666.6,161,667.6z M92.4,576.9c-5.5-17.9-10.4-36-15.2-54.1c12.7,28.9,26.7,57.2,42.9,84.4
	c1.2,2,2.5,4.1,3.7,6.1c-3.1-2.1-6.2-4.2-9.3-6.3c-0.6-0.4-1.1-0.6-1.6-0.8c-0.4-0.3-0.7-0.6-1.1-0.9
	C105,596.1,98.5,586.6,92.4,576.9z M102.6,614.2c-2.8-4-5.4-8.1-7.9-12.4c0.8,0.8,1.6,1.6,2.4,2.3
	C98.8,607.6,100.7,610.9,102.6,614.2z M93.6,588.3c-0.4-0.9-0.7-1.7-1.1-2.6c0.2,0.2,0.3,0.5,0.5,0.7
	C93.2,587.1,93.4,587.7,93.6,588.3z M86.7,581.4c-1.1-1.2-2.1-2.3-3.2-3.5c-0.5-1.2-0.9-2.4-1.4-3.6C83.6,576.6,85.1,579,86.7,581.4
	z M79.5,566.4c-0.5-1.4-0.9-2.9-1.3-4.4c1.2,2.2,2.5,4.4,3.8,6.5c0.2,0.6,0.4,1.2,0.6,1.8c0.3,1,0.7,1.9,1.1,2.9
	C82.3,571,80.9,568.7,79.5,566.4z M83.8,562.6c-5.8-17.3-10.4-34.9-14.4-52.2c-0.7-3-1.4-6-2-9c-0.1-0.6-0.1-1.3-0.2-1.9
	c1.3,3.1,2.6,6.2,3.9,9.3c3.3,12.4,6.6,24.8,10,37.2c2.1,7.8,4.3,15.5,6.6,23.3C86.4,567.1,85,564.9,83.8,562.6z M74.9,546.7
	c-0.4-0.7-0.7-1.4-1.1-2.1c-0.4-1.8-0.8-3.7-1.1-5.6C73.4,541.6,74.1,544.1,74.9,546.7z M62.3,451.1c0,5.8,0.1,11.7,0.3,17.6
	c-1.7-6.1-3.3-12.3-5-18.4c-2.1-12.8-3.9-25.6-5.5-38.4c-1.3-9.9-2.3-19.8-3.2-29.8c1.2-18.3,3-36.5,5.7-54.7
	c7.2-26.1,18.1-51.4,30.8-75c0-0.1,0.1-0.2,0.1-0.2c-2.2,7.3-4.3,14.6-6.1,22c-6.2,25.1-10,50.7-12.6,76.4
	C63.6,383.9,62.1,417.6,62.3,451.1z M62,474.6c-0.1-0.2-0.1-0.4-0.2-0.6c-0.1-0.3-0.1-0.5-0.1-0.8C61.7,473.7,61.9,474.2,62,474.6z
	 M41.6,462.1c-0.7-2.6-1.4-5.2-2-7.8c-0.2-7.3-0.2-14.6-0.2-21.8c0-5.4,0.1-10.7,0.1-16.1c0.7,3.2,1.5,6.3,2.3,9.5
	c-0.3,10.3-0.4,20.7-0.3,31C41.5,458.7,41.6,460.4,41.6,462.1z M40.5,472c-0.1-0.2-0.2-0.3-0.3-0.5c0-0.2,0-0.5,0-0.7
	C40.3,471.2,40.4,471.6,40.5,472z M39.1,392.7c-1.4-8.5-2.5-17-3.1-25.6c0.2-1.5,0.5-3,0.7-4.5c1.7-9.5,4-18.9,6.7-28.1
	c0,0.5,0,1,0,1.5c-1.8,14.8-2.9,29.7-3.7,44.7C39.4,384.7,39.2,388.7,39.1,392.7z M38.9,466.3c0-0.2-0.1-0.4-0.1-0.6
	c0,0.2,0.1,0.3,0.1,0.5C38.9,466.2,38.9,466.2,38.9,466.3z M42.6,331.3c-2.9,9.4-5.2,18.9-7.1,28.6c-0.2-4.7-0.4-9.3-0.3-14
	c0.2-24.3,4.6-48.5,13.3-71.2c-3.2,17.8-4.8,35.9-5.1,54.1C43.2,329.6,42.9,330.4,42.6,331.3z M691.4,376.7
	c-0.7,30.4-4.6,60.8-10.6,90.6c-2,7.6-4.2,15.1-6.5,22.7c9.8-37.9,14.1-77.3,15.5-116.2c0.1-2.3,0.1-4.7,0.2-7
	C690.5,370.1,691,373.4,691.4,376.7z M690.4,344.4c0-2.7,0-5.3,0-8c0.2,2.2,0.3,4.4,0.4,6.5c-0.1,0.9-0.2,1.8-0.2,2.7
	C690.5,345.2,690.5,344.8,690.4,344.4z M693.4,393.5c0.4,3.6,0.7,7.2,0.9,10.8c-0.1,1.8-0.3,3.5-0.5,5.3c-1.2,7-2.6,13.9-4.1,20.9
	C691.4,418.1,692.6,405.8,693.4,393.5z M692,312.3c0.1,0.5,0.3,1,0.4,1.5c0,0.2,0,0.4,0,0.6C692.3,313.7,692.1,313,692,312.3z
	 M693.7,346.9c0.1,1.1,0.2,2.2,0.3,3.3c0.7,7.6,1,15.1,1.2,22.6c-0.3-2.3-0.7-4.7-1.1-7C694.2,359.5,694,353.2,693.7,346.9z
	 M581.9,638.3c-7.2,7.4-14.8,14.3-22.7,20.8c-10.5,6.6-21.5,12.4-32.8,17.4c-3.1,1.3-6.2,2.6-9.3,3.9c34.1-18.3,63.1-44.9,85.7-76.8
	c2.5-2,5.1-4,7.5-6.1C601.9,611.7,592.5,625.4,581.9,638.3z M598.9,624.1c-0.4,0.8-0.9,1.7-1.3,2.5c-3.1,3.7-6.3,7.4-9.6,10.9
	c-0.4,0.4-0.8,0.7-1.3,1.1c2.2-2.7,4.4-5.5,6.6-8.3C595.2,628.3,597.1,626.2,598.9,624.1z M585.7,640c-0.1,0.1-0.1,0.1-0.2,0.2
	c0,0,0.1-0.1,0.1-0.1C585.6,640.1,585.7,640,585.7,640z M608.6,595c10.9-16.5,20.3-34,28.4-52.1c-6.5,16-13.8,31.6-22.1,46.6
	C612.8,591.4,610.7,593.2,608.6,595z M626.5,581.8c0.7-0.8,1.4-1.5,2.1-2.3c-2.2,4.2-4.5,8.4-6.9,12.5c-1.7,2.3-3.5,4.7-5.3,7
	C619.6,593.2,623,587.4,626.5,581.8z M631.4,576.3c3.4-4.1,6.6-8.2,9.6-12.5c-4.5,7.2-9.2,14.2-14.1,21.1
	C628.5,582,630,579.1,631.4,576.3z M630.1,569.9c16-33,27.7-68.4,36.9-103.4c0.6-2.4,1.2-4.8,1.8-7.2c4.8-19.4,8.9-39.3,11.8-59.4
	c0.1,1.2,0.2,2.3,0.2,3.5c0.1,3.4,0.2,6.9,0.1,10.3c-3.4,18-7.5,35.8-11.9,53.5c-7.7,30.8-17.3,62.3-30.5,91.9
	C635.5,562.5,632.7,566.2,630.1,569.9z M669.3,287.7c-0.1-0.4-0.6-2.1-1.2-2.3c-1.2-3.4-2.2-6.8-3.4-10.1
	c-8.7-23.7-18.2-47.5-31-69.4c-5-8.6-10.8-18-19.1-23.8c-15-10.6-30.4-20.8-45.1-31.9c-21-15.7-41.3-32.3-61.8-48.8
	c15.4,6.9,30.3,14.8,44.8,23.3c13.2,7.7,26,15.9,37.9,25.5c20,16.2,37.4,35.6,52.3,56.6c0.2,0.3,0.4,0.6,0.6,0.8
	c5.2,11.8,9.9,23.7,14.2,35.6c8.3,22.9,15.3,46.2,21.4,69.7c0.3,1,0.5,2,0.8,3c1.1,17.9,0.8,35.8-0.6,53.8c-0.6-5-1.3-10-1.9-15
	c-2.8-21.1-6.6-42.3-8.4-63.5c0-0.1,0-0.2,0-0.3c0.3,1,0.6,2.6,1.4,3.4c0.3,0.3,0.5-0.3,0.6-0.5C671.1,292,669.9,289.4,669.3,287.7z
	 M595.6,137.3c10.2,9.8,19.7,20.5,28.3,31.7c5.6,9.8,10.7,19.9,15.4,30.1c-12.2-16.3-26-31.3-41.2-44.7c-9.3-8.1-19.2-15.4-29.6-22
	c-19.2-12.2-39.2-23.1-59.9-32.5c-2.1-0.9-4.1-1.8-6.2-2.7c-0.8-0.6-1.5-1.2-2.3-1.8c-6.4-5.1-12.9-10.3-19.5-15.2
	C522.3,91,562.5,109.5,595.6,137.3z M473.5,75c-1.1-0.8-2.2-1.6-3.3-2.3c10.1,2.4,20,5.2,29.8,8.3c11.6,3.7,23.1,8,34.3,12.9
	c4.4,2.3,8.8,4.6,13.1,7.1C524,89.3,499,80.9,473.5,75z M667.8,248.4c3.9,12.8,6.8,26,8.8,39.3c0.1,0.6,0.1,1.1,0.2,1.7
	c-5.9-20.6-12.5-41.2-20.3-61.3C660.5,234.7,664.2,241.5,667.8,248.4z M652.5,218.1c-3-7.3-6.2-14.6-9.6-21.7
	c6.9,11.1,13.1,22.5,18.7,34.3c0.9,2.4,1.8,4.9,2.7,7.3C660.6,231.3,656.7,224.6,652.5,218.1z M667.9,229
	c-12.3-28.7-29.2-55.4-50.3-78.5c-0.6-0.9-1.1-1.8-1.7-2.7c2.6,2.5,5.1,5.1,7.6,7.8c3.8,6,8.6,11.3,13.7,16.3
	C650.2,189.4,660.4,208.7,667.9,229z M648,182.6c6.5,6.7,12.4,13.9,16.5,22.6c4.7,9.7,6.4,19.9,7.9,30.3
	C666.5,216.7,658.3,199,648,182.6z M680.9,281c0.1,0.4,0.3,0.9,0.4,1.3c0.4,2.9,0.8,5.9,1.2,8.8C682,287.8,681.4,284.4,680.9,281z
	 M680.3,446.3c0.6-6.1,1-12.2,1.3-18.3c0.3-5.3,0.4-10.5,0.4-15.8c1.4-7.2,2.6-14.4,3.8-21.6C684.8,409.2,683.1,427.8,680.3,446.3z
	 M686.5,376.2c-0.1,2.3-0.2,4.5-0.3,6.8c-1.2,8.4-2.6,16.7-4.2,25.1c-0.1-4.7-0.3-9.4-0.6-14.1c2.3-17,3.6-34,3.9-51.1
	c0-0.4,0-0.9,0.1-1.3c0.6,2.7,1.1,5.5,1.6,8.3C687,358.6,686.8,367.4,686.5,376.2z M685.7,323c-0.1-10.3-0.7-20.6-1.7-30.9
	c0.7,2.5,1.3,5,1.9,7.5c0,0.1,0,0.2,0,0.3c0.5,9.5,0.9,18.9,1,28.4C686.5,326.5,686.1,324.7,685.7,323z M678.3,257.2
	c-0.9-3.8-1.8-7.7-2.8-11.5c-2-12.3-3-24.6-7.5-36.4c-4.6-12-12.5-21.8-21.7-30.6c-0.8-0.8-1.6-1.5-2.3-2.2
	c-1.1-1.6-2.2-3.2-3.3-4.8c1.4,0.3,2.7-0.6,1.4-2.1c-15.7-19.2-32.7-37.3-50.9-53.9c-1.8-2-3.6-4-5.5-5.9
	c20.1,12.2,38.5,27,54.4,44.6c11.6,12.9,21.5,27.1,29.6,42.1c6.8,22.9,10.9,46.7,13.5,70c0.5,4.2,0.9,8.5,1.3,12.7
	C682.6,271.7,680.6,264.4,678.3,257.2z M588.8,119.2c-13.6-10-28.2-18.5-43.3-25.8c-9.6-5.4-19.5-10.3-29.7-14.5
	c18.9,5.7,37.4,13.1,55,22.3c0.1,0,0.1,0.1,0.2,0.1c0.9,0.7,1.7,1.4,2.5,2.1C578.8,108.5,583.9,113.8,588.8,119.2z M486.6,68.3
	c-12.4-3.8-25.1-6.9-37.9-9.3c-1.3-0.8-2.6-1.5-4-2.2c-3.1-1.7-6.4-3.2-9.6-4.7c2.3-0.1,4.6-0.2,6.9-0.2c2.7,0,5.4,0.1,8,0.3
	c22.5,1.1,44.9,5.6,65.8,14.1c7.1,2.9,14,6.3,20.7,10.1c8,5.2,15.8,10.7,23.5,16.5C536.7,81.8,511.8,73.8,486.6,68.3z M438.7,57.3
	c-8.1-1.2-16.3-2.2-24.4-2.9c-3.1-0.3-6.3-0.4-9.4-0.6c7.6-0.6,15.2-1.1,22.8-1.5C431.5,53.9,435.1,55.5,438.7,57.3z M462.1,70.8
	c1.3,0.8,2.5,1.7,3.8,2.5c-4.4-0.9-8.9-1.8-13.3-2.6c-29.2-5.1-58.7-6.9-88.3-6.9c-2.6,0-5.2,0-7.8,0.1c15.6-1.7,31.3-2.5,47.1-2.3
	C423.2,63.4,442.9,66.5,462.1,70.8z M398,67.6c25.3,1.4,50.4,4.9,75,10.7c1.2,0.9,2.4,1.7,3.6,2.6c5.6,4.1,11,8.3,16.4,12.5
	c-30.6-12.3-62.8-20.7-95.7-23.7c-25.8-2.4-51.5-1-76.6,3.7c6.6-2.2,13.3-4.3,20-6.3C359.8,66.2,379,66.5,398,67.6z M326.9,65
	c-6.2,0.4-12.4,1-18.6,1.6c0.1,0,0.1,0,0.2,0c1.4-0.3,2.9-0.5,4.3-0.8c8.8-1.3,17.6-2.3,26.5-3C335.1,63.5,331,64.2,326.9,65z
	 M71.9,231.2c1.7-2.4,3.4-4.8,5.2-7.2c-7.7,18.1-13.7,37-18.4,56c-1.6,6.7-3.1,13.4-4.4,20.2c-2.3,5.3-4.5,10.6-6.5,16.1
	c3.9-22.7,9.3-45.1,17.1-66.9C67,243.2,69.3,237.2,71.9,231.2z M67.5,230c2.4-4,4.8-7.9,7.4-11.8c-0.6,1.3-1.1,2.6-1.7,3.8
	C71.2,224.7,69.3,227.3,67.5,230z M62.2,286.6c6.7-13.6,14.3-26.9,22.7-39.6c-5.7,10.4-11,21-15.8,31.8c-4,9.2-7.8,18.6-11.2,28.3
	C59.2,300.2,60.6,293.4,62.2,286.6z M63.7,280.4c1.1-4.6,2.3-9.2,3.6-13.8c5.4-19.4,12.4-38.5,21.3-56.6c2.7-3.1,5.4-6.1,8.2-9
	c6-6.3,12.3-12.3,18.9-18.1c-9.9,16.6-18,34.3-24.5,52.5C81,249.8,71.7,264.8,63.7,280.4z M80.1,213.2c1.5-3,3-6,4.6-8.9
	c1.6-2.2,3.3-4.3,5-6.4c-1.9,3.4-3.7,6.9-5.4,10.4C82.9,209.9,81.5,211.5,80.1,213.2z M124.8,160.3c7.1-6.6,14.5-12.8,22.1-18.7
	c-1.3,1.3-2.5,2.6-3.8,4c-7.2,7.9-13.6,16.3-19.6,25.1c-9.6,7.8-18.7,16-27.3,24.8c3.3-5.9,6.9-11.7,10.7-17.3
	C112.6,171.9,118.6,166,124.8,160.3z M118.7,161.8c5.9-7.3,12.2-14.3,19-20.9c23.2-22.5,50.6-38.8,80.2-50.4
	C200.4,98.9,184,109,169,121.2C151.1,133.2,134.2,146.8,118.7,161.8z M122.8,176.8c13-10.8,26.7-20.6,40.9-29.7
	c-3.4,3.1-6.8,6.2-10.1,9.4c-21.1,20.5-39.8,43.6-55.7,68.5C104.7,208.2,112.9,192,122.8,176.8z M182.1,135.9c0.5-0.3,1-0.6,1.5-0.9
	c3.2-1.9,6.4-3.7,9.7-5.5c-22.2,16.2-42.7,34.8-61.3,55.1C147.1,166.9,163.9,150.5,182.1,135.9z M185.8,128.8
	c-8,4.5-15.9,9.3-23.6,14.2c-10.5,6.7-20.9,13.9-30.9,21.6c7.6-10.3,16-20,25.3-29c2.2-2.1,4.5-4.2,6.8-6.2
	c36.4-25.5,77.4-44.6,120.2-56.5c1.2-0.2,2.4-0.4,3.6-0.6c6.4-1,12.8-1.9,19.3-2.6c-3.1,0.8-6.2,1.6-9.3,2.5
	C256.6,83.7,219,103.3,185.8,128.8z M312.1,71.7c-12.2,4.2-24.3,8.9-36.3,13.8c-13.9,4.9-27.4,10.9-40.5,17.8
	c-8.2,3.8-16.3,7.8-24.4,11.9C242,95.3,276.2,80.6,312.1,71.7z M277.5,69.7c-7.2,1.7-14.3,3.7-21.4,5.9
	c-25.8,6.3-50.8,15.7-73.8,28.5c-8.7,4.3-17.1,8.9-25.4,13.9c43.7-33.6,97.2-50.6,151.6-56.3C298.1,64,287.7,66.6,277.5,69.7z
	 M174.3,108.8c-19,11.5-36.5,25.6-51.7,42.3c-9.2,10.2-17.4,21.1-24.6,32.6c-1.5,1.7-3,3.5-4.4,5.3c16.3-26.4,36.7-50.1,61.4-69.4
	c0,0,0,0,0,0C161.3,115.7,167.8,112.1,174.3,108.8z M118.3,149c-14.7,17.1-27,36-37.1,56.1c-3.9,5.4-7.7,10.8-11.2,16.5
	c-3.3,5.3-6.4,10.6-9.3,16.1c4.4-13.6,10-26.8,17.1-39.4c11.9-21.2,27.6-40,45.9-55.9c1.3-1.1,2.5-2.2,3.8-3.2
	C124.3,142.3,121.2,145.6,118.3,149z M65.8,240.3c-6.3,17.1-11.4,34.6-15.2,52.3c-1.1,4.9-2,9.8-2.9,14.7
	c1.1-15.4,3.1-30.7,6.4-45.7C57.6,254.3,61.5,247.2,65.8,240.3z M46.9,323.4c1.8-5.4,3.8-10.7,6-16c-2.4,13.1-4.3,26.2-5.8,39.4
	c-0.1,0.3-0.1,0.6-0.2,0.9c-0.1-4.3-0.2-8.6-0.2-13C46.7,330.9,46.8,327.2,46.9,323.4z M47.7,404.9c0.6,5.3,1.2,10.5,1.9,15.8
	c-0.2-0.9-0.5-1.7-0.7-2.6c-0.6-2.2-1.1-4.4-1.5-6.6C47.5,409.3,47.6,407.1,47.7,404.9z M47.1,420.6c1.6,6.4,3.3,12.7,5.2,19.1
	c0.7,4.7,1.5,9.4,2.2,14c-2.8-8.3-5.3-16.7-7.6-25.1C47,425.9,47.1,423.3,47.1,420.6z M65.1,433.6C65.9,375.9,70,317,85.7,261.1
	c1.9-6.9,4.1-13.8,6.5-20.6c6.1-10.4,12.7-20.5,19.7-30.3c7.3-9,14.9-17.7,22.7-26.2c21.3-23,45.2-43.9,71.3-61.4
	c26.3-13.9,53.7-26.2,81.3-37.1c7.8-3.1,15.8-6.1,23.8-8.9c22.7-5,46-7.1,69.3-6.4c38.1,1.2,75.7,10.2,111,24.3
	c2.2,0.9,4.5,1.8,6.7,2.8c13.4,10.6,26.5,21.6,39.9,32.3c12.8,10.2,25.7,20.1,38.9,29.8c7.4,5.5,14.9,10.8,22.5,16.1
	c6.1,4.3,13,8,18.5,13c8,7.3,13.6,17.3,18.8,26.7c6.3,11.6,11.7,23.7,16.8,35.8c4.2,10.1,8.1,20.3,11.8,30.6
	c0.6,1.8,1.3,3.6,1.9,5.3c-0.2,1.3,0.1,2.8,0.2,3.8c0.2,3.3,0.7,6.7,1.1,10c2.9,23.8,6.6,47.4,9.5,71.2c0.2,1.4,0.3,2.7,0.5,4.1
	c-2.6,28.2-7.9,56.3-14.7,83.6c-1.5,5.9-3,11.8-4.7,17.7c-13.5,44.3-32.1,87.7-59.4,124.9c-16.8,12.6-35.5,22.6-54.8,30.9
	c-46.2,19.7-95.7,29.9-143.9,42.9c-5.8,1.6-11.5,3.2-17.3,4.8c4.3-1.7,8.5-3.3,12.8-4.9c3.8-1.4-2.2-8.7-5.5-7.5
	c-16.8,6.2-33.2,13.1-49.6,20.1c-12.2-2.3-24.3-5-36.2-7.7c-47.5-10.8-96-21.3-141.3-39.6c-10.3-7.4-20.6-14.6-30.9-21.8
	c-4.4-6.8-8.6-13.8-12.7-20.7c-18-31-33.3-63.7-47.1-96.7c-1.3-3.1-2.6-6.2-3.8-9.3c-1.1-4-2.2-8.1-3.3-12.1
	C65,465,64.9,449.2,65.1,433.6z M133.7,628.9c3.4,5,6.8,10,10.4,14.9c-0.8-0.9-1.6-1.7-2.5-2.6c-3.3-3.5-6.5-7.1-9.6-10.7
	c0.1-0.6,0.3-1.4,0.6-2.2C133,628.5,133.4,628.7,133.7,628.9z M105.6,611.9c7.7,10.2,15.4,20.4,23.2,30.5c-1.7-1.4-3.3-2.8-4.9-4.2
	c-6.9-8.2-13-17.1-18.4-26.4C105.5,611.8,105.5,611.8,105.6,611.9z M136,656.4c-0.2-0.1-0.3-0.2-0.5-0.3
	c-6.6-5.3-12.3-11.6-17.2-18.5C123.7,644.3,129.6,650.6,136,656.4z M135.8,647.8c-3.6-4.6-7.1-9.2-10.6-13.8
	c-1.6-2.1-3.2-4.2-4.8-6.3c3.9,4.8,7.9,9.6,12,14.2c2.7,3.1,5.4,6.1,8.1,9.1C139,650.1,137.4,648.9,135.8,647.8z M118.3,622.2
	c0.4,0.3,0.8,0.6,1.2,0.9c9.5,11.8,19.5,23.3,30.3,34c-1.1-0.6-2.2-1.3-3.2-2C136.8,644.5,127.4,633.5,118.3,622.2z M147.7,658.9
	c1.7,1.8,3.4,3.6,5.1,5.4c-0.2-0.1-0.3-0.2-0.5-0.2c-3.1-2.1-6.1-4.4-9-6.7c-0.6-0.8-1.2-1.6-1.8-2.3
	C143.5,656.3,145.6,657.7,147.7,658.9z M195.1,685.2c9.7,2.7,19.4,5.1,29.2,7.4c0.2,0.2,0.4,0.3,0.7,0.5
	C214.8,691.1,204.8,688.5,195.1,685.2z M230.2,697c1.8,1.3,3.6,2.7,5.4,4c-7.6-2-15.2-4-22.8-6.2c-3.2-0.9-6.5-1.9-9.7-2.8
	c-0.9-0.5-1.7-1-2.6-1.6C210.3,693.2,220.2,695.4,230.2,697z M177,682.2c0.7,0.7,1.3,1.3,2,2c-2.4-0.8-4.7-1.7-7-2.6c-1-1-2-2-2.9-3
	C171.7,679.8,174.4,681.1,177,682.2z M185.5,690.2c4.8,4.3,9.7,8.3,14.8,12.2c-4.7-1.7-9.1-4-13.1-7c-3.1-2.3-6.1-4.9-9-7.7
	C180.6,688.5,183,689.3,185.5,690.2z M199.1,696c6.3,3.8,12.8,7.3,19.4,10.5c-1.7-0.2-3.4-0.5-5-0.7c-0.5-0.1-0.9-0.2-1.4-0.3
	C207.6,702.5,203.3,699.3,199.1,696z M216.8,699.5c8.9,2.5,17.9,4.8,26.8,7.1c1.6,1,3.2,2,4.8,3c-4.2-0.6-8.4-1-12.6-1.4
	C229.3,705.6,223,702.7,216.8,699.5z M252.3,711.8c5.4,3,11,5.4,16.8,6.9c3.2,0.8,6.4,1.2,9.6,1.2c-1.3,0.5-2.5,0.9-3.8,1.3
	c-11.5-3-22.8-6.6-33.9-10.9C244.8,710.8,248.6,711.2,252.3,711.8z M251.8,705.1c-3.5-1.9-6.9-4.1-10.2-6.4
	c6.7,0.9,13.4,1.7,20.1,2.3c10.7,2.5,21.5,5,32.2,7.5c-4.4,1.6-8.9,2.8-13.5,3.4C270.9,709.7,261.3,707.5,251.8,705.1z M287.6,703.9
	c-1.6-0.4-3.2-0.8-4.9-1.2c2.2,0.2,4.5,0.3,6.7,0.4c4.4,0.7,8.9,1.3,13.3,1.9c-1.2,0.5-2.3,1-3.5,1.5
	C295.4,705.7,291.5,704.8,287.6,703.9z M309.6,712c4.4,0.9,8.8,1.9,13.2,2.7c21.5,4.7,43.3,8.8,65.2,11.6
	c-29.9-0.1-59.9-4.1-89.1-10.2C302.6,714.9,306.1,713.5,309.6,712z M297.4,698.9c-24.4-3.5-48.8-7.8-72.9-13.1
	c-1.5-1.2-3-2.3-4.5-3.4c-17-12.6-34.1-25.2-51.2-37.5c19.5,7.5,39.7,13.5,59.9,19c26.4,7.1,53.1,13.4,79.8,19.4
	c10,2.3,20.1,4.4,30.2,6.4c-8.7,3.7-17.4,7.5-26.1,11.3C307.5,700.3,302.4,699.6,297.4,698.9z M345.4,696.7c2.9-1.1,5.7-2.1,8.6-3.1
	c0.8-0.3,1.5-0.5,2.3-0.7c26.9,4.6,54.1,7.5,81.2,7.1c-19.7,2.5-39.5,3.5-59.2,3.4c-15.5-0.1-31-0.4-46.5-0.9
	C336.4,700.6,340.9,698.7,345.4,696.7z M359.6,691.8c46.2-15,93.9-24.5,140.3-38.9c32.7-10.1,65.4-23.1,93.6-42.6
	c-3.3,4.2-6.7,8.2-10.2,12.2c-33.3,37.8-77.3,63.1-126.2,74.5c-1.6,0.3-3.3,0.6-4.9,0.8C421.2,699.8,390.2,696.9,359.6,691.8z
	 M509.7,684.1c16.5-6.2,32.4-14,47.5-23.4c-7.4,6-15,11.6-22.9,16.9c-1.7,0.9-3.5,1.7-5.3,2.5c-13,5.9-26.6,10.1-40.5,13
	C495.8,690.5,502.9,687.5,509.7,684.1z M550.5,670.4c-21.6,18.3-46.2,32.5-72.9,41.9C503.6,701.7,528.2,687.6,550.5,670.4z
	 M575.8,651.1c3.7-3.3,7.2-6.6,10.6-10.2c2.6-2.7,5.1-5.4,7.5-8.2c0.3-0.3,0.6-0.6,1-0.9c-3.5,6.8-7,13.6-10.7,20.2
	c-22,21.6-47.8,38.8-76.3,50.4C533.3,689.6,556.2,672.2,575.8,651.1z M603.2,623.8c5.4-5.5,10.5-11.2,15.4-17.2
	c7.5-9.3,14.3-19.2,20.4-29.5c-11.1,20.8-24,40.5-39.3,58.5c-2,2.4-4,4.7-6.1,6.9C596.8,636.3,600,630.1,603.2,623.8z M604.3,621.6
	c0.9-1.7,1.7-3.3,2.6-5c3-4.1,5.9-8.4,8.7-12.7c12.1-15.5,23.2-31.8,33-48.8c-2.9,6-5.9,12-9.2,17.9
	C629.7,590.5,617.9,606.8,604.3,621.6z M647.5,549.7c-2.4,2.4-4.7,4.8-7,7.2c11.9-27.3,20.7-56,27.9-84.1c0.4-1.6,0.8-3.2,1.2-4.8
	c4.1-16.5,7.9-33.1,11.2-49.9c-0.3,12.1-1.3,24.3-2.8,36.2c-1.3,10.5-3,20.9-5.4,31.1c-0.8,3.5-1.7,6.9-2.6,10.4
	c-0.1,0.5-0.3,0.9-0.4,1.4c-0.1,0.5-0.3,0.9-0.4,1.4c-4.1,14.4-9.5,28.4-16.5,41.6C651.1,543.5,649.3,546.6,647.5,549.7z
	 M670.1,512.3c0.1-0.2,0.1-0.3,0.2-0.5c-1.6,6-3.3,12-5.1,18c-0.9,1.2-1.9,2.4-2.9,3.6C665,526.5,667.6,519.4,670.1,512.3z
	 M675.1,504.2c0.6-2.4,1.2-4.8,1.8-7.2c0.5-2.2,1.1-4.4,1.6-6.6c5.3-15,9.6-30.5,12.8-46.3c1.6-7.8,2.9-15.7,3.9-23.6
	c0.3,9.3,0.3,18.5,0,27.7c-2.9,12.1-5.7,24.3-9,36.3c-3,10.9-6.6,21.8-12.1,31.8c-1.3,2.4-2.7,4.7-4.2,7
	C671.7,516.9,673.4,510.5,675.1,504.2z M686.5,235.6c4.5,22.8,6.2,46.2,6,69.4c-1-3.4-2.1-6.8-3.3-10.2c-1.6-27.5-5-54.8-11.3-81.5
	C681.1,220.6,684,228,686.5,235.6z M682.4,218c-2.3-5.4-4.7-10.7-7.4-15.9c-1.3-4.7-2.6-9.3-4-13.9c-1.3-4.2-2.8-8.3-4.3-12.4
	C673.4,189.4,678.6,203.5,682.4,218z M540.8,62.4c38.5,10.7,72.5,32.3,96,64.8c2.5,3.4,4.7,6.9,7,10.4
	c-26.5-33.2-63-56.8-102.1-73.1c-4.3-1.8-8.7-3.5-13.1-5.1C532.7,60.3,536.7,61.2,540.8,62.4z M518.7,57.3
	c14.8,5.2,29.3,11.1,43.3,18c34.3,17,64.9,40.7,87.3,71.5c7.1,12.7,12.8,26.2,17.4,40.1c-14.8-24.4-33.9-46.1-56.9-63.8
	c-10.1-7.8-20.8-14.8-31.9-21c-16-15.1-34-27.8-54-37c-5.7-3.4-11.4-6.7-17.3-9.8C510.7,55.9,514.7,56.6,518.7,57.3z M501.4,56.5
	c-3.8-1.2-7.7-2.2-11.6-3.1c2.5,0.2,5,0.5,7.5,0.8c2.1,1,4.1,2,6.1,3.1C502.8,56.9,502.1,56.7,501.4,56.5z M502.8,52.1
	c-1-0.1-2-0.2-3-0.3c-0.9-0.5-1.8-0.9-2.7-1.3C499,51,500.9,51.5,502.8,52.1z M326.9,18.8c4.9-0.2,9.7-0.4,14.6-0.5
	c44.4-0.4,87.5,7.9,127.8,23.5c-2.1-0.5-4.2-1-6.2-1.4c-33.7-7.5-68.1-12.5-102.5-14.7c-23.2-1.5-46.8-1.4-70.1,0.7
	C302.6,23.3,314.7,20.8,326.9,18.8z M201.7,48.3c16.7-6.7,33.9-11.6,51.5-15.1C217,45.7,182.4,63,150.6,85.4
	c-20.6,14.6-39.9,31.2-57.5,49.5C120,95.9,157.7,66,201.7,48.3z M81.2,153.9c2.9-3.4,5.9-6.7,8.9-10
	c51.4-55.7,118.4-94.9,191.2-115.1c37.1-4.2,75-2.9,111.7,1.4c28.2,3.3,56.7,8,84.5,14.9c4.3,1.8,8.7,3.7,12.9,5.7
	c-2.7-0.2-5.3-0.4-8-0.6c-3.9-0.2-7.8-0.4-11.8-0.6c-15.2-2.1-30.5-2.7-45.9-1.9c-12.8-4.8-26.2-8-39.9-9.5
	c-27.8-3-56.1,0.3-83.4,5.2c-19,3.4-37.7,7.9-56.4,12.8c-17.6,4.6-35,9.6-51.8,16.8C138.9,96.4,94.4,138.4,64,189
	C69,176.9,74.7,165.2,81.2,153.9z M156.7,96.3c13.7-8.7,28.2-16.1,43.2-22.2c17.5-7,35.9-11.7,54.1-16.4
	c32.5-8.3,65.7-15.3,99.3-16.8c21.3-0.9,42.8,1,63.2,7.4c-12.5,1-25,2.7-37.4,5.1c-4,0.1-7.9,0.2-11.9,0.4
	c-35.7-1-71.5,2.1-105.9,10.3c-50.2,11.9-96.5,36.6-132.5,73.5c-16.4,13-31.1,28.1-43.3,45.3c-13.3,18.9-23.2,40-29.9,62.1
	c-0.6,1.9-1.1,3.8-1.6,5.7c-2.4,5.1-4.6,10.3-6.7,15.6c-1.9,4.4-3.7,9-5.3,13.6c-2.6,7.6-4.7,15.2-6.4,22.9
	c-0.4,1.7-0.8,3.4-1.2,5.2c2.2-17.6,5.1-35.1,8.9-52.3c3.9-17.8,8.9-35.4,15.2-52.6C82,160.1,115.3,122.7,156.7,96.3z M22.2,307.2
	c-0.1,5.7-1.1,11.4-2.5,17C20.4,318.5,21.2,312.9,22.2,307.2z M17.6,397.9c-3.4-16.7-4.4-33.9-0.9-50.6c-0.3,6.9-0.4,13.7-0.2,20.6
	c0.3,14.2,1.7,28.4,4.1,42.5c0.1,0.5,0.2,0.9,0.3,1.4C19.7,407.2,18.5,402.6,17.6,397.9z M22.9,415.7c-4.9-24.4-6.4-49.4-4.8-74.3
	c3.9-14.5,8.6-28.4,9-43.6c0.1-5.6-3.6,3.5-4.7,7.8c4.1-23,10.6-45.5,19.2-67c4.2-10.5,9-20.9,14.3-30.9
	c-6.7,19.2-11.8,39.1-15.8,59c-3.2,16.3-5.7,32.9-7.6,49.6c-6.1,30.7-7.3,62.5-4.1,93.9c0.1,3.6,0.2,7.1,0.3,10.7
	c0.2,6.9,0.6,13.9,1.1,20.9C27.4,433.1,24.7,424.5,22.9,415.7z M32.8,377.9c-1,8.8-1.6,17.6-1.8,26.4c-0.9-8.8-1.4-17.7-1.5-26.5
	c0.3-12,0.8-24.1,1.7-36.2C30.8,353.7,31.4,365.8,32.8,377.9z M34.5,459.7c-1.1-5-2.4-10-3.8-14.9c-0.7-9-1.1-17.9-1.3-26.8
	c0.4,2.8,0.7,5.6,1.2,8.4c0.5,3.5,1.1,7,1.8,10.5c0.1,1.1,0.2,2.1,0.3,3.2c1,8.4,2.4,16.7,4.1,25C36,463.4,35.2,461.6,34.5,459.7z
	 M35.8,484.9c0.4,0.7,0.8,1.3,1.2,2c0.3,2.7,0.5,5.4,0.8,8.1C37,491.6,36.4,488.3,35.8,484.9z M32.9,420.1
	c-0.5-11.6-0.2-23.2,0.8-34.7c1.2,8.8,2.8,17.7,4.7,26.4c-0.3,12.4-0.4,24.8-0.1,37.2C36.1,439.4,34.3,429.8,32.9,420.1z
	 M40.2,505.4c-0.1-0.5-0.2-0.9-0.2-1.4c-0.7-5-1.2-10.1-1.6-15.1c0.7,1,1.5,2,2.3,3c0.8,8.5,1.8,17.1,3.1,25.7
	C42.4,513.6,41.3,509.5,40.2,505.4z M41.8,493.3c0.3,0.4,0.6,0.7,0.9,1.1c0.4,6.2,0.9,12.4,1.5,18.6
	C43.2,506.5,42.4,499.9,41.8,493.3z M43.1,392.3c0,0.5,0.1,1,0.1,1.5c-0.3,5.4-0.6,10.7-0.8,16.1c-0.9-4-1.7-8-2.4-12.1
	c0.6-17,1.7-33.9,3.6-50.8c0.1,6.2,0.4,12.4,0.7,18.6C43.3,374.5,42.8,383.4,43.1,392.3z M47.3,481.1c-0.6-12.6-0.7-25.3-0.6-37.9
	c3.7,12.1,7.8,24,12.3,35.8c0.3,1.6,0.6,3.2,0.9,4.8c1.6,8.3,3.3,16.6,5.2,24.9c0.9,8.7,2.1,17.3,3.7,25.9
	c-7.4-15.2-13.9-30.9-19.4-47c0.4-2,0.5-3.8-0.2-4.5C48.5,482.4,47.9,481.8,47.3,481.1z M48.2,496c6.7,18.9,14.8,37.3,24.1,55.1
	c0.4,1.6,0.8,3.2,1.2,4.7c-9.9-17.9-18.3-36.5-25-55.8C48.4,498.7,48.3,497.4,48.2,496z M52,530.6c-1.2-7.8-2.2-15.6-2.9-23.4
	c7.2,19.3,16.1,38,26.5,56c0.9,2.9,1.8,5.8,2.8,8.7c-0.2-0.2-0.4-0.5-0.6-0.7c-0.4-0.5-0.8-1-1.1-1.5c-2.3-3-4.6-5.9-7-8.9
	c-6-8.1-11.6-16.4-16.8-25.1C52.6,534.1,52.3,532.4,52,530.6z M68.2,590.4c-4.9-11.5-8.6-23.4-11.5-35.6c3.3,5.1,6.8,10.1,10.4,15.1
	c6.3,9.5,13.4,18.1,21.4,25.9c0.7,1.3,1.4,2.7,2.1,4c5.4,10.1,11.9,19.4,19.4,28c2.9,5.3,6.1,10.5,9.7,15.3c2.2,2.9,4.6,5.6,7.1,8.1
	c-8.5-5-16.5-10.7-24-17.2C88.5,621.8,77,606.8,68.2,590.4z M150.8,672.7c-17.1-8-33.4-18-47.2-30.9c-4.7-4.3-9-9-13-13.9
	c16.3,17.5,36.5,30.3,58.2,40.1c1.6,2,3.3,4,4.9,6C152.8,673.5,151.8,673.1,150.8,672.7z M158.3,676c-1.6-1.9-3.2-3.9-4.8-5.8
	c1,0.5,2,1,3,1.5c2.6,1.6,5.2,3.1,7.8,4.5c1.3,1.3,2.7,2.7,4,4C165,678.8,161.6,677.5,158.3,676z M244.5,728.1
	c-16.4,1.4-33.2-2.7-47-11.7c-7.3-4.8-13.4-11.4-19.3-17.7c-5-5.4-9.9-10.9-14.7-16.5c3.8,1.5,7.6,2.9,11.4,4.3
	c0.7,0.6,1.3,1.3,2,1.9c5.1,4.9,10.1,9.6,16.4,12.9c3.6,1.9,7.5,3.3,11.4,4.3c10.6,7.6,22,14.3,34.1,19.7c2.1,1,4.3,1.8,6.5,2.7
	C245,728,244.8,728.1,244.5,728.1z M239.3,720.7c-8.3-3.7-16.2-8.1-23.8-13c2.5,0.4,5.1,0.7,7.6,0.9c13.6,6.3,27.7,11.5,42.1,15.6
	c-3.6,1-7.1,1.8-10.8,2.5C249.3,725,244.2,723,239.3,720.7z M304.6,736.9c-14.7-1.1-29.2-3.7-43.3-7.9c3.5-0.8,6.9-1.8,10.3-2.9
	c0.3,0.1,0.7,0.2,1,0.3c26.2,6.8,53.4,10.1,80.5,10.1C336.9,737.8,320.7,738.1,304.6,736.9z M280.9,722.8c4.1-1.5,8.1-3,12.1-4.6
	c0.7,0.2,1.4,0.3,2.2,0.5c31.7,6.8,64.4,10.9,96.9,10.5C355.2,733.4,317.2,731.4,280.9,722.8z M419.4,724.9
	c-3.8,0.4-7.6,0.7-11.5,0.9c-8.2-0.7-16.4-1.6-24.6-2.7c14.4,1,28.9,1.1,43.3,0.3C424.3,723.9,421.8,724.4,419.4,724.9z M314.5,710
	c2.1-0.9,4.2-1.8,6.3-2.6c3.8,0.4,7.5,0.8,11.3,1.1c48.9,4.5,99.4,3.2,146.5-11.9c16.1-2.6,31.9-7,46.9-13.3
	c-24.6,15.2-51.3,27-79.1,35.1C402.5,723.9,357.6,719.2,314.5,710z M591.5,668.6c-16.3,17-35.7,30.9-57.2,40.5
	c-21,9.4-43.6,14.5-66.4,16.7c-9.7,0.9-19.4,1.3-29.2,1.3c4.8-1,9.7-2,14.5-3c24.5-5.1,48.4-10.9,71.6-20.4
	c27-11,52.4-25.9,74.9-44.3C597,662.6,594.3,665.6,591.5,668.6z M614.5,640.4c-7.5,7.3-15.4,14.3-23.8,20.7
	c-19.8,15.3-41.8,27.7-64.8,37.4c-1.2,0.5-2.4,0.9-3.6,1.4c20.7-9.9,39.6-23,56.5-38.4c-0.7,1.2-1.4,2.5-2.2,3.7
	c-1.2,1.9,2,3.8,3.1,1.8c2.8-4.6,5.4-9.3,8-14.1c9.3-9.3,17.9-19.3,25.8-30c18.1-24.4,32.6-51.2,44.3-79.3c0.9-1,1.9-2.1,2.8-3.1
	c0.5-0.5,0.9-1.1,1.4-1.6C650.9,574.8,636,609.9,614.5,640.4z M682,529.4c-2.3,7.7-5.1,15.2-8.1,22.6c-2.5,5.5-5.2,10.9-8,16.3
	c-8.9,17-19,33.2-30.3,48.7c-3.3,4.1-6.7,8-10.2,11.9c18.2-29.4,31.2-62.3,41.3-95.3c4.7-6,9-12.4,12.4-19.3c4.8-9.7,8-20,10.9-30.4
	c1.3-4.6,2.5-9.3,3.6-14C691.7,490,687.9,509.9,682,529.4z M703.1,446.3c-0.1,1.9-0.2,3.8-0.4,5.7c0,0.2,0.1,0.3,0.3,0.3
	c-1.9,14.1-4.8,28.1-8.4,41.9c2.8-15.9,4.4-32,4.9-48.1c0-0.3,0-0.5,0-0.8c0.9-3.7,1.7-7.3,2.6-11c0.4-1.5-1.3-2.5-2.4-2.1
	c-0.1-11-0.6-22.1-1.5-33.1c1.7-11.1,3-22.2,3.9-33.4C704.9,392.5,704.7,419.5,703.1,446.3z M703.2,362.2c0.4,2.8,0.7,5.5,1,8.3
	c2.3,20.8,2.5,41.7,0.9,62.4C706.1,409.3,705.9,385.7,703.2,362.2z"/>
<g>
	<path class="st1" d="M213.4,282.3l-0.6,0.5v1.2c-0.8,0.1-1.4,0.4-1.7,0.9c-0.3,0.4-0.7,0.7-1.1,0.8c-0.1,0.5-0.3,0.8-0.6,0.8
		l-1.8,1.6l-0.7,1.2h-0.6c-0.5,0.9-0.9,1.4-1.2,1.7c-0.8,0.3-1.3,0.6-1.4,0.8l-1.5,1.8l-1.1,0.8c-0.4,0.3-0.9,0.5-1.6,0.8l-0.7,1.4
		l-1,0.6c-0.3,0.2-0.8,0.7-1.5,1.4l-0.7,1.9l-2.5,3.1c-0.7,1.1-1.3,2-1.7,3l0.4,0.8l-0.4,1.2l0.4,1.4l-0.5,1.6l0.3,1.9l0.5,0.6
		c-0.6,0.8-0.8,1.6-0.8,2.4c0,0.7-0.1,1.2-0.3,1.6c0.2,1.3,0.3,2.1,0.2,2.4l-0.5,3.4l0.1,1.7l-0.3,0.7l0.5,2.6l-0.6,1.1l0.4,1.4
		l-0.4,0.7c0.6,1,0.8,1.7,0.7,2.1c-0.4,1.1-0.5,1.7-0.5,1.8l0.4,1.9l-0.7,1.8l0.8,1.2l-0.2,2.6c-0.1,0.8-0.4,1.3-0.9,1.5l-0.5-2.5
		l-0.6-2.1l-0.1-2l-0.5-0.3l0.4-0.8l-0.4-1.2l0.4-2.3l-0.5-2.4l0.2-2l-0.1-0.5l0.1-1.6l-0.3-3.4l0.3-1.6l-0.2-1.9l0.5-3.3l-0.7-1.2
		l0.3-1.4c0-1.1-0.2-2.1-0.5-2.9c0.4-0.7,0.6-1.3,0.6-1.9c0-0.4-0.4-1.8-1.1-4.3c-0.6-0.4-1.1-1-1.5-1.8c-0.4,0-0.7-0.3-1-0.6
		l-2.1-2.6l-1.1-0.6l-0.9-1.7l-2.7-2.7l-0.5-1l-1.4-1.7l-1.7-1.4v-0.8l-0.8-0.6c-0.4-0.3-0.6-0.5-0.7-0.8l-0.6-1.2
		c-0.1-0.2-0.5-0.5-1.2-0.7c-1.4-0.8-2.1-2-2.1-3.7l0.1-0.7h0.7c0-0.3,0.3-0.5,0.6-0.5c0.4,0,1,0.1,1.8,0.4l0.4,1.2l1.4,0.6l1.1,1.9
		l1.6,1.2l0.1,1.5c0,0.4,0.4,0.6,1.1,0.7l0.7,1.2l1.1,0.8l3.5,5.2l-0.1,0.6l0.8,0.3l1,1.4l3.6,3.5c0.3,0.2,0.5,0.5,0.8,1
		c0.3,0.4,0.5,0.7,0.6,0.7c0,0,0.2-0.2,0.6-0.6c0.4-0.4,0.9-1.2,1.5-2.3c0.1-0.9,0.3-1.3,0.5-1.3h0.5c0.2,0,0.3-0.1,0.3-0.4v-0.2
		c0-0.3,0.3-0.7,1-1.2l-0.1-0.2c0-0.4,0.5-0.9,1.6-1.3l0.7-1v-0.1c0-0.5,0.6-0.8,1.7-0.9c0.4-0.2,0.6-0.4,0.6-0.6
		c0-0.2,0-0.3-0.1-0.4c0.8-0.1,1.3-0.4,1.5-0.7l1.2-1.4c0.5-0.9,1-1.6,1.6-2.2c0.6-0.6,1-0.8,1.1-0.8h0.1l0.6-0.9
		c0.2-0.3,0.6-0.7,1.3-1.1l0.3-1.1c0.1,0.1,0.4,0.1,0.7,0.1c0.4,0,0.6-0.4,0.6-1.1v-0.1c0-0.2,0.4-0.4,1.1-0.5l-0.2-0.4l0.8-0.4h0.8
		l0.4-1.2l1.7,0.2l0.5-0.2l0.4,0.9L213.4,282.3z"/>
	<path class="st1" d="M240.1,303.3l-0.5,1.5l0.3,0.6l-0.2,1.7c0,0.2-0.2,0.6-0.5,1.1v0.8l-0.5,1.4l-0.4,0.6
		c-0.1,0.2-0.4,0.8-0.7,1.8l-0.5,0.2l-0.3,0.9l-0.8,0.5l-0.6,1.3l-1.1,0.5l-0.1,0.9l-0.9,0.4c-0.4,0.6-0.7,1-0.9,1.1
		c-0.1,0.2-0.4,0.3-0.9,0.5c-0.5,0.2-0.8,0.3-1,0.4c-0.1,0.8-0.8,1.2-2,1.3c-0.3,0.4-0.6,0.5-1,0.5c-0.1,0-0.3,0-0.6-0.1
		c-0.7,0.6-1.3,0.9-1.8,1.1l-0.6,0.9l-0.9-0.6l-0.2,0.4l-1.1-0.4l-2.5-0.2c-0.4-0.8-1-1.7-1.9-2.6l0.3-0.9l-1-2.6l0.4-0.8l-0.4-2
		l0.4-1.1c0-0.1,0-0.4-0.1-0.9c-0.1-0.5-0.1-0.8-0.1-1c0-0.5,0.2-0.9,0.7-1.2v-0.4c0-0.5,0.1-1.1,0.4-1.6h0.4
		c0.4-0.4,0.5-0.9,0.5-1.4l-0.2-0.5l0.2-1.1v-0.7c0.4-0.5,0.6-1,0.6-1.6l-0.2-1.2c0-0.4,0.1-0.6,0.2-0.8c0.7-0.4,1.1-0.7,1.1-1.1
		c0-0.2-0.1-0.5-0.3-0.7l0.7-1.2c0.1-0.2,0.2-0.3,0.4-0.5c0.2-0.1,0.3-0.2,0.4-0.2l-0.1-0.7c0.8-0.1,1.1-0.5,1.1-1.2
		c0-0.4-0.1-0.9-0.2-1.3c1.6,0,2.6-0.8,3.2-2.5h0.5c0.3-0.3,0.6-0.5,0.7-0.5c0,0,0.3,0.1,0.6,0.2c0.4,0.1,0.9,0.2,1.7,0.2l1.1-0.5
		v0.5c0.5,0,1.1,0.3,1.8,0.8h1c0.2,0.5,0.5,0.7,0.7,0.7l0.1-0.1c0.5,0.8,1.1,1.4,1.7,1.8l0.4,0.9l0.7,0.3l1.1,1.7l1.2,3.3v0.7
		L240.1,303.3z M237.8,305.3c0.3-0.4,0.4-0.6,0.4-0.9c0-0.2-0.1-0.3-0.2-0.5c-0.2-0.2-0.2-0.3-0.2-0.3h0.4c-0.1-0.3-0.2-0.5-0.5-0.7
		l0.1-0.2l-0.5-1.2l0.1-1.6l-0.7-1.1c-0.5-0.3-0.8-0.6-0.8-0.7v-0.2c0-0.2-0.1-0.3-0.3-0.4c-0.2-0.1-0.3-0.2-0.3-0.3v-0.1
		c0-0.1,0.1-0.4,0.3-0.9l-0.5-0.4l-0.7-0.1l-0.3-0.5l0.3-0.4l-0.9-0.5l-0.7-0.7l-2-0.8l-0.8-0.2c-1.4,0-2.1,0.4-2,1.2l0.1,2.4
		l-1.4,0.1l-2.3,1.4l-0.2,0.8l-0.8,0.5l-0.4,2.1l-0.7,0.5c-0.1,0.1-0.2,0.4-0.2,1c0,0.5,0,1,0.1,1.3l-0.9,0.5
		c-0.2,0.1-0.3,0.6-0.3,1.4c0,0.4-0.2,0.7-0.7,1.1v0.7l-0.6,1v0.6l-0.2,0.5l0.1,1l-0.9,2.3l0.3,0.8v1.7l-0.3,1.2l0.1,1.8l1.1,1.4
		c0.1,0.2,0.5,0.4,1.3,0.8l0.2,0.4l0.5-0.1l0.5,0.1l0.8-0.4l1.7,0.1l0.8-0.2l0.2-0.5l0.7,0.1c0.8,0,1.1-0.2,1.1-0.7l1,0.3l0.2-0.6
		l0.7-0.1l0.4-0.8c0.5-0.4,0.8-0.7,0.8-1h1.2l0.4-0.7l1.2-1.1l0.5-0.7c0.2-0.3,0.4-0.5,0.6-0.6l1-0.5c0.1-0.7,0.3-1.3,0.6-2
		l-0.1-0.6l1-0.5l-0.1-0.4c0.3-0.4,0.5-0.7,0.8-1h-0.4c0.2-0.3,0.3-0.5,0.3-0.6c0-0.1,0-0.3-0.1-0.5s-0.1-0.4-0.1-0.4
		c0-0.3,0.1-0.6,0.2-1s0.2-0.6,0.2-0.7C238.1,305.5,238,305.4,237.8,305.3z"/>
	<path class="st1" d="M286.3,315.7l-0.4,0.8c0,1.1-0.2,1.9-0.6,2.4c-0.6,0.5-0.9,0.9-0.9,1.2c-0.1,0.3-0.4,0.8-0.6,1.3l-0.6,0.5
		c-0.2,0.2-0.4,0.5-0.6,1l-2.4,1.3c-0.8,0.2-1.6,0.4-2.5,0.5l-1.1-0.5h-0.8l-0.7-0.6l-0.8-0.1l-2.6-1.4l-5.8-5.2l-1.4-2.3l-1.2-1
		c-0.1-0.3-0.5-0.9-1.1-1.6c-0.4-0.3-0.9-0.9-1.4-1.6c-0.5-0.7-1.2-1.3-2-1.6l-1.4-2.7c0-0.2,0.2-1,0.5-2.2l1.4,0.9l0.8,0.8
		c0.2,0.2,1,0.7,2.2,1.5h0.9l0.4,0.4c0.2,0,0.4-0.1,0.7-0.1c0.3,0,0.5,0.1,0.8,0.2c0.5-0.4,1.2-0.7,2-0.9c0.8-0.2,1.5-0.4,2-0.6
		l0.4-0.7h1.6c0-0.2,0.2-0.4,0.4-0.5c0.3-0.1,0.4-0.2,0.4-0.2h0.2c0.7,0,1.2-0.6,1.5-1.8c0.7-0.4,1.2-0.6,1.3-0.7l0.5-0.5
		c0.2-0.2,0.5-0.7,1-1.6h0.1c0.5,0,0.9-0.9,1.4-2.7h0.4l0.1-0.5l-0.1-1.2l0.1-1.2c0-0.5-0.7-1.1-2.1-1.8c-0.2-0.4-0.5-0.7-0.9-0.7
		h-0.2l-0.4-0.4c-1-0.1-2-0.2-3.1-0.3c-1.1-0.2-1.7-0.2-1.9-0.2c-0.8,0-1.8,0.4-2.9,1.1c-0.6,0-1.2,0.1-1.9,0.2l0.1,0.1
		c-0.3,0-0.6,0.1-0.8,0.2c-0.3,0.1-0.5,0.2-0.8,0.3c-0.2,0.1-0.5,0.3-0.8,0.5c-0.3,0.2-0.6,0.3-0.9,0.4l-0.9,0.4l-2.5,2.1l-2.5,2.7
		v0.5l-1.2,2.4l-0.6,1.6c-0.8,1.3-1.2,2.3-1.2,3c0,0.3,0.1,0.6,0.3,0.9c0,0.4-0.1,0.7-0.4,0.8c-0.3,0.5-0.5,1-0.5,1.5l0.1,0.6
		c0,0.4-0.1,0.7-0.2,1.1c-0.4,0.5-0.7,0.9-0.8,1.2l0.3,1.3l-0.3,1.5l0.2,1.1c-0.4,0.7-0.5,1.4-0.5,2.2v0.4c0.1,0.3,0.1,0.5,0.1,0.5
		c0,0.6-0.4,1-1.3,1.2c-0.4-0.1-0.7-0.6-0.9-1.4l-0.3-0.9l0.2-1.2l-0.2-2.8l0.2-0.6v-2.7l0.1-0.9v-0.8c0-1.3,0-2.4,0.1-3.3
		c0.1-1,0.1-1.5,0.1-1.5v-1.2l0.1-0.7v-2l0.2-0.8l-0.2-1l0.2-2.5v-3l-0.2-1l0.4-0.7l-0.1-0.8l-0.2-4.1l-0.5-2.4v-0.6l0.4-2.7
		l-0.3-1.2l-0.1-1.8c-0.1-0.7-0.1-1.1-0.1-1.4c0-1,0.6-1.4,1.7-1.4l0.2,0.5l0.4-0.2l-0.1,1.2l0.4,2l-0.5,2.1l0.1,2.8l0.4,1.2
		l-0.2,1.1l0.1,2l-0.3,1.5l0.4,1.4L251,292l0.4,1l-0.2,1.8l-0.3,5.1c0.1,0.6,0.1,0.9,0.1,1.1l-0.1,1l0.1,1.4c0,0.5-0.1,1-0.3,1.4
		c0.4,0.4,0.7,0.6,1,0.7l0.8-1.8l-0.1-0.4c0-0.3,0.5-1.5,1.4-3.5c0.9-2.1,1.9-3.7,3-5c0.3-0.1,0.5-0.2,0.5-0.4c0-0.1,0-0.2-0.1-0.3
		c1.1-0.7,1.8-1.1,2-1.3c0.2-0.2,0.4-0.4,0.5-0.5c0.2-0.1,0.4-0.3,0.6-0.4c0.2-0.1,0.4-0.2,0.6-0.2c0.2,0,0.3-0.1,0.5-0.3
		c0.2-0.1,0.4-0.3,0.7-0.5s0.8-0.4,1.5-0.6c0.4-0.6,1.4-0.9,3-1.2l2.8-0.4l5.1,0.4l0.8,0.5c0.3,0.1,0.7,0.3,1.2,0.4
		c1.8,1.7,2.7,2.6,2.8,2.6c0-0.1-0.1-0.2-0.2-0.4l1,2.3L280,295c0.4,0.4,0.5,0.8,0.5,1.2c0,0.4-0.3,0.9-0.8,1.6v0.6l-0.8,2.5
		l-1.1,1.6l-0.5,0.1c0,0.2-0.2,0.5-0.6,0.9c-0.3,0.4-0.5,0.7-0.6,0.9c-0.5,0-1,0.3-1.4,0.8c-0.4,0.1-0.7,0.4-0.8,0.8
		c-0.7,0.1-1.2,0.5-1.7,1.1c0.1,0,0.2,0,0.2-0.1h0.1c0,0.2-2.2,1-6.7,2.5c-0.5-0.3-0.8-0.4-1.1-0.4c-0.4,0-0.6,0.3-0.6,0.8v0.1
		l-0.1,0.4l0.6,0.7l0.2,1.1c0.1,0.5,0.5,0.9,1.2,1.2l1.2,2.5l1.9,1.2l0.1,0.4l0.8,0.4l0.3,0.7l0.4-0.1l2.2,2.1l2.7,1.1l1.7,0.5
		l1.4-0.1l0.6-0.3c0.8-0.1,1.5-0.4,2.2-0.9s1.1-0.7,1.1-0.8l1.3-2.5l0.5-0.7c0.2-0.2,0.4-0.7,0.6-1.4c0.3-0.1,0.5-0.1,0.6-0.1
		C285.9,315.3,286.1,315.4,286.3,315.7z"/>
	<path class="st1" d="M313,303.3l-0.5,1.5l0.3,0.6l-0.2,1.7c0,0.2-0.2,0.6-0.5,1.1v0.8l-0.5,1.4l-0.4,0.6c-0.1,0.2-0.4,0.8-0.7,1.8
		l-0.5,0.2l-0.3,0.9l-0.8,0.5l-0.6,1.3l-1.1,0.5l-0.1,0.9l-0.9,0.4c-0.4,0.6-0.7,1-0.9,1.1c-0.1,0.2-0.4,0.3-0.9,0.5
		c-0.5,0.2-0.8,0.3-1,0.4c-0.1,0.8-0.8,1.2-2,1.3c-0.3,0.4-0.6,0.5-1,0.5c-0.1,0-0.3,0-0.6-0.1c-0.7,0.6-1.3,0.9-1.8,1.1l-0.6,0.9
		l-0.9-0.6l-0.2,0.4l-1.1-0.4l-2.5-0.2c-0.4-0.8-1-1.7-1.9-2.6l0.3-0.9l-1-2.6l0.4-0.8l-0.4-2l0.4-1.1c0-0.1,0-0.4-0.1-0.9
		c-0.1-0.5-0.1-0.8-0.1-1c0-0.5,0.2-0.9,0.7-1.2v-0.4c0-0.5,0.1-1.1,0.4-1.6h0.4c0.4-0.4,0.5-0.9,0.5-1.4l-0.2-0.5l0.2-1.1v-0.7
		c0.4-0.5,0.6-1,0.6-1.6l-0.2-1.2c0-0.4,0.1-0.6,0.2-0.8c0.7-0.4,1.1-0.7,1.1-1.1c0-0.2-0.1-0.5-0.3-0.7l0.7-1.2
		c0.1-0.2,0.2-0.3,0.4-0.5c0.2-0.1,0.3-0.2,0.4-0.2l-0.1-0.7c0.8-0.1,1.1-0.5,1.1-1.2c0-0.4-0.1-0.9-0.2-1.3c1.6,0,2.6-0.8,3.2-2.5
		h0.5c0.3-0.3,0.6-0.5,0.7-0.5c0,0,0.3,0.1,0.6,0.2c0.4,0.1,0.9,0.2,1.7,0.2l1.1-0.5v0.5c0.5,0,1.1,0.3,1.8,0.8h1
		c0.2,0.5,0.5,0.7,0.7,0.7l0.1-0.1c0.5,0.8,1.1,1.4,1.7,1.8l0.4,0.9l0.7,0.3l1.1,1.7l1.2,3.3v0.7L313,303.3z M310.7,305.3
		c0.3-0.4,0.4-0.6,0.4-0.9c0-0.2-0.1-0.3-0.2-0.5c-0.2-0.2-0.2-0.3-0.2-0.3h0.4c-0.1-0.3-0.2-0.5-0.5-0.7l0.1-0.2l-0.5-1.2l0.1-1.6
		l-0.7-1.1c-0.5-0.3-0.8-0.6-0.8-0.7v-0.2c0-0.2-0.1-0.3-0.3-0.4c-0.2-0.1-0.3-0.2-0.3-0.3v-0.1c0-0.1,0.1-0.4,0.3-0.9l-0.5-0.4
		l-0.7-0.1l-0.3-0.5l0.3-0.4l-0.9-0.5l-0.7-0.7l-2-0.8l-0.8-0.2c-1.4,0-2.1,0.4-2,1.2l0.1,2.4l-1.4,0.1l-2.3,1.4l-0.2,0.8l-0.8,0.5
		L296,301l-0.7,0.5c-0.1,0.1-0.2,0.4-0.2,1c0,0.5,0,1,0.1,1.3l-0.9,0.5c-0.2,0.1-0.3,0.6-0.3,1.4c0,0.4-0.2,0.7-0.7,1.1v0.7l-0.6,1
		v0.6l-0.2,0.5l0.1,1l-0.9,2.3l0.3,0.8v1.7l-0.3,1.2l0.1,1.8l1.1,1.4c0.1,0.2,0.5,0.4,1.3,0.8l0.2,0.4l0.5-0.1l0.5,0.1l0.8-0.4
		l1.7,0.1l0.8-0.2l0.2-0.5l0.7,0.1c0.8,0,1.1-0.2,1.1-0.7l1,0.3l0.2-0.6l0.7-0.1l0.4-0.8c0.5-0.4,0.8-0.7,0.8-1h1.2l0.4-0.7l1.2-1.1
		l0.5-0.7c0.2-0.3,0.4-0.5,0.6-0.6l1-0.5c0.1-0.7,0.3-1.3,0.6-2l-0.1-0.6l1-0.5l-0.1-0.4c0.3-0.4,0.5-0.7,0.8-1h-0.4
		c0.2-0.3,0.3-0.5,0.3-0.6c0-0.1,0-0.3-0.1-0.5s-0.1-0.4-0.1-0.4c0-0.3,0.1-0.6,0.2-1s0.2-0.6,0.2-0.7
		C311,305.5,310.9,305.4,310.7,305.3z"/>
	<path class="st1" d="M383,302.7c0,0.4-0.2,0.6-0.5,0.7l-1.2-0.4l-1.3,1l-1.5-0.2c-0.6,0.4-1.3,0.6-2,0.6c-0.6,0-0.9,0.1-1.1,0.4
		c-0.6-0.3-1.1-0.4-1.7-0.4c-0.5,0-0.8,0.2-0.9,0.5c0.1,0.2,0.3,0.4,0.5,0.6l-0.2,0.7l0.2,2.4l0.9,1.4l0.2,1.3l1.6,2.3l-0.2,1.1
		l1.1,1l1.7,2.8c0.9,1,1.4,1.7,1.5,2.1l1.3,0.7l0.5,1.1l0.5,0.4l-0.9,0.7l-1.2-0.9h-0.7l-0.9-0.7h-0.7l-0.7-1.2l-0.7-0.4
		c-0.6-1.1-1.2-2-1.9-2.7v-0.7l-0.7-0.6l-0.1-1.1l-1.1-1.2l-1.5-3.6l-0.5-0.6l-0.2-1.8c0-0.2-0.3-0.7-0.9-1.7V305h-0.8l-0.9,0.6
		l-1.4-0.3l-1,0.6l-0.4-0.4l-0.8,0.5l-0.2-0.5c-0.1,0-0.4,0.1-0.7,0.2c-0.4,0.1-0.8,0.2-1.2,0.2l-0.9-0.1H360l-1.2,0.8l-1.3-0.3
		l-1.8,0.1v0.4l-0.6-0.4l-0.9,0.5l-0.6-0.5h-1.2l-1.2,0.5l-0.9-1l-0.5,0.4l-1-0.4c-0.8,0.4-1.9,1.6-3.3,3.7l-1.2,0.3
		c-1.9,3-3,4.4-3.1,4.5l-0.6,0.4l-2,2.6h-0.4l-1.7,2.8l-1.9,1.2l-1.4-0.4l0.3-0.6v-1l0.5-0.6l-0.2-0.5l1.3-0.2l0.9-0.5
		c0.8-0.3,1.3-0.9,1.4-1.8c1-0.3,1.6-0.8,1.7-1.7c1.1-0.7,1.9-1.7,2.3-3.2l1-0.4l2.3-3.6v-1c-0.3-0.3-0.6-0.6-0.7-1.1l1.4-1.2v-0.5
		l1.7,0.2l0.9-0.6l0.2,0.3l0.9-1.3c-0.2,0-0.3-0.2-0.3-0.3c0-0.1,0.3-0.4,1-0.8l0.3,0.4c0-0.6,0.3-1.3,0.7-2.1l-0.2-0.1l0.8-0.1
		l0.3-0.9c0.6-0.1,0.9-0.3,0.9-0.7v-0.8c1.1-1,1.7-1.9,1.7-2.7v-0.1l0.9-0.1l0.2-1l0.5-0.1l0.7-1.5l0.5,0.4l-0.4-0.8
		c0.7-0.1,1.1-0.5,1.2-1.4l0.5,0.3v-1.4h0.5v-1c0.1-0.1,0.4-0.3,0.8-0.7c0.4-0.4,0.7-0.9,0.8-1.6l0.8-0.8l-0.5-1.1
		c0.7-0.9,1.3-1.3,1.9-1.3h0.1l0.4-0.7l0.5,0.7c0.1,0.1,0.3,0.3,0.6,0.5l1.2,0.6l0.1,1.8c0.3,0.3,0.6,0.8,0.9,1.4l0.6,0.2l0.1,1.6
		l0.6,2.1l0.9,1.7l0.6,2.3l0.1,1.5l1,1.4l-0.3,0.6l0.8,0.9v1.1l0.2,1c0,0.2-0.1,0.4-0.3,0.7c0.7,1.7,1.6,2.6,2.5,2.6l1.4-0.3h1.7
		c0.5,0.1,0.9,0.2,1.3,0.2c0.6,0,1.1-0.1,1.4-0.4c0.3-0.3,0.6-0.4,0.7-0.4c0.1,0,0.6,0.2,1.3,0.6L383,302.7z M369.3,300.9
		c-0.3-0.8-0.7-1.3-1.2-1.6l0.4-1l-0.9-0.5l-0.3-2.7l-0.9-1.4l-0.1-1.2l-0.5-1v-0.4h-0.2l-0.1-1.5c0-0.2-0.1-0.4-0.4-0.8l-0.5-0.8
		c-0.1-0.1-0.3-0.3-0.6-0.5c-0.3-0.2-0.7-0.5-1.4-0.7l-0.8,0.4l-0.5,0.8l-1.7,2.5l-0.4,0.8c-0.1,0.2-0.7,0.9-1.7,1.9l-0.3,1.2
		l-1.5,0.8c-0.4,1.8-1.1,2.9-2.1,3.2l-0.7,2.2l-1.4,0.6v0.7l-0.2,0.9c0.8,0.3,1.4,0.5,1.8,0.7l0.9-0.1l1.4,0.4
		c0.3,0.1,0.5,0.1,0.6,0.1c0.2,0,0.6,0,1-0.1c0,0,0.1-0.1,0.3-0.1c0.1,0,0.3,0,0.5,0.1c0.3,0.1,0.6,0.1,0.8,0.1l0.9-0.2l2.8-0.2
		l2.3-0.3c1.5,0.2,2.4,0.3,2.8,0.3c1.1,0,1.7-0.2,1.7-0.7c0-0.3-0.2-0.7-0.6-1.2L369.3,300.9z"/>
	<path class="st1" d="M430.3,309.5c0.1,0.4-0.2,0.8-0.9,1.1l0.1,0.2c0,0.2-0.3,0.7-0.9,1.5c-0.6,0.8-0.9,1.3-0.9,1.7l-0.8,0.2
		c0,1-0.5,1.6-1.3,1.7c-0.1,0.3-0.2,0.4-0.4,0.4h-0.1c-0.1,0.4-0.3,0.6-0.8,0.6l-0.4,0.8l-1,0.2l-0.8,0.6c-0.1,0.1-0.3,0.1-0.5,0.2
		l-1.6,0.3l-0.6-0.1l-0.5,0.1l-0.2-0.3l-0.6-0.1l-0.8-1h-0.4c-0.2-0.2-0.3-0.4-0.3-0.8c-0.8-0.8-1.2-1.5-1.2-2v-0.6l-0.5-0.9v-0.4
		l0.4-0.2l-0.3-1l-0.5-1.3l0.1-1.9l-0.7-1.2v-1.8c-0.7-3.5-1-5.6-1-6.4V299c-0.1-0.4-0.1-0.6-0.1-0.8c0-0.2,0-0.3,0.1-0.4
		c-0.5-0.8-0.8-1.5-0.8-2l-0.4-0.3l-1.5,1.6l-0.7,1l-2.5,3l-1,1.8c-0.4,0.8-0.6,1.3-0.8,1.7c-0.2,0.4-0.7,0.9-1.4,1.6l0.2,0.7
		l-0.5,1.4l-0.6,0.1v0.6h-0.4l-1.4,1.7c0,0.8-0.4,1.3-0.9,1.4c-0.2,0.3-0.4,0.8-0.6,1.3c-0.2,0.6-0.4,0.9-0.8,0.9l-0.3,0.3
		c-0.4,0.8-0.9,1.4-1.2,1.8c-0.4,0.4-0.9,0.9-1.6,1.4c-0.2,0.8-0.5,1.3-0.9,1.4l-0.1,0.4c0,0.3-0.1,0.6-0.4,0.9s-0.8,0.6-1.7,0.8
		c-0.4,0-0.6-0.4-0.8-1.2c-0.2-0.8-0.5-1.2-0.8-1.4l-0.2-0.5l0.6-0.9l-0.1-0.9l0.4-0.4l-0.4-0.6l0.1-0.9l-0.6-1.6l0.5-0.9l-0.3-1
		c0.3-0.7,0.5-1.6,0.5-3v-0.4c0-0.1-0.1-0.4-0.4-0.8c0.4-0.3,0.6-0.6,0.6-0.9l-0.1-1.1l0.4-2.7l-0.3-0.5l0.1-1.1l-0.4-0.7l0.3-2.3
		l-0.1-0.8l0.2-1.3l-0.2-1.9l0.5-0.9c0.9,0.3,1.3,0.4,1.4,0.5c0.1,0.1,0.1,0.3,0.2,0.7c0,0.3,0.1,0.9,0.1,1.6l0.6,0.9l-0.2,1.4
		l0.3,3l-0.5,1.6l0.2,1.9v0.9l-0.7,1.1l0.5,1.5c-0.1,0.2-0.3,0.9-0.5,2l0.4,0.8c-0.4,1.3-0.6,2.2-0.6,2.8l0.1,2.6l0.2,0.4l0.9-0.4
		h0.7l0.4-1.6c0.5-0.2,0.9-0.4,1-0.8c0.1-0.6,0.4-0.8,1.1-0.8c0.1-0.5,0.2-0.9,0.5-1.1c0.2,0,0.4-0.3,0.7-1c0.5-0.5,0.9-1,1.2-1.5
		v-1h0.1c0.2,0,0.4-0.2,0.7-0.5c0.2-0.3,0.6-0.5,0.9-0.5c0.2-0.6,0.4-1,0.6-1.3l1-1.2l0.9-2c-0.1-0.4-0.1-0.6-0.1-0.7
		c0-0.1,0.1-0.2,0.2-0.2c1-0.6,1.4-1.3,1.4-1.9v-0.9c0.7-0.3,1.1-0.5,1.1-0.8c0-0.1,0-0.2-0.1-0.4s-0.1-0.3-0.1-0.3
		c0-0.2,0.1-0.4,0.3-0.4c0.2,0,0.4,0.1,0.6,0.2c0.4-1.3,0.9-1.9,1.6-1.9c0.1,0,0.4,0,0.6,0.1c0-0.7,0.2-1.2,0.6-1.7
		c0.1-0.3,0.7-0.7,1.7-1.1l0.4-0.6h0.3c0.4,0.5,0.7,0.9,1,1l0.1,0.5l0.4,0.1l0.1,1.4l0.9,0.6l-0.3,1.2l0.5,2.3v2.1l0.5,2.5l0.2,2.6
		l0.7,2.4l0.1,2.4c0,0,0.1,0.3,0.4,0.7c0.2,0.4,0.4,0.9,0.5,1.6l0.3,0.2v1.1l0.6,0.7l-0.1,0.5l0.5,0.3v0.4c0.4,0.3,0.8,0.4,1.2,0.4
		c0.4,0,0.8-0.1,1.1-0.3c0.2,0.1,0.3,0.1,0.4,0.1c0.2,0,0.4-0.2,0.6-0.6c0.7-0.1,1-0.3,1-0.6v-0.2c0.1-0.2,0.5-0.4,1.4-0.7
		c0.2-0.3,0.5-0.5,0.7-0.7l-0.1-0.2c0-0.1,0.1-0.3,0.3-0.4c0.1-0.2,0.4-0.4,0.7-0.6c0.3-0.3,0.5-0.5,0.7-0.8l0.4-0.8
		c0.3-0.4,0.8-1.1,1.4-2l1-0.5h0.7L430.3,309.5z"/>
	<path class="st1" d="M464.3,317.1c-0.5,1.9-1.2,3.1-1.9,3.7c-0.6-0.2-0.9-0.4-1.2-0.8l-1.3-2l-0.5-1.1l-0.9-3.3v-3.2l-0.2-2.8
		l0.2-1.6l-0.2-1.4v-2l-0.7-0.9l-0.3,0.6l-0.6,0.1l-1.1,2.5l-1.3,1.9h-0.6l-0.2,0.7c-0.1,0.3-0.2,0.6-0.4,0.9
		c-0.2,0.4-0.4,0.8-0.7,1.3l-1.9,2.1l-1.5,2.3l-1.7,1.7c-0.4,0.6-0.8,1.2-1.3,1.8l-1,0.8c-0.3,0.3-0.7,0.8-1.2,1.5l-1.2,0.4
		c-0.1,0-0.4,0.3-0.8,0.8l-0.8,0.2c-0.3,0-0.8,0.3-1.5,0.7l-0.6-0.1l-0.2,0.4l-0.8-0.1l-2.3-1.7c-0.4-0.5-0.7-1.2-0.8-2.1
		c-0.2-0.9-0.5-1.3-0.8-1.4l-0.4,0.1l0.7-1.2l-0.4-1.2l0.3-0.9l-0.1-1.4l0.5-2.2v-2l0.5-0.7v-1.8c0.4-0.7,0.5-1.2,0.5-1.7l0.3-0.2
		v-1.3l0.6-1.2l0.1-1c0.3-0.4,0.5-0.9,0.7-1.4l0.4-2.2c0.1-0.5,0.3-0.9,0.8-1.3l0.1-0.8c0-0.2,0.2-0.6,0.5-0.9
		c0.3-0.4,0.4-0.8,0.4-1.1c0.7-0.7,1.3-1.2,1.8-1.5l-0.1-0.3c0.3-0.1,0.5-0.2,0.5-0.4c0.1,0,0.2,0.1,0.4,0.1c0.2,0,0.3,0,0.4-0.1
		l-0.4-0.1l3.1-0.9c0.4,0,0.9-0.1,1.2-0.1c0.4,0,0.6-0.1,0.6-0.2v-0.1l1.2-0.1l0.6,0.4l0.4-0.1c0.1,0.2,0.3,0.4,0.6,0.4
		c0.1,0,0.2,0,0.3-0.1l1.2,0.1v0.3l0.3-0.1l1.1,0.9l1.1-0.3l0.6,1.2l1.2,0.9c0.1,0.1,0.4,0.5,0.6,1.1l1.2,0.6
		c0.4,0.4,0.7,0.6,0.9,0.6c0.1,0,0.2-0.1,0.3-0.3l0.5-2.5l0.6-1.3l-0.2-1.9l0.3-3.4l-0.3-0.9c0.4-0.4,0.5-0.9,0.5-1.5l-0.3-0.6
		l0.2-2l-0.2-2l0.3-0.4l-0.3-0.2c0.3-0.2,0.4-0.4,0.4-0.6c0-0.1,0-0.2-0.1-0.4c0.1-0.4,0.2-0.7,0.2-1c0-0.4-0.1-0.7-0.2-1.1h0.4
		c-0.1-0.2-0.1-0.4-0.1-0.7c0-0.3,0.2-0.6,0.7-0.8l-0.3-0.2l0.4-0.1c0.3,0,0.4,0.2,0.5,0.6c0.4,0.1,0.6,0.4,0.6,0.9h-0.4l0.1,1.2
		l-0.1,0.7H461l0.8,0.8l-0.3,1l0.5,1.2l-0.4,0.5c0.2,0.6,0.4,1,0.4,1.3c0,0.3-0.1,0.6-0.2,0.8l0.6,0.5c-0.2,0.1-0.4,0.3-0.4,0.4
		c0,0.2,0.2,0.4,0.6,0.6v0.2c0,0.3-0.2,0.6-0.6,0.8v0.6c0,1.2-0.2,3.2-0.6,6c0,0.1,0.1,0.3,0.1,0.5c0,0.4-0.1,0.8-0.4,1.4l0.3,0.6
		l-0.4,1.7l-0.2,1.8c0,0.2-0.2,0.6-0.5,1.2l0.2,0.8l-0.4,1.3l0.4,1l-0.6,2.3l0.4,1.7l-0.2,1l0.1,0.9l-0.4,0.2
		c0.5,0.8,0.7,1.2,0.7,1.2c0,0.2-0.1,0.4-0.4,0.4l0.1,0.5l-0.1,0.2l0.5,0.5l-0.4,1.2l0.5,1.6l-0.2,0.5l0.2,0.5l-0.4,1.3l0.4,0.4h0.6
		l0.5,0.6l1-0.3l0.4,0.6L464.3,317.1z M457.5,297.4l-0.4-0.1l-0.7-0.7l-0.6-0.4c-0.1,0-0.3-0.4-0.5-0.9c-0.3-0.6-0.6-1-1-1.4
		c-0.3-0.1-0.5-0.2-0.6-0.4V293l-1.1-0.2l-1.1-0.6c-0.2-0.1-0.5-0.3-0.9-0.4c-0.4-0.1-0.8-0.2-1.5-0.4l-2.2,0.3l-0.6,0.4l-0.7-0.5
		l-1.1,0.4H443l-0.2,0.6l-0.4,0.2c0,0.4,0.1,0.6,0.3,0.7c-0.3,0.4-0.9,0.9-1.8,1.6l-0.5,1.3l-0.7,0.4l-0.6,2l-0.2,2.1l-0.7,0.6v1.2
		c-0.5,0.5-0.8,0.9-0.8,1.2l0.1,1.7l-1.2,2.3l-0.3,1.6l-0.1,2.4l0.2,0.5l-0.5,1l0.4,0.6l-0.6,1.2c0.4,0.8,0.7,1.6,1,2.6l0.7,0.4
		l-0.1,0.5h0.7c0.5,0.3,0.8,0.5,0.9,0.5c0,0,0.2-0.1,0.3-0.4c0.2-0.2,0.5-0.4,1.1-0.4v0.3c0.3-0.2,0.5-0.5,0.6-0.7
		c0.4,0,0.6-0.2,0.6-0.5l0.7-0.3l0.3,0.2l0.2-0.8l1.4-0.6l0.1-0.6l1-0.6v-0.4l0.8-0.8l0.2,0.1c0.2,0,0.3-0.2,0.3-0.5h0.5v-0.4
		l1.2-0.5l-0.3-1.1l0.8-0.5l-0.5-0.5c0.1,0,0.2,0.1,0.4,0.1c0.3,0,0.5-0.1,0.9-0.4l0.1-0.3l0.8-0.1l0.8-2.1l0.7-0.7l0.3-1.3l0.9-0.3
		c0.7-1.1,1.2-1.9,1.6-2.2v-1l0.7-0.3l1.8-3.6L457.5,297.4z"/>
	<path class="st1" d="M497.7,292.3l-0.2,0.9l-2.1,0.3l-1.4,1l-0.9,0.1l-1.2,0.7l-1.2,0.5c-0.6,0.5-1,0.8-1.4,0.9v0.4l-1.1,0.5
		l-0.7,1.2h-0.8l-0.4,1.1l-0.8,0.5c-0.3,0.2-0.6,0.4-0.8,0.8l-0.7,1.3c-0.5,0.3-0.9,0.9-0.9,1.9l-0.4-0.1l-0.1,0.5l-0.5,0.4
		l-0.5,1.2c-0.5,0.7-0.8,1.3-0.8,1.7l-0.7,0.3v1.5c-0.1,0.2-0.3,0.4-0.4,0.8l0.1,0.2l-0.7,0.3l0.2,0.6c-0.1,0.5-0.4,1.3-1.1,2.6
		l0.4,0.9l-0.7,1.2c0.1,0.5,0.1,0.8,0.1,1.1l-0.1,1.2l0.3,1.3c0,0.1,0.1,0.2,0.3,0.4l0.5,0.5c-0.3,0.6-0.6,1-0.9,1.2l-0.9-0.4
		l0.1,0.6L476,322v-0.9l-0.2-0.6l0.2-1.2l-0.2-0.5l0.1-2.5l-0.1-1.7c-0.3-0.1-0.5-0.3-0.5-0.4c0-0.2,0.2-0.5,0.5-0.9v-1.1
		c0-0.6,0-1-0.1-1.2l0.3-0.4l-0.3-1.4l0.2-1.1l-0.2-0.7l0.2-1.9l-0.4-0.6l0.2-0.7l-0.4-1.4l0.1-1.1c0-0.3,0-0.7-0.1-1.3l0.2-0.4
		l-0.4-2.5l-0.5-0.4l0.5-1.2c-0.5-0.7-0.7-1.5-0.7-2.4v-1c-0.2-0.2-0.4-0.5-0.4-0.7c0.3-0.4,0.9-0.8,1.8-1.2l0.5,0.1
		c0.1,0.6,0.4,1.1,0.8,1.7l-0.1,1.8l0.7,5.4c0,0.4-0.1,0.7-0.4,0.9l0.4,1.5l-0.2,1.1l0.2,1.2l-0.1,0.9l0.5,1.1l-0.3,0.2l0.2,1.7
		l0.6,0.1l0.2-1.4c0-0.2,0.3-0.6,0.8-1.3c0.6-0.5,0.9-1.1,0.9-1.8v-0.4l0.5-0.2c0.1,0,0.1-0.1,0.2-0.3c0-0.2,0.1-0.3,0.2-0.3h0.2
		l0.4-1.4l1.1-0.7l0.1-0.4h0.5l-0.2-0.8l1.1-0.5l0.1-0.9l1-0.1c0.5-0.4,0.9-0.9,1.1-1.4l0.7-0.1c0.1-0.2,0.5-0.6,1.3-1.3
		c0.2,0,0.3-0.1,0.4-0.2l1.2-0.6l0.3-0.5l0.6-0.4c1.2-0.9,2.1-1.4,2.5-1.4h0.3c0.4,0,0.8-0.1,1-0.4l0.6,0.2c0.3-0.2,0.6-0.4,0.8-0.4
		C497.2,292.1,497.7,292.2,497.7,292.3z"/>
	<path class="st1" d="M525.7,319.8l-1,0.5l-0.2,0.6c-0.4,0.1-0.8,0.2-1.1,0.4l-0.4-0.2l-0.5,0.2l-1.1-1.4v-1.6l-0.5-0.5l0.1-2.2
		l-0.4-4.6l0.3-1.5l-0.5-0.8l0.6-0.4l-0.4-0.6l0.1-0.7l0.4-0.3L521,306h0.4v-1.4l0.1-0.7c-0.2,0-0.4-0.3-0.7-0.7l-1.1,0.5
		c-0.3,0.6-0.6,1-0.9,1.2l-0.1,0.8l-0.8,0.4l-0.1,1l-0.5,0.4v0.5c-0.5,0.4-0.8,0.8-1,1.3l-0.5,0.3l-1.1,1.9l-1.7,1.7l-0.6,0.9
		l-1.5,1.6l-0.4,0.8l-2.1,1.4l-2.3,2.7l-0.8,0.2c-0.2,0-0.6,0.3-1.1,0.7H504c-0.4,0-0.7-0.4-0.9-1.2c-1.8-0.7-2.8-1.7-2.8-3l0.6-0.4
		c-0.3-0.9-0.5-1.9-0.6-2.8l-0.4-0.3l0.2-0.4c0.1-0.1,0.2-0.4,0.2-0.7c0-0.3,0.1-0.8,0.2-1.4l0.5-2.7c0-0.1-0.1-0.3-0.1-0.5
		c0-0.3,0.1-0.5,0.2-0.8c-0.1-0.4-0.1-0.6-0.1-0.8c0-0.2,0-0.4,0.1-0.7l0.3-0.1c0.4-0.5,0.6-1,0.6-1.4c0-0.2-0.1-0.4-0.2-0.6
		c-0.2-0.1-0.2-0.2-0.2-0.3c0-0.2,0.1-0.3,0.4-0.4c-0.4-0.1-0.5-0.2-0.5-0.5c0-0.2,0.2-0.4,0.7-0.4v-0.1c0-0.5,0.1-1,0.4-1.4
		c0.3-0.4,0.5-0.7,0.5-0.9l-0.5-0.1l0.9-1.5v-0.4c0-1,0.3-1.9,1-2.6l-0.1-1.3l0.3-0.2c-0.2-0.2-0.2-0.4-0.2-0.7
		c0-0.1,0.2-0.2,0.5-0.2v-1.2c0.2-0.1,0.4-0.2,0.4-0.4c0-0.2,0-0.3-0.1-0.4c0.1-0.2,0.5-0.6,1-1.2c0.5-0.6,0.9-1,1-1.4h0.2
		c0.5,0,0.8-0.1,0.8-0.4c0-0.1-0.1-0.2-0.2-0.4c1,0,1.5-0.2,1.5-0.6l1.3-0.7l3.7,0.3v0.3l3,0.6h0.3c0.4,0,0.7,0.2,0.7,0.6l0.4-0.1
		c0.1,0.4,0.4,0.6,0.8,0.6l0.4-0.1l0.6,0.6l1.5,0.4v0.6c0.7-0.4,1.5-0.8,2.6-1.2v1.2h-0.4l0.7,0.4L525,291l0.6,1.8l-0.6,0.7
		l-0.3,1.2c-0.1,0.4-0.3,0.9-0.7,1.5l0.5,0.9c0,0.1-0.2,0.3-0.4,0.6c-0.2,0.3-0.3,0.8-0.3,1.6c0.1,0.1,0.2,0.2,0.2,0.4l-0.1,0.6
		l0.1,0.5l-0.2,0.8l0.1,0.7l-0.4,0.5l0.1,1.6l-0.2,0.2l0.2,0.3l-0.2,0.2c0,0,0.1,0.1,0.1,0.3c0,0.2-0.1,0.4-0.2,0.6l0.2,0.5L523,307
		c-0.2,0.1-0.3,0.5-0.3,1l0.3,0.9l-0.7,0.9c0.2,0.5,0.5,0.8,0.7,0.9c-0.4,0.5-0.6,1.4-0.9,2.8l0.6,0.1l-0.1,0.4
		c0,0.1,0.1,0.2,0.1,0.5c0,0.4-0.2,0.9-0.5,1.4h0.5l0.2,1.1l1.4,0.1l0.5,0.9c-0.1,0.1-0.2,0.2-0.2,0.2c0,0.2,0.2,0.4,0.7,0.7h-0.1
		c-0.1,0-0.1,0-0.1,0.1C525.1,319.3,525.3,319.5,525.7,319.8z M522,294l-0.4-1.3l-1.2-0.4l-2-1.8c-0.3-0.2-0.6-0.3-0.7-0.3
		c-0.1,0-0.3,0-0.6,0.1l-0.4-0.4h-1.2l-0.4-0.5l-0.8,0.3l-0.4-0.3l-0.6,0.2l-1.1-0.2c-0.5,0-1.4,0.3-2.5,0.8l0.1,0.3l-0.6,0.2
		l-0.1,0.3l-0.8,0.1v0.4c-0.5,0.3-1,1-1.7,2.3c-0.4,1.5-0.8,2.7-1.3,3.7l0.6,0.3l-0.9,0.8l0.3,0.6c-0.4,0.6-0.6,1.4-0.6,2.2v0.4
		l-0.5,0.8v1.2c-0.4,0.4-0.6,0.9-0.6,1.3l-0.3,0.3v1.3l-0.2,0.4c0,0.5-0.1,1.1-0.3,1.9l0.4,0.9c-0.3,0.1-0.6,0.4-1,0.9l0.3,0.6
		L502,312l0.6,1.4l-0.6,0.9l0.1,1.7l-0.2,0.8l0.4,0.2l0.1,0.5c0.4,0.2,0.7,0.4,1,0.8l1.7-0.4c0.3-0.7,0.8-1.1,1.6-1.1l-0.1-0.5
		c0.7-0.2,1.1-0.3,1.1-0.3c0,0,0.1-0.1,0.2-0.4c0.1-0.3,0.3-0.5,0.6-0.7h0.1c0.1,0,0.2-0.1,0.2-0.3l1.3-1.5h-0.3l0.8-0.7
		c0.3-0.3,0.6-0.5,1.2-0.7l0.5-1.4c0.9-0.4,1.4-0.9,1.5-1.5h0.4l0.7-0.9l-0.1-0.6l0.7-0.1c-0.1-0.2-0.1-0.3-0.1-0.4s0.2-0.3,0.5-0.8
		c0.3-0.5,0.6-0.8,0.8-1.1l0.3,0.1c0.1-0.6,0.3-1,0.8-1.3c0.1-0.4,0.3-0.7,0.6-0.9c0.3-0.2,0.5-0.3,0.6-0.3h0.5l0.1-0.9
		c0.1-0.1,0.1-0.2,0.1-0.3c0-0.1-0.1-0.3-0.2-0.4c0.4-0.7,0.8-1.1,1-1.3l0.1-0.8l0.5-0.4l-0.1-0.6c0.3-0.4,0.5-0.9,0.5-1.3l0.6-0.6
		L522,294z"/>
	<path class="st1" d="M555,314c0.4,0.5,0.5,0.9,0.5,1.2c0,0.2-0.2,0.6-0.7,1.2c-0.4,0.6-0.8,1.3-1,1.9l-0.5,0.1l-0.8,1.5l-0.9,0.1
		l-1.9,1.3l-0.4,0.8l-0.6-0.1l-0.6,0.7h-1l-0.2,0.4l-0.5-0.1c-0.5,0-1,0.2-1.4,0.7l-0.5-0.4c-0.5,0.2-0.9,0.4-1.2,0.4
		c-0.5,0-1-0.1-1.3-0.4c-0.2,0-0.6,0.1-0.9,0.1l-0.4-0.4c-1.3-0.1-2.2-0.4-2.6-1.1v-0.9l-1.2-0.6l-0.3-0.7c-0.1-0.2-0.4-0.5-0.8-0.9
		v-0.6l-0.8-3.4l0.1-2.4l0.3-1.4v-1.5l0.4-1.3l-0.1-0.9c0.3-0.2,0.4-0.5,0.5-0.8s0.2-0.7,0.4-1.1c-0.1-0.4-0.2-1-0.3-1.8l0.6-0.5
		l-0.6-0.7c0.3-0.5,0.5-0.9,0.5-1l-0.4-2.1c0-0.5,0.1-1,0.2-1.5c0.3,0.4,0.6,0.6,0.9,0.6c0.2,0,0.6-0.1,1.4-0.3
		c0-0.1-0.1-0.3-0.1-0.5c0-0.3,0.2-0.6,0.6-0.9c0.4-1.2,0.9-2.3,1.6-3.3c0.4-0.4,0.7-0.8,0.7-1.4h0.4l0.4-0.7l0.4-0.2
		c0.1-0.3,0.3-0.7,0.7-1.1c0.5-0.2,1.2-0.7,1.9-1.7c0.1,0,0.3,0.1,0.6,0.1c0.1,0,0.3-0.3,0.6-0.8c0.8-0.3,1.3-0.4,1.3-0.4
		c0.2,0,0.4,0.1,0.6,0.4l0.7-0.1l0.4,0.3h0.4c0.3,0.8,0.7,1.2,1.4,1.2h0.2c0.1,0.3,0.2,0.6,0.5,0.7l-0.3,0.1
		c0.8,0.4,1.2,1.3,1.2,2.8l-0.2,0.8l0.2,2l-0.4,0.3l-0.8,2.1l-1.4,1.8l-0.1,1c-1.7,1.4-3.1,2.4-4.2,2.9c-0.1,0.3-0.2,0.4-0.5,0.4
		c-0.1,0-0.3,0-0.6-0.1l-1.6,1.1h-0.9l-1.4,0.6l-0.6-0.4c-0.2-0.1-0.7-0.2-1.5-0.3c-0.7,0.7-1.1,1.6-1.1,2.6l-0.5,0.6
		c-0.1,0.9-0.2,1.5-0.4,1.9l-0.4,0.2l0.4,2.6l-0.4,0.4l0.1,0.8l-0.1,1c0,0.2,0.1,0.6,0.2,1.3c0.1,0.7,0.3,1.1,0.6,1.3
		c-0.1,0.3,0.1,0.7,0.7,1.2c0.6,0.5,1.2,0.8,1.8,1v0.4l1.9,0.3l2.7,0.1l1.8-0.2c0.7-0.5,1.3-0.8,1.6-0.9l0.6-0.8h0.7l0.1-0.4
		c1-0.4,1.6-0.6,1.7-0.7c0.1-0.1,0.2-0.3,0.2-0.4c0.1-0.3,0.4-0.4,0.6-0.4l0.2-0.5c1.1-0.2,1.7-0.9,2-2.1
		C554.4,314.1,554.7,314,555,314z M549.1,297.6c0.2,0,0.5-0.3,0.9-0.9l0.2-0.8c0.6-1,0.9-1.6,1-1.9c0.1-0.3,0.1-0.6,0.1-1
		c0-0.4-0.2-1.1-0.5-2.1l-1.4-0.5c-0.4,0.1-0.6,0.1-0.7,0.1l-0.4-0.1c-0.4,0-0.6,0.2-0.7,0.6c-0.4,0-1.1,0.2-1.9,0.5l-0.2,0.5
		c-0.1,0-0.2-0.1-0.3-0.1c-0.1,0-0.1,0-0.2,0c-0.1,0-0.1,0.1-0.2,0.1c0,0-0.1,0.1-0.1,0.2c0,0.1-0.1,0.1-0.1,0.2
		c0,0.1-0.1,0.2-0.1,0.3s-0.1,0.2-0.1,0.3s-0.2,0.3-0.4,0.6l-0.5,0.6l-1,1.9l-0.5,0.5c-0.2,0.1-0.3,0.4-0.4,0.9
		c-0.1,0.5-0.7,1.6-1.9,3.4l0.5,0.3l0.2,0.6l1.2,0.4c0.7-0.5,1.4-0.8,2.2-0.9l0.2-0.4c0.3,0.1,0.4,0.1,0.6,0.1
		c0.2,0,0.5-0.1,0.7-0.4l0.8-0.1l0.5-0.9h0.5l0.4-0.8c0.6,0,1.2-0.3,1.8-0.9V297.6z"/>
	<path class="st1" d="M260.7,381.4l-0.4,0.9c-0.1,0.3-0.4,0.6-0.6,0.9l-1.1,1.1v0.5c-0.5,0.1-1,0.4-1.2,0.8
		c-0.3,0.4-0.6,0.6-0.8,0.6c-0.4,0.8-1.5,1.3-3.1,1.7c-0.6,0.8-1.4,1.2-2.6,1.2h-0.4v0.4H249l-0.8,0.7l-0.8,0.1
		c0,0.4-0.2,0.6-0.5,0.6l-0.7,0.5h-1.7l-1,0.9l-3,0.6l-0.4,0.3l-1.7-0.1c0,0.2-0.3,0.6-0.6,1.2c-0.2-0.2-0.9-0.3-2.1-0.4l-0.7,0.4
		l-1,0.4c-0.5,0.3-1,0.6-1.6,0.7l-0.4,1.4l0.7,1.4l-0.4,1.7l0.5,2l-0.5,0.3l0.6,0.8v1.4l0.3,0.7v1.3l1.7-0.1
		c0.2,0.2,0.4,0.5,0.4,0.8c0,0.7-0.5,1.1-1.5,1.1h-0.4l-1.2,0.4l-1-1.8l-1.3-2.8v-3l-0.7-1.4l0.5-0.6l-0.3-1.4l0.1-1l-0.5-0.6
		l-3-0.5l-0.8-1.1l3.6-0.3l-0.4-0.2c0.1-0.1,0.2-0.1,0.4-0.1c0.3,0,0.4,0,0.5,0.1V392l0.5-0.8l0.2-4.3l0.4-0.5l-0.1-3.3l0.3-1.8
		l0.1-4l0.5-1.1l0.6-0.4l-0.1-1.1c0-0.5,0.3-0.7,0.8-0.7c1.6,0,2.5,0.6,2.5,1.7c0,0.3-0.2,0.8-0.6,1.6c-0.4,0.8-0.6,1.3-0.6,1.7
		c0,0.4,0.3,1.1,0.8,2l-0.7,0.6l-0.1,1.9l-0.9,0.9l0.3,1.5l-0.6,1.7l0.3,1.6l-0.3,1.2l0.1,0.9l-0.5,0.8c0.1,0.8,0.4,1.3,1,1.4
		l1.8-1.1h1.5c0.7-0.7,1.5-1,2.5-1l0.5-0.5c0.2,0.1,0.6,0.1,1,0.1c1,0,1.9-0.4,2.9-1.2l1.2-0.1l0.9-0.8h0.9l0.2-0.4l3.8-1.1
		c0.7-0.1,1-0.2,1-0.5c0.2-0.2,0.3-0.4,0.4-0.7c0.2,0,0.5,0.1,0.8,0.1c0.7,0,1.1-0.4,1.2-1.3c0.8-0.1,1.2-0.2,1.2-0.5
		s0.3-0.4,0.6-0.5l0.4,0.4l0.4-1.1l0.5-0.4l0.3-1.6c-0.4-1.1-0.9-2-1.6-2.9l-0.7-0.1l-1.3-1.2l-2.7-1.1c-1.7-1.3-3.5-2-5.5-2.2v0.5
		l-1.2-0.8l-1.7,0.1l-1-0.7h-1.2l-1-0.6h-1c-0.5,0-0.9-0.2-1.2-0.6l-2.8-0.4c-0.5,0.2-1.2,0.4-2.2,0.8l-1.7-1l-1,0.6l-0.8-0.5
		l-1.5,0.5v0.2h-0.6l-1.4,0.8l-1,0.1c-0.3,0-0.8,0.3-1.4,0.7c-0.6-0.8-1-1.7-1.2-2.6l0.7-1v-0.5c0.1-0.2,0.5-0.3,1.3-0.4
		c0.7-0.1,1.4-0.2,2-0.5c0.5,0.1,0.9,0.2,1,0.2c0.2,0,0.4-0.1,0.6-0.3l0.6,0.3c0.4-0.1,0.6-0.2,0.7-0.2c0.3,0,0.5,0.2,0.6,0.5h3.5
		l2.1,0.1l2.4,0.4c0.1,0.2,0.3,0.3,0.6,0.4c0.3,0.1,0.4,0.2,0.4,0.3l0.5-0.5h0.3c0.5,0,0.8,0.1,0.8,0.3c0,0.1,0,0.2-0.1,0.2h1
		c1.3,0.4,2.4,0.6,3.2,0.6l0.2,0.4h2l1.3,0.9c0.1,0.1,0.6,0.2,1.5,0.3l0.4,0.6h0.4c1.2,0,2.1,0.5,2.6,1.4l0.9-0.5v0.9
		c0.4,0.1,1.1,0.5,1.8,1.1h0.8l0.7,1l2.3,1.5v0.8L260.7,381.4z"/>
	<path class="st1" d="M287.3,389.7l-0.5,1.5l0.3,0.6l-0.2,1.7c0,0.2-0.2,0.6-0.5,1.1v0.8l-0.5,1.4l-0.4,0.6
		c-0.1,0.2-0.4,0.8-0.7,1.8l-0.5,0.2l-0.3,0.9l-0.8,0.5l-0.6,1.3l-1.1,0.5l-0.1,0.9l-0.9,0.4c-0.4,0.6-0.7,1-0.9,1.1
		c-0.1,0.2-0.4,0.3-0.9,0.5c-0.5,0.2-0.8,0.3-1,0.4c-0.1,0.8-0.8,1.2-2,1.3c-0.3,0.4-0.6,0.5-1,0.5c-0.1,0-0.3,0-0.6-0.1
		c-0.7,0.6-1.3,0.9-1.8,1.1l-0.6,0.9l-0.9-0.6l-0.2,0.4l-1.1-0.4l-2.5-0.2c-0.4-0.8-1-1.7-1.9-2.6l0.3-0.9l-1-2.6l0.4-0.8l-0.4-2
		l0.4-1.1c0-0.1,0-0.4-0.1-0.9s-0.1-0.8-0.1-1c0-0.5,0.2-0.9,0.7-1.2v-0.4c0-0.5,0.1-1.1,0.4-1.6h0.4c0.4-0.4,0.5-0.9,0.5-1.4
		l-0.2-0.5l0.2-1.1v-0.7c0.4-0.5,0.6-1,0.6-1.6l-0.2-1.2c0-0.4,0.1-0.6,0.2-0.8c0.7-0.4,1.1-0.7,1.1-1.1c0-0.2-0.1-0.5-0.3-0.7
		l0.7-1.2c0.1-0.2,0.2-0.3,0.4-0.5c0.2-0.1,0.3-0.2,0.4-0.2l-0.1-0.7c0.8-0.1,1.1-0.5,1.1-1.2c0-0.4-0.1-0.9-0.2-1.3
		c1.6,0,2.6-0.8,3.2-2.5h0.5c0.3-0.3,0.6-0.5,0.7-0.5c0,0,0.3,0.1,0.6,0.2c0.4,0.1,0.9,0.2,1.7,0.2l1.1-0.5v0.5
		c0.5,0,1.1,0.3,1.8,0.8h1c0.2,0.5,0.5,0.7,0.7,0.7l0.1-0.1c0.5,0.8,1.1,1.4,1.7,1.8l0.4,0.9l0.7,0.3l1.1,1.7l1.2,3.3v0.7
		L287.3,389.7z M285,391.7c0.3-0.4,0.4-0.6,0.4-0.9c0-0.2-0.1-0.3-0.2-0.5c-0.2-0.2-0.2-0.3-0.2-0.3h0.4c-0.1-0.3-0.2-0.5-0.5-0.7
		l0.1-0.2l-0.5-1.2l0.1-1.6l-0.7-1.1c-0.5-0.3-0.8-0.6-0.8-0.7v-0.2c0-0.2-0.1-0.3-0.3-0.4c-0.2-0.1-0.3-0.2-0.3-0.3v-0.1
		c0-0.1,0.1-0.4,0.3-0.9l-0.5-0.4l-0.7-0.1l-0.3-0.5l0.3-0.4l-0.9-0.5l-0.7-0.7l-2-0.8l-0.8-0.2c-1.4,0-2.1,0.4-2,1.2l0.1,2.4
		l-1.4,0.1l-2.3,1.4l-0.2,0.8l-0.8,0.5l-0.4,2.1l-0.7,0.5c-0.1,0.1-0.2,0.4-0.2,1c0,0.5,0,1,0.1,1.3l-0.9,0.5
		c-0.2,0.1-0.3,0.6-0.3,1.4c0,0.4-0.2,0.7-0.7,1.1v0.7l-0.6,1v0.6l-0.2,0.5l0.1,1l-0.9,2.3l0.3,0.8v1.7l-0.3,1.2l0.1,1.8l1.1,1.4
		c0.1,0.2,0.5,0.4,1.3,0.8l0.2,0.4l0.5-0.1l0.5,0.1l0.8-0.4l1.7,0.1l0.8-0.2l0.2-0.5l0.7,0.1c0.8,0,1.1-0.2,1.1-0.7l1,0.3l0.2-0.6
		l0.7-0.1l0.4-0.8c0.5-0.4,0.8-0.7,0.8-1h1.2l0.4-0.7l1.2-1.1l0.5-0.7c0.2-0.3,0.4-0.5,0.6-0.6l1-0.5c0.1-0.7,0.3-1.3,0.6-2
		l-0.1-0.6l1-0.5l-0.1-0.4c0.3-0.4,0.5-0.7,0.8-1h-0.4c0.2-0.3,0.3-0.5,0.3-0.6c0-0.1,0-0.3-0.1-0.5s-0.1-0.4-0.1-0.4
		c0-0.3,0.1-0.6,0.2-1s0.2-0.6,0.2-0.7C285.3,391.9,285.2,391.8,285,391.7z"/>
	<path class="st1" d="M318.7,378.7l-0.2,0.9l-2.1,0.3l-1.4,1l-0.9,0.1l-1.2,0.7l-1.2,0.5c-0.6,0.5-1,0.8-1.4,0.9v0.4l-1.1,0.5
		l-0.7,1.2h-0.8l-0.4,1.1l-0.8,0.5c-0.3,0.2-0.6,0.4-0.8,0.8l-0.7,1.3c-0.5,0.3-0.9,0.9-0.9,1.9l-0.4-0.1l-0.1,0.5l-0.5,0.4
		l-0.5,1.2c-0.5,0.7-0.8,1.3-0.8,1.7l-0.7,0.3v1.5c-0.1,0.2-0.3,0.4-0.4,0.8l0.1,0.2l-0.7,0.3l0.2,0.6c-0.1,0.5-0.4,1.3-1.1,2.6
		l0.4,0.9l-0.7,1.2c0.1,0.5,0.1,0.8,0.1,1.1l-0.1,1.2l0.3,1.3c0,0.1,0.1,0.2,0.3,0.4l0.5,0.5c-0.3,0.6-0.6,1-0.9,1.2l-0.9-0.4
		l0.1,0.6l-1.6-0.3v-0.9l-0.2-0.6l0.2-1.2l-0.2-0.5l0.1-2.5l-0.1-1.7c-0.3-0.1-0.5-0.3-0.5-0.4c0-0.2,0.2-0.5,0.5-0.9v-1.1
		c0-0.6,0-1-0.1-1.2l0.3-0.4l-0.3-1.4l0.2-1.1l-0.2-0.7l0.2-1.9l-0.4-0.6l0.2-0.7l-0.4-1.4l0.1-1.1c0-0.3,0-0.7-0.1-1.3l0.2-0.4
		l-0.4-2.5l-0.5-0.4l0.5-1.2c-0.5-0.7-0.7-1.5-0.7-2.4v-1c-0.2-0.2-0.4-0.5-0.4-0.7c0.3-0.4,0.9-0.8,1.8-1.2l0.5,0.1
		c0.1,0.6,0.4,1.1,0.8,1.7L298,381l0.7,5.4c0,0.4-0.1,0.7-0.4,0.9l0.4,1.5l-0.2,1.1l0.2,1.2l-0.1,0.9l0.5,1.1l-0.3,0.2l0.2,1.7
		l0.6,0.1l0.2-1.4c0-0.2,0.3-0.6,0.8-1.3c0.6-0.5,0.9-1.1,0.9-1.8v-0.4l0.5-0.2c0.1,0,0.1-0.1,0.2-0.3c0-0.2,0.1-0.3,0.2-0.3h0.2
		l0.4-1.4l1.1-0.7l0.1-0.4h0.5l-0.2-0.8l1.1-0.5l0.1-0.9l1-0.1c0.5-0.4,0.9-0.9,1.1-1.4l0.7-0.1c0.1-0.2,0.5-0.6,1.3-1.3
		c0.2,0,0.3-0.1,0.4-0.2l1.2-0.6l0.3-0.5l0.6-0.4c1.2-0.9,2.1-1.4,2.5-1.4h0.3c0.4,0,0.8-0.1,1-0.4l0.6,0.2c0.3-0.2,0.6-0.4,0.8-0.4
		C318.2,378.5,318.7,378.6,318.7,378.7z"/>
	<path class="st1" d="M327.4,379.9l5,0.2l4.7-0.2l1.2,0.1l0.5-0.1h2.6c0.5,0,0.7,0.2,0.7,0.6c0,0.5-0.4,0.8-1.2,0.9
		c-0.1-0.1-0.3-0.1-0.6-0.1c-0.3,0-0.6,0.1-0.9,0.4l-1-0.2l-1.9,0.1c-0.9,0.5-1.8,0.7-2.7,0.7l-1.4-0.2l-0.7,0.7h-0.7v-0.4l-1.2,0.6
		h-0.6l-0.2,0.6c-0.4-0.1-1.1-0.2-2.1-0.3c-0.1,0.3-0.2,0.4-0.4,0.4c-0.1,0-0.2-0.1-0.4-0.3l-1,0.1l-0.7,0.7l-0.2,3.5l0.1,2.1
		l-0.2,2.7l0.1,3l0.2,1.4v1.3l0.8,1.8v0.3c0,0.8,0.5,1.6,1.4,2.4l0.2,0.6l1.3,0.3l0.9,1l2.7,0.5l3.5-0.8l1,0.3l2.5-1.2l0.9,0.1
		c0.3,0.3,0.5,0.6,0.5,0.9c0,0.4-0.3,0.7-0.9,1.2l-0.5-0.2l-1.1,0.9l-2.4,0.3l-0.8,0.5l-0.8-0.5c-0.8,0.4-1.6,0.6-2.5,0.6l-1.4-0.3
		H329l-2.6-1.5l-1.2-1.7l-0.8-0.9l-1.3-3.4l-0.6-3.2l0.3-1.3l-0.6-0.7l0.3-0.8l-0.3-1.3l0.7-0.6l-0.3-0.7l0.2-0.8l-0.3-0.9l0.1-1.4
		l-0.1-0.7l0.3-0.2v-2.6c-0.1-0.6-0.3-0.9-0.6-0.9c-0.2,0-0.3,0.1-0.4,0.3l-0.8-0.4l-1.1,0.3l-1.2-0.8H318c-0.6,0-0.8-0.3-0.8-0.9
		l0.1-1.1l-0.5-0.4l0.3-0.6l1.1,0.1l0.8-0.1l1.2,0.4h3l0.1-1.7v-1.7l-0.5-1.2l0.6-0.4c0.1-0.3,0.1-0.5,0.1-0.5
		c0-0.3-0.2-0.6-0.6-0.8l0.1-2.8l-0.6-0.9l0.1-0.6c-0.5-0.1-0.7-0.3-0.7-0.6l0.5-1.9c0.4-0.5,0.6-0.8,0.7-1c1.4,0.7,2.1,1.1,2.1,1.2
		v0.1l-0.3,0.7c0.3,0.7,0.5,1.2,0.5,1.6v0.2c-0.1,0.4-0.2,0.7-0.2,1c0,0.2,0.1,0.4,0.2,0.6l-0.1,0.6l0.1,0.8l-0.6,1l0.4,1.8
		l-0.3,2.2l0.3,0.4l-0.4,0.6l0.6,1.8h1.3L327.4,379.9z"/>
	<path class="st1" d="M368.6,389.7l-0.5,1.5l0.3,0.6l-0.2,1.7c0,0.2-0.2,0.6-0.5,1.1v0.8l-0.5,1.4l-0.4,0.6
		c-0.1,0.2-0.4,0.8-0.7,1.8l-0.5,0.2l-0.3,0.9l-0.8,0.5l-0.6,1.3l-1.1,0.5l-0.1,0.9l-0.9,0.4c-0.4,0.6-0.7,1-0.9,1.1
		c-0.1,0.2-0.4,0.3-0.9,0.5c-0.5,0.2-0.8,0.3-1,0.4c-0.1,0.8-0.8,1.2-2,1.3c-0.3,0.4-0.6,0.5-1,0.5c-0.1,0-0.3,0-0.6-0.1
		c-0.7,0.6-1.3,0.9-1.8,1.1l-0.6,0.9l-0.9-0.6l-0.2,0.4l-1.1-0.4l-2.5-0.2c-0.4-0.8-1-1.7-1.9-2.6l0.3-0.9l-1-2.6l0.4-0.8l-0.4-2
		l0.4-1.1c0-0.1,0-0.4-0.1-0.9s-0.1-0.8-0.1-1c0-0.5,0.2-0.9,0.7-1.2v-0.4c0-0.5,0.1-1.1,0.4-1.6h0.4c0.4-0.4,0.5-0.9,0.5-1.4
		l-0.2-0.5l0.2-1.1v-0.7c0.4-0.5,0.6-1,0.6-1.6l-0.2-1.2c0-0.4,0.1-0.6,0.2-0.8c0.7-0.4,1.1-0.7,1.1-1.1c0-0.2-0.1-0.5-0.3-0.7
		l0.7-1.2c0.1-0.2,0.2-0.3,0.4-0.5c0.2-0.1,0.3-0.2,0.4-0.2l-0.1-0.7c0.8-0.1,1.1-0.5,1.1-1.2c0-0.4-0.1-0.9-0.2-1.3
		c1.6,0,2.6-0.8,3.2-2.5h0.5c0.3-0.3,0.6-0.5,0.7-0.5c0,0,0.3,0.1,0.6,0.2c0.4,0.1,0.9,0.2,1.7,0.2l1.1-0.5v0.5
		c0.5,0,1.1,0.3,1.8,0.8h1c0.2,0.5,0.5,0.7,0.7,0.7l0.1-0.1c0.5,0.8,1.1,1.4,1.7,1.8l0.4,0.9l0.7,0.3l1.1,1.7l1.2,3.3v0.7
		L368.6,389.7z M366.3,391.7c0.3-0.4,0.4-0.6,0.4-0.9c0-0.2-0.1-0.3-0.2-0.5c-0.2-0.2-0.2-0.3-0.2-0.3h0.4c-0.1-0.3-0.2-0.5-0.5-0.7
		l0.1-0.2l-0.5-1.2l0.1-1.6l-0.7-1.1c-0.5-0.3-0.8-0.6-0.8-0.7v-0.2c0-0.2-0.1-0.3-0.3-0.4c-0.2-0.1-0.3-0.2-0.3-0.3v-0.1
		c0-0.1,0.1-0.4,0.3-0.9l-0.5-0.4l-0.7-0.1l-0.3-0.5l0.3-0.4l-0.9-0.5l-0.7-0.7l-2-0.8l-0.8-0.2c-1.4,0-2.1,0.4-2,1.2l0.1,2.4
		l-1.4,0.1L353,384l-0.2,0.8l-0.8,0.5l-0.4,2.1l-0.7,0.5c-0.1,0.1-0.2,0.4-0.2,1c0,0.5,0,1,0.1,1.3l-0.9,0.5
		c-0.2,0.1-0.3,0.6-0.3,1.4c0,0.4-0.2,0.7-0.7,1.1v0.7l-0.6,1v0.6l-0.2,0.5l0.1,1l-0.9,2.3l0.3,0.8v1.7l-0.3,1.2l0.1,1.8l1.1,1.4
		c0.1,0.2,0.5,0.4,1.3,0.8l0.2,0.4l0.5-0.1l0.5,0.1l0.8-0.4l1.7,0.1l0.8-0.2l0.2-0.5l0.7,0.1c0.8,0,1.1-0.2,1.1-0.7l1,0.3l0.2-0.6
		l0.7-0.1l0.4-0.8c0.5-0.4,0.8-0.7,0.8-1h1.2l0.4-0.7l1.2-1.1l0.5-0.7c0.2-0.3,0.4-0.5,0.6-0.6l1-0.5c0.1-0.7,0.3-1.3,0.6-2
		l-0.1-0.6l1-0.5l-0.1-0.4c0.3-0.4,0.5-0.7,0.8-1h-0.4c0.2-0.3,0.3-0.5,0.3-0.6c0-0.1,0-0.3-0.1-0.5s-0.1-0.4-0.1-0.4
		c0-0.3,0.1-0.6,0.2-1s0.2-0.6,0.2-0.7C366.6,391.9,366.5,391.8,366.3,391.7z"/>
	<path class="st1" d="M405,362.9c0,0.3-0.1,0.6-0.4,0.9l-0.3-0.3l-0.7,0.4l-0.6-1.4c-0.4-1.3-0.8-2.1-1.1-2.5s-0.6-0.6-0.7-0.6
		l-0.5,0.4c-0.5-0.4-1.2-0.6-2-0.7l-0.8,0.6c-0.4-0.2-0.8-0.3-1.1-0.3l-1.8,0.2c-0.2,0.3-0.3,0.6-0.3,0.9c-0.1,0.2-0.2,0.3-0.3,0.3
		c0,0-0.1,0-0.2-0.1c-0.1-0.1-0.1-0.1-0.2-0.1c-0.4,0-1.3,1.4-2.9,4.3c-0.2,1.3-0.4,2.1-0.6,2.5l-0.4,0.1c-0.3,1-0.6,1.9-1,2.7
		l0.6,1.4l-0.9,0.4c-0.2,1.2-0.4,2-0.7,2.4l0.1,1.2l-1,2.7l0.1,1.4c0,0.3-0.2,0.8-0.5,1.5c-0.2,0.3-0.4,0.7-0.4,1.4
		c0,0.8,0.4,1.2,1.2,1.2h0.4c0.4-0.3,0.7-0.5,1.1-0.5h0.3c0.3,0,0.6,0,1.1-0.1c0.1-0.1,0.3-0.1,0.8,0c0.5,0.1,0.9,0.1,1.2,0.1h0.6
		c0.5-0.2,0.8-0.3,0.9-0.3c0.2,0,0.7,0.2,1.5,0.5l1.6-0.4c0,0,0.1,0,0.4,0.1c0.2,0.1,0.5,0.1,0.7,0.1c0.4,0,0.7,0,0.9-0.1
		c0.3,0.4,0.5,0.5,0.7,0.5c0.4-0.3,0.7-0.4,0.9-0.4c0.1,0,0.2,0.1,0.2,0.4c0,0.1,0,0.4-0.1,0.8l-2,0.7l-2.1-0.5
		c-0.3,0.3-0.9,0.5-1.8,0.7c-0.4-0.4-0.7-0.6-0.9-0.6c-0.2,0-0.6,0.3-1.4,0.9c-0.2,0-0.6-0.1-1.3-0.2l-0.2,0.4l-1.1,0.5l-0.8-0.4
		l-0.5,0.1h-0.6c-0.2,0-0.4,0.2-0.7,0.5c-0.3,0.3-0.6,0.5-1,0.5l-0.8,0.9l0.2,0.9l-0.3,1.2l0.3,1.2l-0.8,1.7l0.2,3l-0.4,1.1l0.2,1
		l-0.7,1.7l0.4,1.6v0.1c0,0.1-0.1,0.4-0.3,0.9s-0.3,1.2-0.3,1.9l-0.1,1.9c0,0.7,0.2,1.2,0.5,1.5l-0.3,0.9l0.5,1.7l-0.3,1.1l0.8,3.9
		l0.2,4.3l1.2,1.6l-0.5,0.4l-0.2,1.1c0.6,0.8,0.9,1.5,0.9,2.1v0.4c0.1,0.5,0.2,0.9,0.2,1.2c0,0.6-0.3,0.9-0.8,1l-0.4-0.8l-0.6-0.4
		l-0.1-0.8l-1.4-4.1v-1.1l-0.5-0.6l0.4-0.7l-0.4-1.6l0.3-1.2c0,0-0.1-0.2-0.2-0.5c-0.1-0.3-0.2-0.7-0.2-1.2c0-0.5,0-0.7,0-0.8
		l-0.5-3.7l0.3-0.1l-0.4-1.8l0.1-1.3l-0.4-0.7l0.3-0.5l-0.1-3.8l0.3-0.4v-3l0.3-0.6l-0.2-2.5l0.2-0.7l0.6-4.8c0-0.2,0.1-0.5,0.2-0.9
		s0.2-0.7,0.2-0.9c0,0-0.2-0.5-0.6-1.4l-1.2,0.5l-1.1-0.4l-0.7,0.4l-0.8-0.5l-0.2,0.3l-1.2,0.2l-1.2-0.3l-2,0.4l-1.1-0.2l-0.3,0.2
		c-0.8-0.3-1.3-0.5-1.6-0.7c-0.3-0.2-0.5-0.7-0.7-1.4l0.4-1.1c0.1-0.3,0.3-0.5,0.6-0.5c0.2,0,0.6,0.1,1.3,0.3l0.2,0.5l2.3-0.3
		l2.9,0.2l2-0.5l1.4,0.1c0.7,0,1.1,0.2,1.4,0.5c0-0.2,0.3-0.4,0.9-0.6l-0.2-0.7l0.4-1.4l0.1-1.3c0-0.4,0.2-1,0.5-1.8l-0.3-1.8
		c0-0.1,0.1-0.2,0.3-0.5c0.2-0.2,0.2-0.5,0.2-0.8v-0.4l0.7-0.7l0.4-2.4l0.4-0.6l-0.2-1.1c0.4-0.7,0.7-1.2,0.8-1.7
		c0-0.1-0.1-0.2-0.1-0.4c0-0.2,0.1-0.6,0.3-1.1c0.2-0.5,0.3-0.9,0.4-1.1c0.1-0.2,0.2-0.5,0.4-0.9c0.2-0.4,0.3-0.7,0.3-0.9l-0.1-0.4
		v-0.2c0-0.3,0.2-0.6,0.6-0.8l-0.2-0.4c0-0.2,0.2-0.4,0.6-0.7c0.5-0.8,0.9-1.6,1.2-2.4c0.4,0,0.8-0.6,1.2-1.7l1.1-0.4h0.9l0.5-0.6
		l1.3,0.4c0.8-0.4,1.4-0.6,1.9-0.6l1.4,0.3c0.5,0.2,0.8,0.3,0.9,0.3c0.2,0,0.5-0.1,1-0.3c0.2,0.1,0.4,0.5,0.6,1.1l1.1,0.7
		c0.4,1,0.9,1.7,1.5,2.4l0.2,1.6V362.9z"/>
	<path class="st1" d="M426.4,389.7l-0.5,1.5l0.3,0.6l-0.2,1.7c0,0.2-0.2,0.6-0.5,1.1v0.8l-0.5,1.4l-0.4,0.6
		c-0.1,0.2-0.4,0.8-0.7,1.8l-0.5,0.2l-0.3,0.9l-0.8,0.5l-0.6,1.3l-1.1,0.5l-0.1,0.9l-0.9,0.4c-0.4,0.6-0.7,1-0.9,1.1
		c-0.1,0.2-0.4,0.3-0.9,0.5c-0.5,0.2-0.8,0.3-1,0.4c-0.1,0.8-0.8,1.2-2,1.3c-0.3,0.4-0.6,0.5-1,0.5c-0.1,0-0.3,0-0.6-0.1
		c-0.7,0.6-1.3,0.9-1.8,1.1l-0.6,0.9l-0.9-0.6l-0.2,0.4l-1.1-0.4l-2.5-0.2c-0.4-0.8-1-1.7-1.9-2.6l0.3-0.9l-1-2.6l0.4-0.8l-0.4-2
		l0.4-1.1c0-0.1,0-0.4-0.1-0.9s-0.1-0.8-0.1-1c0-0.5,0.2-0.9,0.7-1.2v-0.4c0-0.5,0.1-1.1,0.4-1.6h0.4c0.4-0.4,0.5-0.9,0.5-1.4
		l-0.2-0.5l0.2-1.1v-0.7c0.4-0.5,0.6-1,0.6-1.6l-0.2-1.2c0-0.4,0.1-0.6,0.2-0.8c0.7-0.4,1.1-0.7,1.1-1.1c0-0.2-0.1-0.5-0.3-0.7
		l0.7-1.2c0.1-0.2,0.2-0.3,0.4-0.5c0.2-0.1,0.3-0.2,0.4-0.2l-0.1-0.7c0.8-0.1,1.1-0.5,1.1-1.2c0-0.4-0.1-0.9-0.2-1.3
		c1.6,0,2.6-0.8,3.2-2.5h0.5c0.3-0.3,0.6-0.5,0.7-0.5c0,0,0.3,0.1,0.6,0.2c0.4,0.1,0.9,0.2,1.7,0.2l1.1-0.5v0.5
		c0.5,0,1.1,0.3,1.8,0.8h1c0.2,0.5,0.5,0.7,0.7,0.7l0.1-0.1c0.5,0.8,1.1,1.4,1.7,1.8l0.4,0.9l0.7,0.3l1.1,1.7l1.2,3.3v0.7
		L426.4,389.7z M424.1,391.7c0.3-0.4,0.4-0.6,0.4-0.9c0-0.2-0.1-0.3-0.2-0.5c-0.2-0.2-0.2-0.3-0.2-0.3h0.4c-0.1-0.3-0.2-0.5-0.5-0.7
		l0.1-0.2l-0.5-1.2l0.1-1.6l-0.7-1.1c-0.5-0.3-0.8-0.6-0.8-0.7v-0.2c0-0.2-0.1-0.3-0.3-0.4c-0.2-0.1-0.3-0.2-0.3-0.3v-0.1
		c0-0.1,0.1-0.4,0.3-0.9l-0.5-0.4l-0.7-0.1l-0.3-0.5l0.3-0.4l-0.9-0.5l-0.7-0.7l-2-0.8l-0.8-0.2c-1.4,0-2.1,0.4-2,1.2l0.1,2.4
		l-1.4,0.1l-2.3,1.4l-0.2,0.8l-0.8,0.5l-0.4,2.1l-0.7,0.5c-0.1,0.1-0.2,0.4-0.2,1c0,0.5,0,1,0.1,1.3l-0.9,0.5
		c-0.2,0.1-0.3,0.6-0.3,1.4c0,0.4-0.2,0.7-0.7,1.1v0.7l-0.6,1v0.6l-0.2,0.5l0.1,1l-0.9,2.3l0.3,0.8v1.7l-0.3,1.2l0.1,1.8l1.1,1.4
		c0.1,0.2,0.5,0.4,1.3,0.8l0.2,0.4l0.5-0.1l0.5,0.1l0.8-0.4l1.7,0.1l0.8-0.2l0.2-0.5l0.7,0.1c0.8,0,1.1-0.2,1.1-0.7l1,0.3l0.2-0.6
		l0.7-0.1l0.4-0.8c0.5-0.4,0.8-0.7,0.8-1h1.2l0.4-0.7l1.2-1.1l0.5-0.7c0.2-0.3,0.4-0.5,0.6-0.6l1-0.5c0.1-0.7,0.3-1.3,0.6-2
		l-0.1-0.6l1-0.5l-0.1-0.4c0.3-0.4,0.5-0.7,0.8-1h-0.4c0.2-0.3,0.3-0.5,0.3-0.6c0-0.1,0-0.3-0.1-0.5s-0.1-0.4-0.1-0.4
		c0-0.3,0.1-0.6,0.2-1s0.2-0.6,0.2-0.7C424.4,391.9,424.3,391.8,424.1,391.7z"/>
	<path class="st1" d="M449.6,398.1c0.3,0.2,0.5,0.4,0.5,0.7c0,0.6-0.2,0.9-0.5,1c-0.6,0.9-1.1,1.4-1.7,1.4c0,0.2-0.8,1-2.4,2.4
		c-0.5,0.1-0.8,0.3-0.9,0.4c-0.2,0.2-0.5,0.5-1,0.9c-0.7,0-1.1,0.3-1.3,0.8l-0.7,0.2l-0.3-0.1l-0.2,0.6h-0.2c-0.4,0-0.9,0.1-1.5,0.4
		c-0.7,0.3-1.1,0.4-1.2,0.5l-0.7,0.3h-0.5l-0.4-0.6l-0.7-0.6c-0.3-0.7-0.6-1.4-1.1-1.9l-0.2-1.7l0.1-0.8l-0.4-0.5l0.1-2.1l-0.1-1.8
		l0.1-0.9c0.1-0.2,0.2-0.4,0.2-0.6c0-0.3-0.2-0.8-0.5-1.3c0.2-2,0.3-3.1,0.3-3.3c0-0.4-0.2-0.9-0.6-1.3l0.6-0.3l0.2-2.7l-0.1-1.2
		l0.5-1.3l-0.4-1.4c0.4-0.5,0.6-1.1,0.6-1.9V379l0.2-0.6l-0.1-3.5l0.2-3.5c-0.3-0.8-0.4-1.7-0.4-2.7l0.2-2.2l-0.2-0.8l0.4-3.3
		c0.3-0.1,0.5-0.2,0.8-0.4c0.3-0.1,0.5-0.2,0.5-0.2c0,0,0.1,0,0.3,0.1l0.4,1.2l0.7,0.6l-0.5,0.7v0.3c0,0.3,0.1,0.6,0.2,0.9
		c0,0.8-0.2,1.2-0.5,1.2l0.2,0.4c0.1,1.5,0.2,2.5,0.4,3l-0.6,1.9l0.5,0.6c-0.5,0.9-0.8,1.9-0.8,2.7c0,0.5,0.2,0.8,0.6,0.9l-0.5,1.4
		c0.2,0.4,0.3,0.7,0.3,0.8c0,0.2-0.1,0.6-0.3,0.9l0.1,0.8l-0.4,2.3l0,1.1c0,0.3-0.2,1.1-0.6,2.3l0.4,1.5l-0.2,2.7l-0.4,0.3l0.5,0.9
		l-0.3,1.4l-0.3,2.1l0.3,0.5l-0.3,0.2c0.3,0.4,0.5,0.9,0.5,1.7c0,0.1-0.1,0.4-0.3,0.8l0.3,0.8l-0.2,1.1l0.3,0.8l-0.1,0.6l0.8,2.4
		l0.9,0.4c0.8-0.4,1.4-0.6,1.7-0.6l0.4,0.1l1-0.8c0.1-0.1,0.4-0.2,0.9-0.4c0.2-0.4,0.6-0.7,1.2-0.7l0.4-0.4l0.5,0.1l0.1-0.4l0.7-0.2
		l0.7-0.5l0.7-0.2c0,0,0.3-0.2,0.7-0.6c0.4-0.4,0.8-0.7,1.1-0.9c0-0.2,0.2-0.4,0.5-0.5c0.1,0.1,0.2,0.1,0.3,0.1
		C449,398.4,449.3,398.3,449.6,398.1z"/>
	<path class="st1" d="M465.2,361.2c-0.2,0.4-0.6,0.8-1.2,1.2v0.5l-0.6,0.7c-0.2,0.3-0.4,0.4-0.6,0.4c-0.1,0-0.2,0-0.4-0.1l-1.9,2.3
		l-0.5,0.8l-1.7,0.5l-0.9,1.3l-0.8,0.4c-0.2,0.1-0.8,0.6-1.6,1.4l-0.4-0.3l-0.1-0.9l1.7-0.7c0.2-1.2,0.5-1.8,0.9-2
		c0.4-0.2,0.5-0.3,0.5-0.3V366l0.4-0.2l0.1,0.1l0.2-0.5h0.3l-0.3-0.6h1.1v-1l0.5-0.1l0.4-0.6l0.6-0.2l0.5-0.9c0.2,0,0.3-0.1,0.4-0.4
		h0.4l0.1-0.7c0.5-0.4,0.8-0.9,0.9-1.4C464.3,359.6,465,360.2,465.2,361.2z M472.4,397.4l-0.1,0.7l-0.7,0.5l-0.3,0.9l-1,0.3
		c-0.3,0.9-0.6,1.5-1,1.8l-0.9,0.3l-0.8,0.8c-0.2,0.1-0.6,0.5-1.2,1.3h-0.5c-0.3,0.5-0.9,0.7-1.6,0.8c-0.5,0.6-0.8,1-0.9,1.1
		c-0.4,0.2-0.8,0.4-1.4,0.5c-0.6,0.1-0.9,0.2-1,0.2l-0.3,0.4h-1.2l-0.6,0.5l-1.8-1.3l-1-2.3l-0.1-3.7l-0.2-0.7l0.7-5.9l0.5-0.4
		l-0.2-3.7c0-0.4,0.1-0.9,0.2-1.2c0.1-0.4,0.3-0.9,0.4-1.6l0.3-0.2c0-0.7-0.2-1.3-0.5-2l0.3-0.9v-1.3l0.4-0.5c0-0.3-0.1-0.7-0.2-1.1
		c-0.1-0.4-0.2-0.7-0.2-0.7c0-0.4,0.1-0.6,0.3-0.6c0,0,0.1,0.1,0.1,0.1c-0.3-0.8-0.5-1.2-0.5-1.4c0-0.4,0.2-0.5,0.5-0.5
		c0.1,0,0.3,0.1,0.5,0.2c0.2,0.1,0.4,0.2,0.5,0.2c0,0,0.2,0,0.4-0.1c0-0.4,0.2-0.6,0.5-0.6c0.3,0,0.4,0.1,0.5,0.2s0.1,0.6,0.2,1.4
		l0.8,0.4l-0.6,0.8l-0.7,4.6l0.6,1.2c0,0.5-0.2,1-0.7,1.4l-0.2,0.9l0.2,0.8l-0.8,3l0.1,0.4l-0.4,2.4v1.7l-0.5,1.2l0.1,1l-0.1,1.7
		c0,1.3,0.2,2.4,0.6,3.2l-0.1,0.4l0.6,0.4l0.7-0.2l0.8,0.4l1-0.5c0.3-0.2,0.7-0.4,1.2-0.5l0.5-0.5l0.1,0.2l0.4-0.6l0.7-0.2
		c0.5-0.5,1.1-0.8,1.8-0.9c0.2-0.3,0.5-0.5,1-0.6l0.4-0.7l0.8-0.1l-0.2-0.8h0.3l0.1-0.4l1.5-0.8l0.1-0.9l1.4,0.1
		C472.2,397,472.3,397.2,472.4,397.4z"/>
	<path class="st1" d="M499.6,389.7l-0.5,1.5l0.3,0.6l-0.2,1.7c0,0.2-0.2,0.6-0.5,1.1v0.8l-0.5,1.4l-0.4,0.6
		c-0.1,0.2-0.4,0.8-0.7,1.8l-0.5,0.2l-0.3,0.9l-0.8,0.5l-0.6,1.3l-1.1,0.5l-0.1,0.9l-0.9,0.4c-0.4,0.6-0.7,1-0.9,1.1
		c-0.1,0.2-0.4,0.3-0.9,0.5c-0.5,0.2-0.8,0.3-1,0.4c-0.1,0.8-0.8,1.2-2,1.3c-0.3,0.4-0.6,0.5-1,0.5c-0.1,0-0.3,0-0.6-0.1
		c-0.7,0.6-1.3,0.9-1.8,1.1l-0.6,0.9l-0.9-0.6l-0.2,0.4l-1.1-0.4l-2.5-0.2c-0.4-0.8-1-1.7-1.9-2.6l0.3-0.9l-1-2.6l0.4-0.8l-0.4-2
		l0.4-1.1c0-0.1,0-0.4-0.1-0.9s-0.1-0.8-0.1-1c0-0.5,0.2-0.9,0.7-1.2v-0.4c0-0.5,0.1-1.1,0.4-1.6h0.4c0.4-0.4,0.5-0.9,0.5-1.4
		l-0.2-0.5l0.2-1.1v-0.7c0.4-0.5,0.6-1,0.6-1.6l-0.2-1.2c0-0.4,0.1-0.6,0.2-0.8c0.7-0.4,1.1-0.7,1.1-1.1c0-0.2-0.1-0.5-0.3-0.7
		l0.7-1.2c0.1-0.2,0.2-0.3,0.4-0.5c0.2-0.1,0.3-0.2,0.4-0.2l-0.1-0.7c0.8-0.1,1.1-0.5,1.1-1.2c0-0.4-0.1-0.9-0.2-1.3
		c1.6,0,2.6-0.8,3.2-2.5h0.5c0.3-0.3,0.6-0.5,0.7-0.5c0,0,0.3,0.1,0.6,0.2c0.4,0.1,0.9,0.2,1.7,0.2l1.1-0.5v0.5
		c0.5,0,1.1,0.3,1.8,0.8h1c0.2,0.5,0.5,0.7,0.7,0.7l0.1-0.1c0.5,0.8,1.1,1.4,1.7,1.8l0.4,0.9l0.7,0.3l1.1,1.7l1.2,3.3v0.7
		L499.6,389.7z M497.3,391.7c0.3-0.4,0.4-0.6,0.4-0.9c0-0.2-0.1-0.3-0.2-0.5c-0.2-0.2-0.2-0.3-0.2-0.3h0.4c-0.1-0.3-0.2-0.5-0.5-0.7
		l0.1-0.2l-0.5-1.2l0.1-1.6l-0.7-1.1c-0.5-0.3-0.8-0.6-0.8-0.7v-0.2c0-0.2-0.1-0.3-0.3-0.4c-0.2-0.1-0.3-0.2-0.3-0.3v-0.1
		c0-0.1,0.1-0.4,0.3-0.9l-0.5-0.4l-0.7-0.1l-0.3-0.5l0.3-0.4l-0.9-0.5l-0.7-0.7l-2-0.8l-0.8-0.2c-1.4,0-2.1,0.4-2,1.2l0.1,2.4
		l-1.4,0.1L484,384l-0.2,0.8l-0.8,0.5l-0.4,2.1l-0.7,0.5c-0.1,0.1-0.2,0.4-0.2,1c0,0.5,0,1,0.1,1.3l-0.9,0.5
		c-0.2,0.1-0.3,0.6-0.3,1.4c0,0.4-0.2,0.7-0.7,1.1v0.7l-0.6,1v0.6l-0.2,0.5l0.1,1l-0.9,2.3l0.3,0.8v1.7l-0.3,1.2l0.1,1.8l1.1,1.4
		c0.1,0.2,0.5,0.4,1.3,0.8l0.2,0.4l0.5-0.1l0.5,0.1l0.8-0.4l1.7,0.1l0.8-0.2l0.2-0.5l0.7,0.1c0.8,0,1.1-0.2,1.1-0.7l1,0.3l0.2-0.6
		l0.7-0.1l0.4-0.8c0.5-0.4,0.8-0.7,0.8-1h1.2l0.4-0.7l1.2-1.1l0.5-0.7c0.2-0.3,0.4-0.5,0.6-0.6l1-0.5c0.1-0.7,0.3-1.3,0.6-2
		l-0.1-0.6l1-0.5l-0.1-0.4c0.3-0.4,0.5-0.7,0.8-1h-0.4c0.2-0.3,0.3-0.5,0.3-0.6c0-0.1,0-0.3-0.1-0.5s-0.1-0.4-0.1-0.4
		c0-0.3,0.1-0.6,0.2-1s0.2-0.6,0.2-0.7C497.6,391.9,497.5,391.8,497.3,391.7z"/>
</g>
<g>
	<path class="st0" d="M192.7,505h1.3c0.4-0.1,0.7-0.2,0.8-0.2c0.3,0,0.4,0.1,0.4,0.4c0,0.2-0.2,0.3-0.5,0.3h-0.2l-0.7,0.4l-0.8-0.3
		l-1.2,0.7l-0.5-0.3c-0.2-0.1-0.5-0.2-0.8-0.2c-0.1,0-0.3,0-0.6,0.1s-0.5,0.1-0.6,0.1h-0.1l-0.6-0.1l-1,0.4l-0.4,0l-0.2,0.1l-2.2,0
		l-0.6-0.1l-0.2,0.3l-0.8-0.2l-0.5,0.3c-0.2,0.1-0.5,0.1-1,0.1l-0.7-0.1c-0.3,0-0.6,0-0.9,0.1s-0.8,0.1-1.5,0.2l-0.4,0.4l-0.3-0.1
		c-0.1,0.1-0.2,0.4-0.2,0.7c0,0.4,0.2,1.1,0.7,2.2l-0.4,1.1l0.4,0.3l-0.4,0.6c0.3,0,0.4,0.2,0.4,0.5l-0.2,1l-0.1,1.9l0.1,0.7
		l1.7,0.2l1.3-0.3l0.4,0.2c0.1,0.1,0.5,0.1,1.1,0.1c0.3,0,0.6-0.1,0.7-0.3l0.9-0.2l1.1,0.4c0.8-0.2,1.2-0.2,1.3-0.2
		c0.2,0,0.4-0.1,0.8-0.2l0.6,0.2l0.8-0.2l0.4,0.3c0.7,0,1.2-0.1,1.3-0.1s0.2,0,0.4,0c0.1,0,0.2,0,0.4,0s0.3,0,0.4,0
		c0.2,0,0.4-0.1,0.5-0.3l1.2-0.1l0.5,0.1c0.1-0.1,0.2-0.1,0.3-0.1l0.5,0.2h0.3l-0.1,0.3c-0.4,0-0.8,0.2-1.4,0.6H193l-0.4,0.3
		l-1.1-0.1l-0.9,0.3c-0.7,0.2-1.2,0.3-1.5,0.3l-0.8-0.2l-0.2,0.2l-1.5-0.2l-0.6,0.3l-0.9-0.1l-0.7,0.2c-0.5,0.1-0.8,0.2-1.1,0.2
		h-0.3c-0.2,0-0.5,0.1-0.8,0.3l-0.5-0.4l-0.2,0c-0.2,0-0.6,0.2-1.4,0.5l-0.9-0.1l-0.4,0.1l-0.7-0.1c-0.2,0-0.4,0.9-0.6,2.8
		c0,0.5,0,1-0.1,1.5c0.2,0.4,0.3,0.6,0.2,0.8l-0.5,1.5l0.3,0.6l-0.3,0.6l0.1,0.8l-0.2,0.4c0,0.1,0,0.2,0,0.4c0,0.4-0.1,1.1-0.4,2
		s-0.5,1.9-0.7,2.9l-0.5-0.3h-0.3l0.1-0.6v-0.4l0.2-0.2l0-0.6c0-0.2,0.1-0.5,0.4-1l-0.4-0.3v-0.5l-0.2-0.2l0.4-0.7l-0.4-0.1
		c0.1-0.3,0.1-0.6,0.3-0.8s0.2-0.5,0.2-0.5v-0.1l-0.2-0.2l0-0.3l-0.1-0.7l0.3-0.8l-0.1-1.9l0.4-1.9l-0.2-0.8v-0.9
		c0-0.3-0.1-0.4-0.4-0.5l-1.3,0.5l-1-0.5l-0.9,0.1c-0.1,0-0.2,0-0.3,0c-0.2,0-0.4-0.2-0.4-0.7c0-0.4,0.1-0.7,0.2-0.9s0.5-0.3,1-0.3
		c0.4,0,0.8,0,1.1,0l1.4,0.1h0.3c0.4,0,0.6-0.3,0.8-0.8l-0.2-0.6v-2.3l-0.2,0l0.2-2.6l-0.5-1.4l0-1l-1.3-0.6l-1.1,0.7l-0.4-0.6
		c-0.3-0.1-0.5-0.2-0.5-0.4c0.2-0.2,0.2-0.6,0.2-1.2c0.5,0,0.9-0.1,1.2-0.4s0.6-0.4,0.8-0.4l1.3,0.1c0.1,0,0.4,0,0.9,0l2.4-0.1
		l1.6,0.2l1.6-0.1c0.1-0.1,0.3-0.1,0.4-0.2s0.2-0.1,0.2-0.1c0,0,0.1,0,0.3,0.1s0.2,0.1,0.2,0.1h0.1c0.1,0,0.7-0.1,1.8-0.3l0,0.3
		c0.1-0.2,0.2-0.2,0.3-0.2c0.2,0,0.3,0.1,0.5,0.4l0.3-0.1l1.3-0.1h0.1l2.8,0.4c0.5-0.1,0.9-0.2,1.4-0.2
		C192.4,504.8,192.6,504.8,192.7,505z"/>
	<path class="st0" d="M214.4,510.9l-0.1,0.6l-1.4,0.2l-0.9,0.7l-0.6,0.1l-0.8,0.5l-0.8,0.4c-0.4,0.3-0.7,0.5-0.9,0.6v0.2l-0.7,0.4
		l-0.5,0.8h-0.5l-0.3,0.8l-0.5,0.4c-0.2,0.1-0.4,0.3-0.5,0.5l-0.5,0.9c-0.4,0.2-0.6,0.6-0.6,1.3l-0.2-0.1l-0.1,0.3l-0.4,0.2
		l-0.3,0.8c-0.3,0.5-0.5,0.9-0.5,1.1l-0.4,0.2v1c-0.1,0.1-0.2,0.3-0.2,0.5l0.1,0.2l-0.5,0.2l0.1,0.4c0,0.3-0.3,0.9-0.7,1.7l0.2,0.6
		l-0.5,0.8c0.1,0.3,0.1,0.6,0.1,0.7l-0.1,0.8l0.2,0.8c0,0,0.1,0.1,0.2,0.3l0.4,0.4c-0.2,0.4-0.4,0.7-0.6,0.8l-0.6-0.2l0.1,0.4
		l-1.1-0.2v-0.6l-0.1-0.4l0.1-0.8l-0.1-0.3l0.1-1.6l-0.1-1.1c-0.2-0.1-0.3-0.2-0.3-0.3c0-0.1,0.1-0.3,0.3-0.6v-0.7
		c0-0.4,0-0.6,0-0.8l0.2-0.2l-0.2-0.9l0.1-0.7l-0.1-0.4l0.1-1.3l-0.2-0.4l0.1-0.4l-0.3-1l0.1-0.8c0-0.2,0-0.5-0.1-0.9l0.1-0.2
		l-0.3-1.6l-0.4-0.2l0.4-0.8c-0.3-0.5-0.5-1-0.5-1.6v-0.7c-0.1-0.2-0.2-0.3-0.3-0.4c0.2-0.3,0.6-0.6,1.2-0.8l0.4,0.1
		c0.1,0.4,0.2,0.8,0.5,1.1l-0.1,1.2l0.5,3.6c0,0.2-0.1,0.4-0.3,0.6l0.2,1l-0.1,0.7l0.1,0.8l-0.1,0.6l0.4,0.7l-0.2,0.1l0.2,1.1
		l0.4,0.1l0.2-0.9c0-0.1,0.2-0.4,0.6-0.8c0.4-0.4,0.6-0.8,0.6-1.2v-0.3l0.3-0.1c0,0,0.1-0.1,0.1-0.2s0.1-0.2,0.2-0.2h0.1l0.3-0.9
		l0.7-0.5l0-0.3h0.3l-0.1-0.5l0.7-0.3l0-0.6l0.7-0.1c0.3-0.3,0.6-0.6,0.7-0.9l0.4-0.1c0.1-0.1,0.4-0.4,0.9-0.9c0.1,0,0.2,0,0.2-0.1
		l0.8-0.4l0.2-0.4l0.4-0.2c0.8-0.6,1.4-0.9,1.7-0.9h0.2c0.3,0,0.5-0.1,0.7-0.2l0.4,0.1c0.2-0.2,0.4-0.2,0.5-0.2
		C214,510.7,214.3,510.8,214.4,510.9z"/>
	<path class="st0" d="M230.9,518.2l-0.3,1l0.2,0.4l-0.2,1.1c0,0.1-0.1,0.4-0.4,0.8v0.6l-0.4,1l-0.3,0.4c-0.1,0.1-0.3,0.5-0.5,1.2
		l-0.4,0.1l-0.2,0.6l-0.5,0.3l-0.4,0.9L227,527l-0.1,0.6l-0.6,0.2c-0.3,0.4-0.5,0.6-0.6,0.8s-0.3,0.2-0.6,0.3s-0.6,0.2-0.7,0.3
		c-0.1,0.5-0.5,0.8-1.3,0.8c-0.2,0.2-0.4,0.4-0.7,0.4c-0.1,0-0.2,0-0.4-0.1c-0.4,0.4-0.8,0.6-1.2,0.7l-0.4,0.6l-0.6-0.4l-0.1,0.3
		l-0.7-0.3l-1.7-0.2c-0.3-0.6-0.7-1.1-1.2-1.7l0.2-0.6l-0.7-1.7l0.3-0.6l-0.3-1.3l0.3-0.8c0-0.1,0-0.3-0.1-0.6s-0.1-0.6-0.1-0.6
		c0-0.3,0.2-0.6,0.5-0.8V522c0-0.4,0.1-0.7,0.3-1.1h0.3c0.2-0.3,0.4-0.6,0.4-0.9l-0.1-0.3l0.1-0.7v-0.5c0.3-0.3,0.4-0.7,0.4-1.1
		l-0.1-0.8c0-0.2,0-0.4,0.1-0.6c0.5-0.3,0.7-0.5,0.7-0.7c0-0.2-0.1-0.3-0.2-0.5l0.5-0.8c0.1-0.1,0.2-0.2,0.3-0.3s0.2-0.1,0.2-0.2
		l-0.1-0.5c0.5,0,0.8-0.3,0.8-0.8c0-0.3,0-0.6-0.1-0.9c1.1,0,1.8-0.5,2.1-1.6h0.3c0.2-0.2,0.4-0.3,0.5-0.3c0,0,0.2,0,0.4,0.1
		s0.6,0.1,1.1,0.1l0.8-0.3v0.3c0.3,0,0.7,0.2,1.2,0.5h0.7c0.2,0.3,0.3,0.5,0.4,0.5l0.1,0c0.4,0.6,0.7,1,1.1,1.2l0.2,0.6l0.4,0.2
		l0.8,1.1l0.8,2.2v0.4L230.9,518.2z M229.4,519.6c0.2-0.2,0.3-0.4,0.3-0.6c0-0.1-0.1-0.2-0.2-0.3s-0.2-0.2-0.2-0.2h0.3
		c0-0.2-0.2-0.4-0.3-0.5l0.1-0.1l-0.3-0.8l0.1-1.1l-0.4-0.8c-0.3-0.2-0.5-0.4-0.5-0.5v-0.1c0-0.1-0.1-0.2-0.2-0.2s-0.2-0.1-0.2-0.2
		v0c0,0,0.1-0.3,0.2-0.6l-0.3-0.2l-0.5,0l-0.2-0.4l0.2-0.3l-0.6-0.3l-0.5-0.4l-1.4-0.6l-0.6-0.1c-0.9,0-1.4,0.3-1.4,0.8l0.1,1.6
		l-1,0l-1.5,0.9l-0.1,0.5l-0.5,0.4l-0.2,1.4l-0.5,0.3c-0.1,0-0.1,0.3-0.1,0.7c0,0.4,0,0.6,0.1,0.9l-0.6,0.3
		c-0.1,0.1-0.2,0.4-0.2,0.9c0,0.3-0.1,0.5-0.4,0.7v0.5l-0.4,0.7v0.4l-0.1,0.3l0.1,0.7l-0.6,1.5l0.2,0.5v1.1l-0.2,0.8l0,1.2l0.7,0.9
		c0.1,0.1,0.4,0.3,0.8,0.5l0.1,0.2l0.3-0.1l0.3,0.1l0.6-0.2l1.1,0l0.5-0.1l0.1-0.3l0.5,0c0.5,0,0.8-0.2,0.8-0.5l0.7,0.2l0.1-0.4
		l0.4,0l0.2-0.5c0.3-0.3,0.5-0.5,0.6-0.7h0.8l0.2-0.5l0.8-0.7l0.3-0.4c0.1-0.2,0.3-0.3,0.4-0.4l0.7-0.4c0.1-0.4,0.2-0.9,0.4-1.3
		l-0.1-0.4l0.7-0.3l-0.1-0.2c0.2-0.3,0.4-0.5,0.5-0.7h-0.2c0.1-0.2,0.2-0.3,0.2-0.4c0-0.1,0-0.2-0.1-0.4s-0.1-0.2-0.1-0.3
		c0-0.2,0-0.4,0.1-0.7s0.1-0.4,0.1-0.4C229.6,519.7,229.5,519.6,229.4,519.6z"/>
	<path class="st0" d="M263.1,522.4c0.1,0.3-0.1,0.5-0.6,0.8l0.1,0.2c0,0.2-0.2,0.5-0.6,1s-0.6,0.9-0.6,1.2l-0.5,0.1
		c0,0.7-0.3,1-0.9,1.1c0,0.2-0.1,0.3-0.2,0.3h-0.1c0,0.3-0.2,0.4-0.5,0.4l-0.3,0.6l-0.7,0.1l-0.6,0.4c-0.1,0-0.2,0.1-0.3,0.1
		l-1.1,0.2l-0.4,0l-0.4,0l-0.1-0.2l-0.4,0l-0.5-0.7h-0.2c-0.1-0.1-0.2-0.3-0.2-0.5c-0.5-0.6-0.8-1-0.8-1.3v-0.4l-0.3-0.6v-0.3
		l0.2-0.1l-0.2-0.7l-0.4-0.9l0.1-1.3l-0.5-0.8v-1.2c-0.5-2.3-0.7-3.8-0.7-4.3v-0.2c-0.1-0.3-0.1-0.4-0.1-0.5c0-0.1,0-0.2,0-0.3
		c-0.4-0.5-0.5-1-0.6-1.3l-0.2-0.2l-1,1.1l-0.5,0.7l-1.7,2l-0.7,1.2c-0.2,0.5-0.4,0.9-0.6,1.1s-0.5,0.6-0.9,1.1l0.1,0.4l-0.3,0.9
		l-0.4,0v0.4h-0.3l-0.9,1.1c0,0.5-0.2,0.8-0.6,0.9c-0.1,0.2-0.3,0.5-0.4,0.9s-0.3,0.6-0.5,0.6l-0.2,0.2c-0.3,0.5-0.6,0.9-0.8,1.2
		s-0.6,0.6-1.1,0.9c-0.1,0.5-0.3,0.9-0.6,1l0,0.2c0,0.2-0.1,0.4-0.2,0.6s-0.5,0.4-1.1,0.5c-0.2,0-0.4-0.3-0.5-0.8s-0.3-0.8-0.6-0.9
		l-0.1-0.3l0.4-0.6l0-0.6l0.2-0.2l-0.2-0.4l0-0.6l-0.4-1.1l0.3-0.6l-0.2-0.7c0.2-0.4,0.3-1.1,0.3-2v-0.3c0-0.1-0.1-0.3-0.3-0.6
		c0.3-0.2,0.4-0.4,0.4-0.6l-0.1-0.8l0.3-1.8l-0.2-0.4l0-0.8l-0.2-0.4l0.2-1.5l-0.1-0.5l0.1-0.9l-0.1-1.2l0.3-0.6
		c0.6,0.2,0.9,0.3,0.9,0.4s0.1,0.2,0.1,0.4s0,0.6,0,1.1l0.4,0.6l-0.1,0.9l0.2,2l-0.3,1.1l0.1,1.2v0.6l-0.4,0.7l0.3,1
		c-0.1,0.1-0.2,0.6-0.4,1.3l0.2,0.6c-0.3,0.9-0.4,1.5-0.4,1.9l0,1.7l0.1,0.2l0.6-0.3h0.5l0.3-1.1c0.4-0.1,0.6-0.3,0.7-0.5
		c0-0.4,0.3-0.6,0.7-0.6c0-0.4,0.2-0.6,0.3-0.7c0.1,0,0.3-0.2,0.4-0.7c0.3-0.3,0.6-0.7,0.8-1v-0.7h0c0.1,0,0.3-0.1,0.4-0.3
		s0.4-0.3,0.6-0.3c0.1-0.4,0.3-0.7,0.4-0.9l0.7-0.8l0.6-1.3c-0.1-0.3-0.1-0.4-0.1-0.5c0-0.1,0-0.1,0.1-0.1c0.6-0.4,1-0.8,1-1.2V515
		c0.5-0.2,0.7-0.4,0.7-0.5c0-0.1,0-0.2-0.1-0.3s-0.1-0.2-0.1-0.2c0-0.2,0.1-0.2,0.2-0.2c0.1,0,0.2,0,0.4,0.1
		c0.2-0.9,0.6-1.3,1.1-1.3c0.1,0,0.2,0,0.4,0.1c0-0.5,0.1-0.8,0.4-1.1c0.1-0.2,0.4-0.4,1.1-0.7l0.2-0.4h0.2c0.3,0.4,0.5,0.6,0.7,0.7
		l0.1,0.3l0.2,0.1l0.1,0.9l0.6,0.4l-0.2,0.8l0.4,1.5v1.4l0.3,1.6l0.1,1.7l0.5,1.6l0.1,1.6c0,0,0.1,0.2,0.2,0.5s0.3,0.6,0.3,1.1
		l0.2,0.1v0.7l0.4,0.5l-0.1,0.4l0.3,0.2v0.2c0.3,0.2,0.6,0.3,0.8,0.3c0.3,0,0.5-0.1,0.7-0.2c0.1,0.1,0.2,0.1,0.2,0.1
		c0.1,0,0.3-0.1,0.4-0.4c0.5,0,0.7-0.2,0.7-0.4v-0.1c0-0.1,0.4-0.3,1-0.5c0.2-0.2,0.3-0.3,0.5-0.5l0-0.1c0-0.1,0.1-0.2,0.2-0.3
		s0.2-0.2,0.5-0.4s0.4-0.3,0.4-0.5l0.3-0.5c0.2-0.3,0.5-0.7,0.9-1.4l0.7-0.3h0.4L263.1,522.4z"/>
	<path class="st0" d="M269.7,511.6l3.3,0.1l3.2-0.1l0.8,0l0.3,0h1.7c0.3,0,0.5,0.1,0.5,0.4c0,0.3-0.3,0.5-0.8,0.6
		c-0.1-0.1-0.2-0.1-0.4-0.1c-0.2,0-0.4,0.1-0.6,0.2l-0.7-0.1l-1.3,0c-0.6,0.3-1.2,0.5-1.8,0.5l-0.9-0.2l-0.5,0.4h-0.4v-0.3l-0.8,0.4
		h-0.4l-0.1,0.4c-0.3-0.1-0.7-0.1-1.4-0.2c0,0.2-0.1,0.3-0.2,0.3c-0.1,0-0.2-0.1-0.3-0.2l-0.7,0.1l-0.5,0.5l-0.1,2.3l0.1,1.4
		l-0.1,1.8l0,2l0.1,1v0.9l0.6,1.2v0.2c0,0.5,0.3,1.1,1,1.6l0.1,0.4l0.9,0.2l0.6,0.7l1.8,0.3l2.3-0.5l0.7,0.2l1.7-0.8l0.6,0.1
		c0.2,0.2,0.3,0.4,0.3,0.6c0,0.2-0.2,0.5-0.6,0.8l-0.4-0.1l-0.8,0.6l-1.6,0.2l-0.5,0.3l-0.6-0.3c-0.5,0.3-1.1,0.4-1.7,0.4l-1-0.2
		h-0.5l-1.7-1l-0.8-1.1l-0.6-0.6l-0.9-2.3l-0.4-2.2l0.2-0.9l-0.4-0.5l0.2-0.5l-0.2-0.9l0.5-0.4l-0.2-0.4l0.1-0.6l-0.2-0.6l0.1-0.9
		l-0.1-0.5l0.2-0.1v-1.7c-0.1-0.4-0.2-0.6-0.4-0.6c-0.1,0-0.2,0.1-0.3,0.2l-0.5-0.2l-0.8,0.2l-0.8-0.6h-0.4c-0.4,0-0.6-0.2-0.6-0.6
		l0-0.7l-0.3-0.2l0.2-0.4l0.7,0.1l0.5-0.1l0.8,0.2h2l0.1-1.1v-1.1l-0.3-0.8l0.4-0.3c0.1-0.2,0.1-0.3,0.1-0.4c0-0.2-0.1-0.4-0.4-0.5
		l0.1-1.9l-0.4-0.6l0.1-0.4c-0.3-0.1-0.5-0.2-0.5-0.4l0.3-1.3c0.3-0.3,0.4-0.6,0.4-0.7c1,0.5,1.4,0.7,1.4,0.8v0l-0.2,0.5
		c0.2,0.5,0.3,0.8,0.3,1.1v0.1c-0.1,0.3-0.1,0.5-0.1,0.7c0,0.2,0,0.3,0.1,0.4l0,0.4l0,0.5l-0.4,0.7l0.3,1.2l-0.2,1.5l0.2,0.3
		l-0.3,0.4l0.4,1.2h0.9L269.7,511.6z"/>
	<path class="st0" d="M307,505c0,0.2-0.1,0.4-0.2,0.5h-0.5l-0.4,0.2l-0.7-0.2l-0.8,0c-0.4,0-0.6-0.1-0.7-0.2s-0.2-0.2-0.3-0.2
		c-0.1,0-0.3,0.1-0.6,0.3c-0.2-0.1-0.4-0.2-0.6-0.2s-0.5,0.1-0.9,0.3s-0.7,0.3-0.9,0.3c-0.2,0-0.4,0-0.7,0s-0.5,0-0.7,0
		c-0.2,0-0.3,0.1-0.4,0.3c-0.3-0.2-0.5-0.3-0.8-0.3c-0.5,0-0.9,0.2-1.4,0.6l-0.5-0.3l-0.4,0.3l-1.1-0.4l-0.8,0.4h-0.9
		c-0.5,0.1-0.9,0.2-1.2,0.3s-0.7,0.2-1.2,0.5l-0.4-0.3l-0.8,0.7l-0.9,0l-0.6,1.1l0.2,0.9c-0.3,0.1-0.5,0.5-0.5,1.2l0,0.4l0,1
		l0.1,0.2l-0.3,0.3l0.2,0.3c-0.2,0.5-0.4,0.9-0.4,1.3c0,0.7,0.4,1.1,1.3,1.1c0.1,0,0.3,0,0.6-0.1s0.6-0.1,0.8,0s0.5,0.1,0.8,0.1
		l0.7-0.3l0.8,0.3l0.5-0.1l0.5,0l0.7-0.2l0.4,0.1h0.1c0.2,0,0.5-0.1,0.8-0.3c0.3,0.1,0.6,0.2,1,0.2s0.7-0.1,0.8-0.1l0.6-0.1l1.1,0.2
		c0.1,0,0.2-0.1,0.3-0.3c0.8,0.2,1.3,0.2,1.5,0.2l0.5,0l1.6,0.1l0.9-0.2c0-0.2,0.2-0.3,0.6-0.3l1.1,0.1l0.4-0.1l0.6,0.2l0.6-0.1
		l-0.1,0.6c-0.6,0.2-1,0.3-1.2,0.3c-0.1,0-0.2,0-0.5-0.1s-0.5-0.1-0.7-0.1l-1.2,0.6l-1.1-0.1l-0.6,0.2l-0.4-0.1l-0.8,0.4l-0.5-0.1
		l-1.9,0c-0.2,0-0.4,0.1-0.6,0.3l-0.7-0.2l-0.4,0.3l-0.6-0.2l-0.4,0.3l-0.9-0.4l-0.7,0.4l-0.8-0.2c-0.1,0-0.2,0-0.4,0
		c-0.2,0-0.6,0.1-1,0.2l-0.6,0.2l-1.7,0.2l-0.4-0.2c-0.2,0.1-0.7,0.3-1.5,0.4l-0.4,0.9l0.4,2.5l-0.3,0.3l0.3,0.8l0,0.9l0.2,0.2
		c0,0.1,0.1,0.5,0.3,1.4l0.4,0.5l-0.2,0.8l0.5-0.1l0.9,1.3c1.2,0.9,2.3,1.4,3.2,1.4l0.9,0.1c0.2,0,0.5-0.1,1-0.2l0.2-0.3h0.4
		c0.3,0,0.6,0,0.7,0s0.5-0.2,1-0.6c0.4,0,0.7-0.1,0.8-0.2l0.5-0.1c0.2,0,0.4-0.1,0.5-0.3l0.7-0.5c0.2-0.3,0.4-0.5,0.7-0.8l0.6,0
		l1.2-1.1c1-0.3,1.5-0.8,1.7-1.5l0.3,0.2l0.1-0.8l0.6,0l0.1-0.7h0.1c0.3,0,0.5,0.2,0.6,0.6l-1.6,2.1l-0.6,0.1
		c-0.6,0.9-0.9,1.4-1.1,1.5l-1.2,0.8l-0.8,0.7l-0.3,0L299,528l-2.2,0.9l-0.5,0.7l-0.8-0.2l-0.2,0.4l-0.2,0l-0.4,0.3l-1.3-0.3
		l-1.6,0.7l-1.1-0.4l-2-1c-0.6-0.3-1.1-0.8-1.5-1.4s-0.9-1.6-1.4-2.9s-0.7-2.1-0.7-2.2l0.2-0.7l-0.4-0.9l0.4-0.4l-0.4-2.6
		c-0.4-0.5-0.7-0.8-0.7-0.9s-0.1-0.2-0.1-0.5c0-0.6,0.1-0.9,0.4-1.1s0.4-0.2,0.4-0.2v-0.3c0-0.2,0.1-0.4,0.4-0.4l0.1-0.7l-0.1-0.3
		v-1.4l-0.2-0.6l0.5-1.5c0.2-0.6,0.3-1,0.4-1.3l-0.6-0.8l-1.1,0.1h-0.1c-0.2,0-0.3-0.1-0.5-0.2s-0.2-0.3-0.2-0.5
		c0-0.3,0.2-0.7,0.6-1.1c0.2-0.1,0.3-0.1,0.3-0.3c0.6-0.2,0.9-0.3,1-0.3c0.1,0,0.2,0.1,0.3,0.2c0.1-0.2,0.2-0.3,0.4-0.3
		c0.5,0,0.7-0.1,0.7-0.4c0-0.1,0-0.2-0.1-0.4l1.6,0.1l0.3,0.5c0.5-0.4,1-0.5,1.5-0.5l0.3,0l1-0.2c0.3,0,0.6-0.1,1-0.3v0.3
		c0.3-0.3,0.7-0.4,1.2-0.4l0.8,0h0.1l4.6-0.4l1.1,0.4l0.3-0.6c0.1,0.2,0.2,0.4,0.4,0.4c0,0,0.2,0,0.4-0.1l0.5,0.3l0.4-0.3l0.9,0.4
		l0.6-0.1l0.3,0.2l1.5-0.1l0.2,0.1C306.6,504.7,307,504.9,307,505z"/>
	<path class="st0" d="M338.5,522.4c0.1,0.3-0.1,0.5-0.6,0.8l0.1,0.2c0,0.2-0.2,0.5-0.6,1s-0.6,0.9-0.6,1.2l-0.5,0.1
		c0,0.7-0.3,1-0.9,1.1c0,0.2-0.1,0.3-0.2,0.3H335c0,0.3-0.2,0.4-0.5,0.4l-0.3,0.6l-0.7,0.1l-0.6,0.4c-0.1,0-0.2,0.1-0.3,0.1
		l-1.1,0.2l-0.4,0l-0.4,0l-0.1-0.2l-0.4,0l-0.5-0.7h-0.2c-0.1-0.1-0.2-0.3-0.2-0.5c-0.5-0.6-0.8-1-0.8-1.3v-0.4l-0.3-0.6v-0.3
		l0.2-0.1l-0.2-0.7l-0.4-0.9l0.1-1.3l-0.5-0.8v-1.2c-0.5-2.3-0.7-3.8-0.7-4.3v-0.2c-0.1-0.3-0.1-0.4-0.1-0.5c0-0.1,0-0.2,0-0.3
		c-0.4-0.5-0.5-1-0.6-1.3l-0.2-0.2l-1,1.1l-0.5,0.7l-1.7,2l-0.7,1.2c-0.2,0.5-0.4,0.9-0.6,1.1s-0.5,0.6-0.9,1.1l0.1,0.4l-0.3,0.9
		l-0.4,0v0.4h-0.3l-0.9,1.1c0,0.5-0.2,0.8-0.6,0.9c-0.1,0.2-0.3,0.5-0.4,0.9s-0.3,0.6-0.5,0.6l-0.2,0.2c-0.3,0.5-0.6,0.9-0.8,1.2
		s-0.6,0.6-1.1,0.9c-0.1,0.5-0.3,0.9-0.6,1l0,0.2c0,0.2-0.1,0.4-0.2,0.6s-0.5,0.4-1.1,0.5c-0.2,0-0.4-0.3-0.5-0.8s-0.3-0.8-0.6-0.9
		l-0.1-0.3l0.4-0.6l0-0.6l0.2-0.2l-0.2-0.4l0-0.6l-0.4-1.1l0.3-0.6l-0.2-0.7c0.2-0.4,0.3-1.1,0.3-2v-0.3c0-0.1-0.1-0.3-0.3-0.6
		c0.3-0.2,0.4-0.4,0.4-0.6l-0.1-0.8l0.3-1.8l-0.2-0.4l0-0.8l-0.2-0.4l0.2-1.5l-0.1-0.5l0.1-0.9l-0.1-1.2l0.3-0.6
		c0.6,0.2,0.9,0.3,0.9,0.4s0.1,0.2,0.1,0.4s0,0.6,0,1.1l0.4,0.6l-0.1,0.9l0.2,2l-0.3,1.1l0.1,1.2v0.6l-0.4,0.7l0.3,1
		c-0.1,0.1-0.2,0.6-0.4,1.3l0.2,0.6c-0.3,0.9-0.4,1.5-0.4,1.9l0,1.7l0.1,0.2l0.6-0.3h0.5l0.3-1.1c0.4-0.1,0.6-0.3,0.7-0.5
		c0-0.4,0.3-0.6,0.7-0.6c0-0.4,0.2-0.6,0.3-0.7c0.1,0,0.3-0.2,0.4-0.7c0.3-0.3,0.6-0.7,0.8-1v-0.7h0c0.1,0,0.3-0.1,0.4-0.3
		s0.4-0.3,0.6-0.3c0.1-0.4,0.3-0.7,0.4-0.9l0.7-0.8l0.6-1.3c-0.1-0.3-0.1-0.4-0.1-0.5c0-0.1,0-0.1,0.1-0.1c0.6-0.4,1-0.8,1-1.2V515
		c0.5-0.2,0.7-0.4,0.7-0.5c0-0.1,0-0.2-0.1-0.3s-0.1-0.2-0.1-0.2c0-0.2,0.1-0.2,0.2-0.2c0.1,0,0.2,0,0.4,0.1
		c0.2-0.9,0.6-1.3,1.1-1.3c0.1,0,0.2,0,0.4,0.1c0-0.5,0.1-0.8,0.4-1.1c0.1-0.2,0.4-0.4,1.1-0.7l0.2-0.4h0.2c0.3,0.4,0.5,0.6,0.7,0.7
		l0.1,0.3l0.2,0.1l0.1,0.9l0.6,0.4l-0.2,0.8l0.4,1.5v1.4l0.3,1.6l0.1,1.7l0.5,1.6l0.1,1.6c0,0,0.1,0.2,0.2,0.5s0.3,0.6,0.3,1.1
		l0.2,0.1v0.7l0.4,0.5l-0.1,0.4l0.3,0.2v0.2c0.3,0.2,0.6,0.3,0.8,0.3c0.3,0,0.5-0.1,0.7-0.2c0.1,0.1,0.2,0.1,0.2,0.1
		c0.1,0,0.3-0.1,0.4-0.4c0.5,0,0.7-0.2,0.7-0.4v-0.1c0-0.1,0.4-0.3,1-0.5c0.2-0.2,0.3-0.3,0.5-0.5l0-0.1c0-0.1,0.1-0.2,0.2-0.3
		s0.2-0.2,0.5-0.4s0.4-0.3,0.4-0.5l0.3-0.5c0.2-0.3,0.5-0.7,0.9-1.4l0.7-0.3h0.4L338.5,522.4z"/>
	<path class="st0" d="M361.1,527.4c-0.3,1.2-0.8,2.1-1.3,2.5c-0.4-0.1-0.6-0.3-0.8-0.5l-0.9-1.4l-0.3-0.8l-0.6-2.2v-2.2l-0.1-1.9
		l0.1-1.1l-0.1-0.9v-1.3l-0.4-0.6l-0.2,0.4l-0.4,0l-0.7,1.7l-0.9,1.2h-0.4l-0.1,0.5c0,0.2-0.1,0.4-0.3,0.6s-0.3,0.5-0.5,0.8
		l-1.3,1.4l-1,1.5l-1.1,1.1c-0.3,0.4-0.5,0.8-0.9,1.2l-0.7,0.5c-0.2,0.2-0.5,0.5-0.8,1l-0.8,0.3c-0.1,0-0.3,0.2-0.6,0.5l-0.6,0.1
		c-0.2,0-0.5,0.2-1,0.5l-0.4-0.1l-0.1,0.3l-0.5,0l-1.5-1.1c-0.3-0.3-0.4-0.8-0.6-1.4s-0.3-0.9-0.5-0.9l-0.3,0.1l0.5-0.8l-0.2-0.8
		l0.2-0.6l-0.1-0.9l0.3-1.5v-1.3l0.3-0.5v-1.2c0.2-0.5,0.4-0.8,0.4-1.1l0.2-0.1v-0.9l0.4-0.8l0-0.7c0.2-0.3,0.4-0.6,0.4-1l0.2-1.5
		c0-0.3,0.2-0.6,0.5-0.9l0-0.5c0-0.2,0.1-0.4,0.3-0.6s0.3-0.5,0.3-0.7c0.5-0.5,0.9-0.8,1.2-1l-0.1-0.2c0.2,0,0.3-0.1,0.4-0.2
		c0,0,0.1,0,0.3,0c0.1,0,0.2,0,0.3,0l-0.2-0.1l2.1-0.6c0.3,0,0.6-0.1,0.8-0.1s0.4-0.1,0.4-0.2v0l0.8,0l0.4,0.2l0.3-0.1
		c0,0.2,0.2,0.2,0.4,0.2c0.1,0,0.1,0,0.2,0l0.8,0v0.2l0.2-0.1l0.7,0.6l0.7-0.2l0.4,0.8l0.8,0.6c0.1,0.1,0.2,0.3,0.4,0.7l0.8,0.4
		c0.3,0.3,0.4,0.4,0.6,0.4c0.1,0,0.2-0.1,0.2-0.2l0.3-1.6l0.4-0.9l-0.1-1.2l0.2-2.3l-0.2-0.6c0.2-0.3,0.4-0.6,0.4-1l-0.2-0.4
		l0.2-1.3l-0.2-1.3l0.2-0.3l-0.2-0.1c0.2-0.2,0.3-0.3,0.3-0.4c0-0.1,0-0.2-0.1-0.3c0.1-0.2,0.1-0.5,0.1-0.7c0-0.2,0-0.5-0.1-0.7h0.2
		c-0.1-0.1-0.1-0.3-0.1-0.4c0-0.2,0.2-0.4,0.5-0.6l-0.2-0.1l0.2,0c0.2,0,0.3,0.1,0.4,0.4c0.2,0,0.4,0.3,0.4,0.6h-0.2l0,0.8l0,0.4
		h-0.3l0.5,0.6l-0.2,0.7l0.3,0.8l-0.2,0.3c0.2,0.4,0.2,0.7,0.2,0.9c0,0.2,0,0.4-0.1,0.6l0.4,0.3c-0.2,0.1-0.2,0.2-0.2,0.3
		c0,0.2,0.1,0.3,0.4,0.4v0.1c0,0.2-0.1,0.4-0.4,0.5v0.4c0,0.8-0.1,2.1-0.4,4c0,0.1,0,0.2,0,0.4c0,0.2-0.1,0.5-0.2,0.9l0.2,0.4
		l-0.3,1.1l-0.1,1.2c0,0.2-0.1,0.4-0.3,0.8l0.1,0.5l-0.3,0.9l0.3,0.7l-0.4,1.5l0.2,1.1l-0.1,0.7l0.1,0.6l-0.3,0.1
		c0.3,0.5,0.5,0.8,0.5,0.8c0,0.1-0.1,0.2-0.3,0.3l0.1,0.3l-0.1,0.1l0.3,0.3l-0.2,0.8l0.3,1.1l-0.1,0.3l0.1,0.4l-0.3,0.9l0.2,0.2h0.4
		l0.3,0.4l0.7-0.2l0.2,0.4L361.1,527.4z M356.6,514.3l-0.3-0.1l-0.5-0.4l-0.4-0.2c-0.1,0-0.2-0.2-0.4-0.6s-0.4-0.7-0.7-0.9
		c-0.2-0.1-0.3-0.2-0.4-0.3v-0.3l-0.7-0.1l-0.7-0.4c-0.1-0.1-0.3-0.2-0.6-0.2s-0.6-0.1-1-0.2l-1.5,0.2l-0.4,0.2l-0.4-0.3l-0.8,0.2
		h-1l-0.2,0.4l-0.3,0.1c0,0.3,0.1,0.4,0.2,0.5c-0.2,0.3-0.6,0.6-1.2,1.1l-0.3,0.9l-0.4,0.2l-0.4,1.3l-0.1,1.4l-0.4,0.4v0.8
		c-0.3,0.3-0.5,0.6-0.5,0.8l0.1,1.1l-0.8,1.5l-0.2,1.1l0,1.6l0.1,0.4l-0.3,0.7l0.2,0.4l-0.4,0.8c0.3,0.5,0.5,1.1,0.7,1.7l0.4,0.2
		l-0.1,0.3h0.5c0.3,0.2,0.5,0.3,0.6,0.3c0,0,0.1-0.1,0.2-0.2s0.4-0.2,0.7-0.2v0.2c0.2-0.2,0.3-0.3,0.4-0.4c0.3,0,0.4-0.1,0.4-0.3
		l0.4-0.2l0.2,0.1l0.1-0.5l1-0.4l0.1-0.4l0.7-0.4v-0.2l0.5-0.5l0.2,0.1c0.1,0,0.2-0.1,0.2-0.4h0.3v-0.3l0.8-0.3l-0.2-0.7l0.5-0.3
		l-0.3-0.4c0.1,0,0.2,0,0.3,0c0.2,0,0.4-0.1,0.6-0.2l0-0.2l0.5,0l0.5-1.4l0.5-0.5l0.2-0.9l0.6-0.2c0.4-0.8,0.8-1.2,1.1-1.5v-0.7
		l0.4-0.2l1.2-2.4L356.6,514.3z"/>
	<path class="st0" d="M404.9,520.2l-0.1,0.3c-0.1,0.1-0.1,0.3-0.1,0.5l0,0.4l-0.9,1.2l-0.2,0.5l-0.6,0.3c-0.2,0.1-0.4,0.3-0.6,0.6
		c-0.8,0.2-1.4,0.5-1.8,0.8H400l-0.4,0.1l-0.2,0.4h-0.8l-0.1,0.2l-0.3,0c0,0-0.1,0.1-0.3,0.3s-0.3,0.3-0.5,0.3
		c-0.2-0.1-0.3-0.1-0.4-0.1c-0.2,0-0.6,0.1-1,0.4l-0.9-0.2l-0.6,0.4c-0.1,0-0.2,0-0.3,0c-0.1,0-0.3,0-0.7,0.1s-0.6,0.1-0.8,0.1h-0.3
		c-0.2,0-0.5,0.1-0.9,0.2s-0.8,0.2-1.2,0.2c-0.3,0-0.5,0-0.7-0.1l-0.7,0.2l-0.8-0.3l-0.5,0.3l-0.3-0.1l-0.4,0.7l-0.4-0.4l-0.6,0.3
		l-0.2-0.3c-0.1,0.1-0.4,0.1-0.8,0.1l-0.1,1l-0.6,0.7l-0.2,0.5c0,0.1-0.3,0.5-0.8,1.2l-0.2-0.1H383l0.1-0.8l0-1.2l-0.7-0.5
		c-0.2-0.2-0.3-0.3-0.5-0.3l-1,0.5h-0.7l-0.4-0.3l-0.1-0.4l0.4-0.4l0-0.4l1.7-0.4c0.1-0.1,0.3-0.1,0.5-0.1c0.2,0,0.3,0,0.3-0.1v0
		l-0.3-1c0-0.1,0-0.1,0-0.3s0-0.2,0.1-0.4s0.1-0.2,0.1-0.3l-0.1-2.3l0.2-0.6v-1.1l0.3-0.8l-0.6-1.1l0.6-1.2l-0.3-3.3l0.1-1.1v-1
		l-0.4-1.1v-1.7l-0.5-0.9v-0.5l-1.3-0.1l-1,0.4l-1.5,0.1c-0.1-0.2-0.2-0.4-0.3-0.7s-0.1-0.7-0.2-1.2c0.5-0.4,0.9-0.5,1.2-0.5l0.4,0
		c0.1,0,0.2-0.1,0.4-0.3c0.5-0.1,1-0.2,1.7-0.2c0.4,0.3,0.8,0.4,1.1,0.4c0.1,0,0.3,0,0.5-0.1c0.1,0.2,0.2,0.3,0.3,0.3
		c0.1,0,0.3-0.1,0.8-0.3l0.6,0.3l0.7-0.2l1.5,0.3l0.8,0.5l1.1-0.2l0.3,0.6l0.6,0.2l0.8,0.5l0.5,0.1l0.7,0.3l0.4,0
		c0.3,0,0.6,0.1,0.9,0.4c0.6,0,1.3,0.5,2.1,1.4h0.4c0.4,0.4,0.9,0.6,1.5,0.8l1.1,0.9l1.2,1.1c0.3,0.2,0.4,0.3,0.6,0.3
		c0,0,0.2-0.1,0.4-0.2l0.2,0.1l0.1,0.8c0.8,0.7,1.4,1.3,1.9,1.9s0.7,0.9,0.7,1.2s0.3,0.5,0.6,0.7v0.6c0,0.3,0.1,0.6,0.4,0.9
		c0,0.3,0.1,0.6,0.3,0.8S404.9,520.1,404.9,520.2L404.9,520.2z M403.1,520.5l-0.1-1.3l-1.9-2.6h-0.3l-0.5-1.3l-0.6,0l-0.6-0.5
		l-0.2-0.7c-0.3-0.3-0.9-0.6-1.8-0.8l-0.4-0.7l-3.8-2.3l-0.7,0c-0.2,0-0.5-0.1-0.9-0.3c-0.2-0.2-0.4-0.3-0.6-0.3
		c-0.1,0-0.2,0-0.3,0.1l-0.3-0.6l-0.7,0c-0.1,0-0.3-0.1-0.6-0.1s-0.6-0.1-0.8-0.3l-0.2,0.1c0-0.2-0.1-0.3-0.4-0.3
		c-0.7-0.5-1.5-0.8-2.6-0.8c-0.1,0-0.2,0-0.3,0.1l0.1,0.5l-0.2,0.7c-0.1,0.1-0.1,0.2-0.1,0.4c0,0.3,0.1,0.5,0.4,0.8l-0.5,0.8
		c0,0.1,0.1,0.3,0.3,0.6s0.2,0.6,0.2,0.8c0,0.1,0,0.2-0.1,0.4s-0.1,0.3-0.1,0.4c0,0.1,0.1,0.3,0.2,0.7l-0.3,0.1l0.1,1v1.9l0.2,0.3
		l-0.5,0.9l0.4,0.3l-0.4,1.2l0.2,1.1l-0.5,1.1l0.5,0.9l-0.1,1l0.2,0.5l-0.3,0.7l0.4,1.2l3-0.4c0,0,0.1,0,0.3-0.1s0.3-0.1,0.4-0.1
		c0.2,0,0.5,0,0.8,0.1s0.7,0.1,0.9,0.1c0.8,0,1.5-0.3,2.3-0.8c0.3,0,0.7,0,1.2,0l1.1,0c0.4,0,0.7-0.1,1-0.4c0.3,0,0.6-0.1,0.9-0.3
		s0.5-0.3,0.6-0.3c0.2,0,0.3,0.1,0.4,0.2c0.3,0,0.6-0.1,0.8-0.3l0.8-0.1l0.1-0.5l0.4,0.1l0.5-0.2h0.4l0.4-0.5h0.3l1.8-1.4
		L403.1,520.5z"/>
	<path class="st0" d="M422.1,525.3c0.2,0.4,0.4,0.6,0.4,0.8c0,0.1-0.1,0.4-0.4,0.8s-0.5,0.8-0.7,1.3l-0.4,0l-0.5,1l-0.6,0.1
		l-1.3,0.9l-0.2,0.5l-0.4,0l-0.4,0.5h-0.7l-0.1,0.2l-0.3,0c-0.3,0-0.6,0.2-0.9,0.5l-0.3-0.2c-0.3,0.2-0.6,0.2-0.8,0.2
		c-0.4,0-0.6-0.1-0.9-0.2c-0.2,0-0.4,0-0.6,0l-0.3-0.2c-0.9,0-1.4-0.3-1.7-0.7v-0.6l-0.8-0.4l-0.2-0.5c-0.1-0.2-0.2-0.4-0.5-0.6
		v-0.4l-0.5-2.3l0.1-1.6l0.2-0.9v-1l0.3-0.9l-0.1-0.6c0.2-0.1,0.3-0.3,0.3-0.5s0.1-0.4,0.3-0.7c-0.1-0.3-0.1-0.7-0.2-1.2l0.4-0.4
		l-0.4-0.5c0.2-0.4,0.3-0.6,0.3-0.7l-0.2-1.4c0-0.3,0-0.7,0.1-1c0.2,0.3,0.4,0.4,0.6,0.4c0.1,0,0.4-0.1,0.9-0.2c0-0.1,0-0.2,0-0.3
		c0-0.2,0.1-0.4,0.4-0.6c0.3-0.8,0.6-1.5,1.1-2.2c0.3-0.2,0.4-0.6,0.4-1h0.2l0.2-0.5l0.3-0.1c0.1-0.2,0.2-0.4,0.5-0.7
		c0.4-0.1,0.8-0.5,1.3-1.1c0.1,0,0.2,0,0.4,0c0,0,0.2-0.2,0.4-0.5c0.5-0.2,0.8-0.3,0.9-0.3c0.1,0,0.3,0.1,0.4,0.3l0.4-0.1l0.2,0.2
		h0.3c0.2,0.5,0.5,0.8,1,0.8h0.1c0,0.2,0.1,0.4,0.3,0.5l-0.2,0.1c0.5,0.3,0.8,0.9,0.8,1.9l-0.1,0.5l0.1,1.3l-0.2,0.2l-0.5,1.4
		l-1,1.2l0,0.7c-1.1,0.9-2.1,1.6-2.8,1.9c-0.1,0.2-0.2,0.3-0.3,0.3c-0.1,0-0.2,0-0.4-0.1l-1.1,0.7H414l-0.9,0.4l-0.4-0.2
		c-0.1-0.1-0.4-0.1-1-0.2c-0.5,0.5-0.7,1-0.7,1.8l-0.3,0.4c-0.1,0.6-0.1,1-0.2,1.2l-0.3,0.1l0.3,1.7l-0.3,0.2l0,0.5l0,0.7
		c0,0.1,0,0.4,0.1,0.9s0.2,0.8,0.4,0.8c-0.1,0.2,0.1,0.5,0.5,0.8s0.8,0.5,1.2,0.7v0.3l1.2,0.2l1.8,0.1l1.2-0.1
		c0.5-0.3,0.8-0.6,1.1-0.6l0.4-0.6h0.4l0-0.2c0.7-0.2,1.1-0.4,1.1-0.5s0.1-0.2,0.1-0.2c0.1-0.2,0.2-0.3,0.4-0.3l0.1-0.3
		c0.7-0.1,1.1-0.6,1.3-1.4C421.7,525.4,421.9,525.3,422.1,525.3z M418.2,514.4c0.1,0,0.3-0.2,0.6-0.6l0.1-0.6
		c0.4-0.7,0.6-1.1,0.7-1.3s0.1-0.4,0.1-0.7s-0.1-0.7-0.3-1.4l-1-0.3c-0.3,0.1-0.4,0.1-0.5,0.1l-0.3-0.1c-0.2,0-0.4,0.1-0.5,0.4
		c-0.3,0-0.7,0.1-1.3,0.4l-0.1,0.3c-0.1,0-0.1,0-0.2,0c0,0-0.1,0-0.1,0s-0.1,0-0.1,0.1s-0.1,0.1-0.1,0.1s-0.1,0.1-0.1,0.2
		s0,0.1-0.1,0.2s0,0.1-0.1,0.2s-0.1,0.2-0.3,0.4l-0.4,0.4l-0.7,1.3l-0.4,0.3c-0.1,0.1-0.2,0.3-0.3,0.6s-0.5,1.1-1.3,2.3l0.3,0.2
		l0.2,0.4l0.8,0.2c0.5-0.3,0.9-0.5,1.5-0.6l0.1-0.3c0.2,0.1,0.3,0.1,0.4,0.1c0.2,0,0.3-0.1,0.4-0.3l0.6-0.1l0.4-0.6h0.3l0.2-0.5
		c0.4,0,0.8-0.2,1.2-0.6V514.4z"/>
	<path class="st0" d="M446.8,506.7l-0.2,0.5l0,0.7l-0.5,0.3l-0.2,1c0,0.1-0.2,0.4-0.4,0.6l-0.1,0.6h-0.5c0.2,0.5,0.2,0.8,0.2,0.9
		c0,0.3-0.3,0.4-0.8,0.6v0.4l-0.4,1.6l-0.4,0.8h-0.3c0.2,0.2,0.3,0.4,0.3,0.6l-0.6,0.6l-1.1,2.9l-1,1.7v0.8c0,0.1-0.1,0.3-0.3,0.5
		s-0.3,0.4-0.3,0.5c0,0.1,0.1,0.2,0.2,0.4c-0.3,0.2-0.6,0.3-1.1,0.3l0.2,0.5c-0.3,0.5-0.5,0.8-0.5,1c-0.3,0.3-0.5,0.5-0.5,0.7
		c0,0.1,0,0.2,0,0.3h-0.4v0.5l-0.6,0.4l-0.3,0.6l-1,1.1l-1.2,1.9c-0.3,0.4-0.6,0.5-1.1,0.5c-0.6,0-1.1-0.2-1.3-0.6l-1.5-2.4
		l-0.1-0.9l-0.3-0.2l0-1.1l-0.5-0.6v-1.1l-1.1-2.9l0-0.6l-0.3-0.5c-0.1-0.2-0.1-0.5-0.2-1l-0.3-0.4l-0.2-0.6
		c-0.1-0.3-0.2-0.4-0.4-0.6l-0.6-0.5l-0.4-1.7l-0.5-0.4c-0.2-0.2-0.3-0.4-0.4-0.6l-0.4-0.8c-0.1,0.1-0.2,0.1-0.3,0.1
		c-0.3,0-0.5-0.4-0.5-1.2c0-0.5,0.3-0.9,1-1.1c0.6,0.5,1,0.8,1.2,1s0.5,0.7,0.9,1.4s0.7,1.1,1,1.2c-0.1,0-0.2,0.1-0.2,0.2
		c0,0.1,0,0.2,0.1,0.3v0.4l0.6,0.5l-0.1,0.4l0.1,1l0.5,1.5l0.1,0.1l0.1,0.6l0.2,0.1v0.5l0.6,2.1l0.1,0.8l0.8,1.7l0.6,2.3l0.5,0.4
		v0.1c0,0.4,0.3,0.7,1,0.7h0.2v-0.2c0,0,0.1-0.1,0.3-0.2s0.4-0.3,0.6-0.7c0.1,0.1,0.2,0.1,0.2,0.1c0.1,0,0.1-0.1,0.1-0.2
		c0-0.1,0-0.2-0.1-0.4l1.1-0.6c0-0.2,0.1-0.4,0.1-0.6s0.2-0.3,0.3-0.4l0.4-0.4l0.9-1.2l0.3-0.9l0.5-0.4l0.2-0.5
		c0.1-0.2,0.2-0.4,0.5-0.6l0-0.5l0.2-0.1l0.2-0.5l0.2,0.2c-0.1-0.2-0.1-0.3-0.1-0.4c0-0.2,0.1-0.3,0.3-0.4c0.1-0.2,0.2-0.4,0.4-0.4
		c0.2-0.5,0.4-0.9,0.4-1.3h0.4l0-0.6c0.2-0.5,0.4-0.9,0.4-1.3l0.3,0l0.7-2l0.1-0.2l0,0.3c0.2-0.3,0.4-0.5,0.4-0.8s0.1-0.4,0.2-0.4
		s0.1,0,0.2,0.1l0.6-2.2l0.4-0.6v-0.3l0.3,0.1l-0.1-0.8c0.4-0.4,0.7-0.8,0.9-1.3s0.4-0.7,0.5-0.7c0.1,0,0.2,0,0.3,0l0-0.3
		L446.8,506.7z"/>
	<path class="st0" d="M462.1,525.3c0.2,0.4,0.4,0.6,0.4,0.8c0,0.1-0.1,0.4-0.4,0.8s-0.5,0.8-0.7,1.3l-0.4,0l-0.5,1l-0.6,0.1
		l-1.3,0.9l-0.2,0.5l-0.4,0l-0.4,0.5h-0.7l-0.1,0.2l-0.3,0c-0.3,0-0.6,0.2-0.9,0.5l-0.3-0.2c-0.3,0.2-0.6,0.2-0.8,0.2
		c-0.4,0-0.6-0.1-0.9-0.2c-0.2,0-0.4,0-0.6,0l-0.3-0.2c-0.9,0-1.4-0.3-1.7-0.7v-0.6l-0.8-0.4l-0.2-0.5c-0.1-0.2-0.2-0.4-0.5-0.6
		v-0.4l-0.5-2.3l0.1-1.6l0.2-0.9v-1l0.3-0.9l-0.1-0.6c0.2-0.1,0.3-0.3,0.3-0.5s0.1-0.4,0.3-0.7c-0.1-0.3-0.1-0.7-0.2-1.2l0.4-0.4
		l-0.4-0.5c0.2-0.4,0.3-0.6,0.3-0.7l-0.2-1.4c0-0.3,0-0.7,0.1-1c0.2,0.3,0.4,0.4,0.6,0.4c0.1,0,0.4-0.1,0.9-0.2c0-0.1,0-0.2,0-0.3
		c0-0.2,0.1-0.4,0.4-0.6c0.3-0.8,0.6-1.5,1.1-2.2c0.3-0.2,0.4-0.6,0.4-1h0.2l0.2-0.5l0.3-0.1c0.1-0.2,0.2-0.4,0.5-0.7
		c0.4-0.1,0.8-0.5,1.3-1.1c0.1,0,0.2,0,0.4,0c0,0,0.2-0.2,0.4-0.5c0.5-0.2,0.8-0.3,0.9-0.3c0.1,0,0.3,0.1,0.4,0.3l0.4-0.1l0.2,0.2
		h0.3c0.2,0.5,0.5,0.8,1,0.8h0.1c0,0.2,0.1,0.4,0.3,0.5l-0.2,0.1c0.5,0.3,0.8,0.9,0.8,1.9l-0.1,0.5l0.1,1.3l-0.2,0.2l-0.5,1.4
		l-1,1.2l0,0.7c-1.1,0.9-2.1,1.6-2.8,1.9c-0.1,0.2-0.2,0.3-0.3,0.3c-0.1,0-0.2,0-0.4-0.1l-1.1,0.7H454l-0.9,0.4l-0.4-0.2
		c-0.1-0.1-0.4-0.1-1-0.2c-0.5,0.5-0.7,1-0.7,1.8l-0.3,0.4c-0.1,0.6-0.1,1-0.2,1.2l-0.3,0.1l0.3,1.7l-0.3,0.2l0,0.5l0,0.7
		c0,0.1,0,0.4,0.1,0.9s0.2,0.8,0.4,0.8c-0.1,0.2,0.1,0.5,0.5,0.8s0.8,0.5,1.2,0.7v0.3l1.2,0.2l1.8,0.1l1.2-0.1
		c0.5-0.3,0.8-0.6,1.1-0.6l0.4-0.6h0.4l0-0.2c0.7-0.2,1.1-0.4,1.1-0.5s0.1-0.2,0.1-0.2c0.1-0.2,0.2-0.3,0.4-0.3l0.1-0.3
		c0.7-0.1,1.1-0.6,1.3-1.4C461.7,525.4,461.9,525.3,462.1,525.3z M458.2,514.4c0.1,0,0.3-0.2,0.6-0.6l0.1-0.6
		c0.4-0.7,0.6-1.1,0.7-1.3s0.1-0.4,0.1-0.7s-0.1-0.7-0.3-1.4l-1-0.3c-0.3,0.1-0.4,0.1-0.5,0.1l-0.3-0.1c-0.2,0-0.4,0.1-0.5,0.4
		c-0.3,0-0.7,0.1-1.3,0.4l-0.1,0.3c-0.1,0-0.1,0-0.2,0c0,0-0.1,0-0.1,0s-0.1,0-0.1,0.1s-0.1,0.1-0.1,0.1s-0.1,0.1-0.1,0.2
		s0,0.1-0.1,0.2s0,0.1-0.1,0.2s-0.1,0.2-0.3,0.4l-0.4,0.4l-0.7,1.3l-0.4,0.3c-0.1,0.1-0.2,0.3-0.3,0.6s-0.5,1.1-1.3,2.3l0.3,0.2
		l0.2,0.4l0.8,0.2c0.5-0.3,0.9-0.5,1.5-0.6l0.1-0.3c0.2,0.1,0.3,0.1,0.4,0.1c0.2,0,0.3-0.1,0.4-0.3l0.6-0.1l0.4-0.6h0.3l0.2-0.5
		c0.4,0,0.8-0.2,1.2-0.6V514.4z"/>
	<path class="st0" d="M477.4,523.8c0.2,0.1,0.3,0.3,0.3,0.4c0,0.4-0.1,0.6-0.3,0.7c-0.4,0.6-0.8,0.9-1.1,0.9c0,0.1-0.5,0.7-1.6,1.6
		c-0.3,0.1-0.5,0.2-0.6,0.3s-0.3,0.3-0.6,0.6c-0.4,0-0.7,0.2-0.9,0.6L472,529l-0.2-0.1l-0.1,0.4h-0.1c-0.2,0-0.6,0.1-1,0.3
		s-0.7,0.3-0.8,0.3l-0.5,0.2h-0.3l-0.3-0.4l-0.4-0.4c-0.2-0.5-0.4-0.9-0.7-1.3l-0.1-1.1l0-0.6l-0.2-0.3l0-1.4l0-1.2l0-0.6
		c0.1-0.1,0.1-0.3,0.1-0.4c0-0.2-0.1-0.5-0.3-0.9c0.1-1.3,0.2-2.1,0.2-2.2c0-0.3-0.1-0.6-0.4-0.9l0.4-0.2l0.1-1.8l-0.1-0.8l0.4-0.9
		l-0.3-1c0.3-0.3,0.4-0.8,0.4-1.2v-1.6l0.1-0.4l0-2.3l0.1-2.3c-0.2-0.6-0.3-1.2-0.2-1.8l0.1-1.5l-0.1-0.5l0.2-2.2
		c0.2-0.1,0.4-0.1,0.6-0.2s0.3-0.1,0.4-0.1c0,0,0.1,0,0.2,0.1l0.2,0.8l0.5,0.4l-0.4,0.5v0.2c0,0.2,0.1,0.4,0.2,0.6
		c0,0.5-0.1,0.8-0.4,0.8l0.1,0.3c0,1,0.1,1.7,0.3,2l-0.4,1.2l0.3,0.4c-0.4,0.6-0.5,1.2-0.5,1.8c0,0.3,0.1,0.5,0.4,0.6l-0.3,0.9
		c0.1,0.3,0.2,0.5,0.2,0.6c0,0.2-0.1,0.4-0.2,0.6l0.1,0.6l-0.2,1.5l0,0.7c0,0.2-0.1,0.7-0.4,1.5l0.2,1l-0.1,1.8l-0.3,0.2l0.3,0.6
		l-0.2,0.9l-0.2,1.4l0.2,0.4l-0.2,0.1c0.2,0.3,0.3,0.6,0.3,1.1c0,0.1-0.1,0.3-0.2,0.6l0.2,0.5l-0.1,0.7l0.2,0.5l-0.1,0.4l0.5,1.6
		l0.6,0.2c0.6-0.3,0.9-0.4,1.1-0.4l0.3,0l0.7-0.6c0.1-0.1,0.3-0.2,0.6-0.3c0.2-0.3,0.4-0.4,0.8-0.5l0.2-0.3l0.4,0l0.1-0.2l0.5-0.1
		l0.4-0.3l0.5-0.1c0,0,0.2-0.2,0.5-0.4s0.5-0.5,0.7-0.6c0-0.1,0.1-0.3,0.3-0.4c0,0.1,0.1,0.1,0.2,0.1
		C477,524,477.1,523.9,477.4,523.8z"/>
	<path class="st0" d="M496.1,518.2l-0.3,1l0.2,0.4l-0.2,1.1c0,0.1-0.1,0.4-0.4,0.8v0.6l-0.4,1l-0.3,0.4c-0.1,0.1-0.3,0.5-0.5,1.2
		l-0.4,0.1l-0.2,0.6l-0.5,0.3l-0.4,0.9l-0.7,0.3l-0.1,0.6l-0.6,0.2c-0.3,0.4-0.5,0.6-0.6,0.8s-0.3,0.2-0.6,0.3s-0.6,0.2-0.7,0.3
		c-0.1,0.5-0.5,0.8-1.3,0.8c-0.2,0.2-0.4,0.4-0.7,0.4c-0.1,0-0.2,0-0.4-0.1c-0.4,0.4-0.8,0.6-1.2,0.7l-0.4,0.6l-0.6-0.4l-0.1,0.3
		l-0.7-0.3l-1.7-0.2c-0.3-0.6-0.7-1.1-1.2-1.7l0.2-0.6l-0.7-1.7l0.3-0.6l-0.3-1.3l0.3-0.8c0-0.1,0-0.3-0.1-0.6s-0.1-0.6-0.1-0.6
		c0-0.3,0.2-0.6,0.5-0.8V522c0-0.4,0.1-0.7,0.3-1.1h0.3c0.2-0.3,0.4-0.6,0.4-0.9l-0.1-0.3l0.1-0.7v-0.5c0.3-0.3,0.4-0.7,0.4-1.1
		l-0.1-0.8c0-0.2,0-0.4,0.1-0.6c0.5-0.3,0.7-0.5,0.7-0.7c0-0.2-0.1-0.3-0.2-0.5l0.5-0.8c0.1-0.1,0.2-0.2,0.3-0.3s0.2-0.1,0.2-0.2
		l-0.1-0.5c0.5,0,0.8-0.3,0.8-0.8c0-0.3,0-0.6-0.1-0.9c1.1,0,1.8-0.5,2.1-1.6h0.3c0.2-0.2,0.4-0.3,0.5-0.3c0,0,0.2,0,0.4,0.1
		s0.6,0.1,1.1,0.1l0.8-0.3v0.3c0.3,0,0.7,0.2,1.2,0.5h0.7c0.2,0.3,0.3,0.5,0.4,0.5l0.1,0c0.4,0.6,0.7,1,1.1,1.2l0.2,0.6l0.4,0.2
		l0.8,1.1l0.8,2.2v0.4L496.1,518.2z M494.6,519.6c0.2-0.2,0.3-0.4,0.3-0.6c0-0.1-0.1-0.2-0.2-0.3s-0.2-0.2-0.2-0.2h0.3
		c0-0.2-0.2-0.4-0.3-0.5l0.1-0.1l-0.3-0.8l0.1-1.1l-0.4-0.8c-0.3-0.2-0.5-0.4-0.5-0.5v-0.1c0-0.1-0.1-0.2-0.2-0.2s-0.2-0.1-0.2-0.2
		v0c0,0,0.1-0.3,0.2-0.6l-0.3-0.2l-0.5,0l-0.2-0.4l0.2-0.3l-0.6-0.3l-0.5-0.4l-1.4-0.6l-0.6-0.1c-0.9,0-1.4,0.3-1.4,0.8l0.1,1.6
		l-1,0l-1.5,0.9l-0.1,0.5l-0.5,0.4l-0.2,1.4l-0.5,0.3c-0.1,0-0.1,0.3-0.1,0.7c0,0.4,0,0.6,0.1,0.9l-0.6,0.3
		c-0.1,0.1-0.2,0.4-0.2,0.9c0,0.3-0.1,0.5-0.4,0.7v0.5l-0.4,0.7v0.4l-0.1,0.3l0.1,0.7l-0.6,1.5l0.2,0.5v1.1l-0.2,0.8l0,1.2l0.7,0.9
		c0.1,0.1,0.4,0.3,0.8,0.5l0.1,0.2l0.3-0.1l0.3,0.1l0.6-0.2l1.1,0l0.5-0.1l0.1-0.3l0.5,0c0.5,0,0.8-0.2,0.8-0.5l0.7,0.2l0.1-0.4
		l0.4,0l0.2-0.5c0.3-0.3,0.5-0.5,0.6-0.7h0.8l0.2-0.5l0.8-0.7l0.3-0.4c0.1-0.2,0.3-0.3,0.4-0.4l0.7-0.4c0.1-0.4,0.2-0.9,0.4-1.3
		l-0.1-0.4l0.7-0.3l-0.1-0.2c0.2-0.3,0.4-0.5,0.5-0.7h-0.2c0.1-0.2,0.2-0.3,0.2-0.4c0-0.1,0-0.2-0.1-0.4s-0.1-0.2-0.1-0.3
		c0-0.2,0-0.4,0.1-0.7s0.1-0.4,0.1-0.4C494.7,519.7,494.7,519.6,494.6,519.6z"/>
	<path class="st0" d="M517.1,524.7l-0.4,0.6l0.3,0.2c-0.2,0.3-0.4,0.5-0.6,0.7l-0.1,0.6l-0.6,0l-0.2,0.4c0,0.1-0.3,0.3-0.8,0.6
		l-0.3-0.1c-0.2,0.2-0.6,0.4-1.3,0.4l-0.3-0.2l0,0.4l-1.1-0.5c-0.1,0-0.2,0.1-0.5,0.4l-0.2-0.2l-1.5-0.1l-0.9,0.1l-0.4-0.4l-1,0.1
		l-0.5-0.4c-0.3,0.2-0.6,0.2-0.8,0.2c-0.2,0-0.5-0.1-0.7-0.2c-0.2,0.2-0.2,0.3-0.2,0.5c0,0,0,0.2,0.1,0.4s0.1,0.4,0.1,0.6
		c0,0.2-0.1,0.5-0.2,0.9l0.2,0.6l-0.4,0.5c0.1,0.7,0.2,1.3,0.2,1.9l-0.2,1.3l0.2,1.7l-0.4,0.6l0.3,0.9l-0.3,1.1l0.4,0.1v0.5
		c-0.2,0-0.4,0.2-0.4,0.5c0,0.1,0,0.2,0.1,0.5l0.1,0c-0.3,0.4-0.4,0.7-0.4,0.9l-0.1,3.8c0,0.5-0.1,0.8-0.4,0.8c-0.1,0-0.3,0-0.7-0.1
		l0-0.9l-0.2-2l0.4-0.8l0.1-1.4l-0.3-1.6c0.3-0.2,0.4-0.3,0.4-0.5c0-0.1-0.1-0.4-0.3-1.1l0.3-0.6l-0.3-1.1l0.3-0.8l-0.1-0.9l0.4-0.3
		c-0.5-0.1-0.7-0.4-0.7-0.8c0-0.2,0.1-0.8,0.4-1.7l-0.3-0.6l0.2-0.8l-0.2-0.2l0.2-0.3l-0.2-1.7l0.3-2.3l-0.3-0.5l0.7-0.3l-0.4-0.1
		l-0.3-0.5l-0.3-0.1l0.2-0.1l0,0.1l0.1-0.2l-0.2-0.2l0.5,0.1l-0.2-0.3l0.2,0v-0.2c-0.2-0.1-0.4-0.2-0.4-0.3c0-0.2,0-0.4,0.1-0.6
		l-0.1-0.5c-0.2,0-0.3-0.1-0.3-0.3c0-0.1,0.1-0.1,0.2-0.1h0.1v-0.1h0.3l-0.4-0.4l0.1-0.6v-0.6l0-0.4l-0.2-0.8l0.2-0.8l-0.2-0.7
		l0.2-0.9l-0.2-0.3l0-0.8l0-0.5l0-0.8c-0.2-0.2-0.3-0.5-0.3-1.1h-0.4l-0.4-0.3l-0.7,0.6v-0.1l-0.3,0.1h-0.7l-0.1,0.3l-0.6,0
		l-0.4,0.4l-0.6-0.1l-0.4,0.7l-0.6-0.3l-0.1,0.4c-0.6-0.4-1-0.7-1-1.1c0-0.1,0.1-0.2,0.3-0.3s0.3-0.2,0.3-0.3c0-0.1,0-0.2-0.1-0.5
		c0.6-0.3,1.1-0.4,1.7-0.4l0.1,0.1l0.4-0.4c0.1-0.1,0.6-0.3,1.3-0.7l0.2,0.1l0.4-0.5l1.1,0.1l0.8-0.3l0.1,0.1l0.2-1h0.4
		c0.3,0.6,0.7,1.1,1.1,1.3l0.2-0.4l0.3,0.3l0.3-0.2c0.5,0,1,0.2,1.4,0.4s0.7,0.4,1.1,0.4s0.6,0.2,0.8,0.4l0.3-0.2l0.1,0.4l0.6,0.3
		l0-0.1l0.4,0.1l0.4,0.5c0.1,0.2,0.3,0.3,0.5,0.4l0.8,0.5l0.1,0.3l0.6,0.2v0.1c0.4,0.2,0.6,0.5,0.7,0.9l0.5,0.3l0.4,0.9h0.2v0.4
		l0.3,0.3c0.1,0.1,0.2,0.4,0.3,0.8l0.4,0.1c0,0.6,0.3,1,0.6,1.2v0.6l0.4,0.5l0,0.6c0,0,0.1,0.2,0.2,0.5s0.2,0.7,0.3,1.1l-0.2,0.1
		l0.1,0.4v0.4l0.2,0l-0.3,1L517.1,524.7z M515.8,523.2l0-0.4l0-0.3l-0.3-0.9l0.2-0.5l-0.3-0.6l0-0.6l-0.4-0.8l-0.2-0.6l-0.9-1.5
		l-0.5-0.4l-0.3-1.1l-0.6-0.2l-0.7-0.9v-0.2l-0.5-0.2l-0.5,0l-0.6-0.8l-0.3,0.1l-0.3-0.4l-0.7-0.1h-0.6l-0.1-0.2l-0.3,0.2l-0.3-0.3
		l-0.3,0.1l-0.2-0.3l-0.4,0.1l-1.5-0.3c-0.3,0.1-0.4,0.4-0.4,0.6c0,0.1,0,0.1,0.1,0.2s0.1,0.4,0.1,0.8l-0.2,1l0.4,1.1l0.4,0.4
		L505,517l0.1,0.8l-0.3,1.7l0.2,0.4l-0.2,0.6l0.4,0.6l-0.2,0.2l0,0.6l0.4,0.2l-0.4,0.4l0.3,0.5l-0.5,0.6l0.2,1l0,0.8l0.2,0.9
		l1.8-0.1l0.1,0.3c0.2-0.3,0.3-0.4,0.3-0.4s0.2,0.2,0.5,0.5c0.1,0,0.2-0.1,0.4-0.1s0.2-0.1,0.3-0.1c0.2,0,0.4,0.1,0.8,0.2
		c0.1-0.2,0.2-0.3,0.4-0.3c0.1,0,0.1,0.1,0.2,0.2h0.8l0.6,0.1l0.7-0.3l0,0.2c1.1-0.1,1.8-0.3,2.1-0.5h0.1c0.3,0,0.4-0.1,0.4-0.4
		l0.4,0.1l0-0.5l0.4-0.1l0.1-0.5l-0.1-0.5l0.4-0.3l-0.1-0.3L515.8,523.2z"/>
	<path class="st0" d="M535.1,525.3c0.2,0.4,0.4,0.6,0.4,0.8c0,0.1-0.1,0.4-0.4,0.8s-0.5,0.8-0.7,1.3l-0.4,0l-0.5,1l-0.6,0.1
		l-1.3,0.9l-0.2,0.5l-0.4,0l-0.4,0.5h-0.7l-0.1,0.2l-0.3,0c-0.3,0-0.6,0.2-0.9,0.5l-0.3-0.2c-0.3,0.2-0.6,0.2-0.8,0.2
		c-0.4,0-0.6-0.1-0.9-0.2c-0.2,0-0.4,0-0.6,0l-0.3-0.2c-0.9,0-1.4-0.3-1.7-0.7v-0.6l-0.8-0.4l-0.2-0.5c-0.1-0.2-0.2-0.4-0.5-0.6
		v-0.4l-0.5-2.3l0.1-1.6l0.2-0.9v-1l0.3-0.9l-0.1-0.6c0.2-0.1,0.3-0.3,0.3-0.5s0.1-0.4,0.3-0.7c-0.1-0.3-0.1-0.7-0.2-1.2l0.4-0.4
		l-0.4-0.5c0.2-0.4,0.3-0.6,0.3-0.7l-0.2-1.4c0-0.3,0-0.7,0.1-1c0.2,0.3,0.4,0.4,0.6,0.4c0.1,0,0.4-0.1,0.9-0.2c0-0.1,0-0.2,0-0.3
		c0-0.2,0.1-0.4,0.4-0.6c0.3-0.8,0.6-1.5,1.1-2.2c0.3-0.2,0.4-0.6,0.4-1h0.2l0.2-0.5l0.3-0.1c0.1-0.2,0.2-0.4,0.5-0.7
		c0.4-0.1,0.8-0.5,1.3-1.1c0.1,0,0.2,0,0.4,0c0,0,0.2-0.2,0.4-0.5c0.5-0.2,0.8-0.3,0.9-0.3c0.1,0,0.3,0.1,0.4,0.3l0.4-0.1l0.2,0.2
		h0.3c0.2,0.5,0.5,0.8,1,0.8h0.1c0,0.2,0.1,0.4,0.3,0.5l-0.2,0.1c0.5,0.3,0.8,0.9,0.8,1.9l-0.1,0.5l0.1,1.3l-0.2,0.2l-0.5,1.4
		l-1,1.2l0,0.7c-1.1,0.9-2.1,1.6-2.8,1.9c-0.1,0.2-0.2,0.3-0.3,0.3c-0.1,0-0.2,0-0.4-0.1l-1.1,0.7H527l-0.9,0.4l-0.4-0.2
		c-0.1-0.1-0.4-0.1-1-0.2c-0.5,0.5-0.7,1-0.7,1.8l-0.3,0.4c-0.1,0.6-0.1,1-0.2,1.2l-0.3,0.1l0.3,1.7l-0.3,0.2l0,0.5l0,0.7
		c0,0.1,0,0.4,0.1,0.9s0.2,0.8,0.4,0.8c-0.1,0.2,0.1,0.5,0.5,0.8s0.8,0.5,1.2,0.7v0.3l1.2,0.2l1.8,0.1l1.2-0.1
		c0.5-0.3,0.8-0.6,1.1-0.6l0.4-0.6h0.4l0-0.2c0.7-0.2,1.1-0.4,1.1-0.5s0.1-0.2,0.1-0.2c0.1-0.2,0.2-0.3,0.4-0.3l0.1-0.3
		c0.7-0.1,1.1-0.6,1.3-1.4C534.7,525.4,534.9,525.3,535.1,525.3z M531.2,514.4c0.1,0,0.3-0.2,0.6-0.6l0.1-0.6
		c0.4-0.7,0.6-1.1,0.7-1.3s0.1-0.4,0.1-0.7s-0.1-0.7-0.3-1.4l-1-0.3c-0.3,0.1-0.4,0.1-0.5,0.1l-0.3-0.1c-0.2,0-0.4,0.1-0.5,0.4
		c-0.3,0-0.7,0.1-1.3,0.4l-0.1,0.3c-0.1,0-0.1,0-0.2,0c0,0-0.1,0-0.1,0s-0.1,0-0.1,0.1s-0.1,0.1-0.1,0.1s-0.1,0.1-0.1,0.2
		s0,0.1-0.1,0.2s0,0.1-0.1,0.2s-0.1,0.2-0.3,0.4l-0.4,0.4l-0.7,1.3l-0.4,0.3c-0.1,0.1-0.2,0.3-0.3,0.6s-0.5,1.1-1.3,2.3l0.3,0.2
		l0.2,0.4l0.8,0.2c0.5-0.3,0.9-0.5,1.5-0.6l0.1-0.3c0.2,0.1,0.3,0.1,0.4,0.1c0.2,0,0.3-0.1,0.4-0.3l0.6-0.1l0.4-0.6h0.3l0.2-0.5
		c0.4,0,0.8-0.2,1.2-0.6V514.4z"/>
	<path class="st0" d="M555.8,510.9l-0.1,0.6l-1.4,0.2l-0.9,0.7l-0.6,0.1l-0.8,0.5l-0.8,0.4c-0.4,0.3-0.7,0.5-0.9,0.6v0.2l-0.7,0.4
		l-0.5,0.8h-0.5l-0.3,0.8l-0.5,0.4c-0.2,0.1-0.4,0.3-0.5,0.5l-0.5,0.9c-0.4,0.2-0.6,0.6-0.6,1.3l-0.2-0.1l-0.1,0.3l-0.4,0.2
		l-0.3,0.8c-0.3,0.5-0.5,0.9-0.5,1.1l-0.4,0.2v1c-0.1,0.1-0.2,0.3-0.2,0.5l0.1,0.2l-0.5,0.2l0.1,0.4c0,0.3-0.3,0.9-0.7,1.7l0.2,0.6
		l-0.5,0.8c0.1,0.3,0.1,0.6,0.1,0.7l-0.1,0.8l0.2,0.8c0,0,0.1,0.1,0.2,0.3l0.4,0.4c-0.2,0.4-0.4,0.7-0.6,0.8l-0.6-0.2l0.1,0.4
		l-1.1-0.2v-0.6l-0.1-0.4l0.1-0.8l-0.1-0.3l0.1-1.6l-0.1-1.1c-0.2-0.1-0.3-0.2-0.3-0.3c0-0.1,0.1-0.3,0.3-0.6v-0.7
		c0-0.4,0-0.6,0-0.8l0.2-0.2l-0.2-0.9l0.1-0.7l-0.1-0.4l0.1-1.3l-0.2-0.4l0.1-0.4l-0.3-1l0.1-0.8c0-0.2,0-0.5-0.1-0.9l0.1-0.2
		l-0.3-1.6l-0.4-0.2l0.4-0.8c-0.3-0.5-0.5-1-0.5-1.6v-0.7c-0.1-0.2-0.2-0.3-0.3-0.4c0.2-0.3,0.6-0.6,1.2-0.8l0.4,0.1
		c0.1,0.4,0.2,0.8,0.5,1.1l-0.1,1.2l0.5,3.6c0,0.2-0.1,0.4-0.3,0.6l0.2,1l-0.1,0.7l0.1,0.8l-0.1,0.6l0.4,0.7l-0.2,0.1l0.2,1.1
		l0.4,0.1l0.2-0.9c0-0.1,0.2-0.4,0.6-0.8c0.4-0.4,0.6-0.8,0.6-1.2v-0.3l0.3-0.1c0,0,0.1-0.1,0.1-0.2s0.1-0.2,0.2-0.2h0.1l0.3-0.9
		l0.7-0.5l0-0.3h0.3l-0.1-0.5l0.7-0.3l0-0.6l0.7-0.1c0.3-0.3,0.6-0.6,0.7-0.9l0.4-0.1c0.1-0.1,0.4-0.4,0.9-0.9c0.1,0,0.2,0,0.2-0.1
		l0.8-0.4l0.2-0.4l0.4-0.2c0.8-0.6,1.4-0.9,1.7-0.9h0.2c0.3,0,0.5-0.1,0.7-0.2l0.4,0.1c0.2-0.2,0.4-0.2,0.5-0.2
		C555.5,510.7,555.8,510.8,555.8,510.9z"/>
</g>
</svg>
